<svg width="40" height="40" viewBox="0 0 40 40" fill="none" xmlns="http://www.w3.org/2000/svg">
<circle cx="20" cy="20" r="20" fill="#333A56"/>
<path fill-rule="evenodd" clip-rule="evenodd" d="M20.0001 12.9346C20.5885 12.9346 21.0656 13.4116 21.0656 14.0001V18.9346H26.0001C26.5885 18.9346 27.0656 19.4116 27.0656 20.0001C27.0656 20.5885 26.5885 21.0656 26.0001 21.0656H21.0656V26.0001C21.0656 26.5885 20.5885 27.0656 20.0001 27.0656C19.4116 27.0656 18.9346 26.5885 18.9346 26.0001V21.0656H14.0001C13.4116 21.0656 12.9346 20.5885 12.9346 20.0001C12.9346 19.4116 13.4116 18.9346 14.0001 18.9346H18.9346V14.0001C18.9346 13.4116 19.4116 12.9346 20.0001 12.9346Z" fill="white"/>
</svg>
