<svg width="24" height="24" viewBox="0 0 24 24" fill="none" xmlns="http://www.w3.org/2000/svg">
<path d="M20 21H4C3.44772 21 3 20.5523 3 20V4C3 3.44772 3.44772 3 4 3H16.0546C16.3381 3 16.6083 3.12032 16.7979 3.33104L20.7433 7.71477C20.9086 7.8984 21 8.13669 21 8.38374V20C21 20.5523 20.5523 21 20 21Z" stroke="#171740" stroke-width="2" stroke-linecap="round" stroke-linejoin="round"/>
<path d="M7 15C7 14.4477 7.44772 14 8 14H16C16.5523 14 17 14.4477 17 15V21H7V15Z" stroke="#171740" stroke-width="2" stroke-linecap="round" stroke-linejoin="round"/>
<path d="M15 7H9" stroke="#171740" stroke-width="2" stroke-linecap="round" stroke-linejoin="round"/>
</svg>
