<svg width="29" height="29" viewBox="0 0 29 29" fill="none" xmlns="http://www.w3.org/2000/svg">
<g id="chevron-down">
<path id="Icon" fill-rule="evenodd" clip-rule="evenodd" d="M7.2829 10.8132C7.5758 10.5203 8.05067 10.5203 8.34356 10.8132L13.0808 15.5504C13.4856 15.9552 13.7577 16.2265 13.984 16.4186C14.2036 16.605 14.3303 16.6725 14.427 16.7039C14.678 16.7855 14.9484 16.7855 15.1995 16.7039C15.2962 16.6725 15.4229 16.605 15.6425 16.4186C15.8688 16.2265 16.1409 15.9552 16.5456 15.5504L21.2829 10.8132C21.5758 10.5203 22.0507 10.5203 22.3436 10.8132C22.6365 11.1061 22.6365 11.5809 22.3436 11.8738L17.6063 16.6111L17.5848 16.6326C17.2071 17.0103 16.8918 17.3256 16.6132 17.5621C16.3227 17.8088 16.023 18.0135 15.663 18.1305C15.1107 18.3099 14.5158 18.3099 13.9634 18.1305C13.6034 18.0135 13.3038 17.8088 13.0132 17.5621C12.7346 17.3256 12.4194 17.0103 12.0417 16.6326L12.0202 16.6111L7.2829 11.8738C6.99001 11.5809 6.99001 11.1061 7.2829 10.8132Z" fill="#666666"/>
</g>
</svg>
