<svg width="24" height="24" viewBox="0 0 24 24" fill="none" xmlns="http://www.w3.org/2000/svg">
<g id="File / Archive">
<path id="Vector" d="M18 9H6C5.44772 9 5 9.44772 5 10V18C5 18.5523 5.44772 19 6 19H18C18.5523 19 19 18.5523 19 18V10C19 9.44772 18.5523 9 18 9Z" stroke="#E0E0FF" stroke-width="2" stroke-linecap="round" stroke-linejoin="round"/>
<path id="Vector_2" d="M10 14H14" stroke="#E0E0FF" stroke-width="2" stroke-linecap="round" stroke-linejoin="round"/>
<path id="Vector_3" d="M19.2741 6H4.72595C4.40909 6 4.11099 6.15016 3.92239 6.40477L3.18165 7.40477C2.69279 8.06474 3.1639 9 3.98521 9H20.0148C20.8361 9 21.3072 8.06474 20.8183 7.40477L20.0776 6.40477C19.889 6.15016 19.5909 6 19.2741 6Z" stroke="#E0E0FF" stroke-width="2" stroke-linecap="round" stroke-linejoin="round"/>
</g>
</svg>
