<svg width="29" height="29" viewBox="0 0 29 29" fill="none" xmlns="http://www.w3.org/2000/svg">
<g id="chevron-up">
<path id="Icon" fill-rule="evenodd" clip-rule="evenodd" d="M15.1995 12.9831C14.9484 12.9015 14.678 12.9015 14.427 12.9831C14.3303 13.0145 14.2036 13.0819 13.984 13.2684C13.7577 13.4605 13.4856 13.7318 13.0808 14.1365L8.34356 18.8738C8.05067 19.1667 7.5758 19.1667 7.2829 18.8738C6.99001 18.5809 6.99001 18.106 7.2829 17.8131L12.0202 13.0759L12.0417 13.0544C12.4194 12.6766 12.7346 12.3614 13.0132 12.1248C13.3038 11.8782 13.6034 11.6734 13.9634 11.5565C14.5158 11.377 15.1107 11.377 15.663 11.5565C16.023 11.6734 16.3227 11.8782 16.6132 12.1248C16.8918 12.3614 17.2071 12.6766 17.5848 13.0543L17.6063 13.0759L22.3436 17.8131C22.6365 18.106 22.6365 18.5809 22.3436 18.8738C22.0507 19.1667 21.5758 19.1667 21.2829 18.8738L16.5456 14.1365C16.1409 13.7318 15.8688 13.4605 15.6425 13.2684C15.4229 13.0819 15.2962 13.0145 15.1995 12.9831Z" fill="#6979F8"/>
</g>
</svg>
