<svg width="113" height="47" viewBox="0 0 113 47" fill="none" xmlns="http://www.w3.org/2000/svg">
<path d="M17.1042 35.0282L11.9687 29.5386L13.6604 27.7302L17.1042 31.4115L23.9312 24.1136L25.6229 25.9219L17.1042 35.0282ZM23.75 22.2084H21.3333V15.75H18.9167V19.625H6.83333V15.75H4.41667V33.8334H11.6667V36.4167H4.41667C3.75208 36.4167 3.18336 36.164 2.7105 35.6585C2.23764 35.153 2.00081 34.5447 2 33.8334V15.75C2 15.0396 2.23683 14.4317 2.7105 13.9262C3.18417 13.4207 3.75289 13.1676 4.41667 13.1667H9.46146C9.68299 12.4132 10.116 11.7945 10.7604 11.3106C11.4049 10.8266 12.1097 10.5842 12.875 10.5834C13.6806 10.5834 14.4007 10.8258 15.0355 11.3106C15.6703 11.7954 16.098 12.4141 16.3187 13.1667H21.3333C21.9979 13.1667 22.567 13.4199 23.0407 13.9262C23.5144 14.4325 23.7508 15.0405 23.75 15.75V22.2084ZM12.875 15.75C13.2174 15.75 13.5045 15.626 13.7365 15.378C13.9685 15.13 14.0841 14.8235 14.0833 14.4584C14.0833 14.0924 13.9673 13.7858 13.7353 13.5387C13.5033 13.2916 13.2166 13.1676 12.875 13.1667C12.5326 13.1667 12.2459 13.2907 12.0147 13.5387C11.7835 13.7867 11.6675 14.0933 11.6667 14.4584C11.6667 14.8243 11.7827 15.1313 12.0147 15.3793C12.2467 15.6273 12.5334 15.7509 12.875 15.75Z" fill="#FAFAFF"/>
<path d="M44.8516 15.6338C44.5704 15.2354 44.3038 14.8604 44.0518 14.5088C43.8057 14.1514 43.5889 13.8203 43.4014 13.5156C43.2139 13.2051 43.0675 12.9209 42.962 12.6631C42.8507 12.4053 42.795 12.1709 42.795 11.96C42.795 11.8545 42.8419 11.7402 42.9356 11.6172C43.0235 11.4883 43.129 11.3711 43.252 11.2656C43.3751 11.1543 43.5011 11.0635 43.63 10.9932C43.7647 10.917 43.8761 10.8789 43.9639 10.8789C44.1749 10.8789 44.3565 11.0107 44.5089 11.2744C44.5733 11.3975 44.67 11.5791 44.7989 11.8193C44.9337 12.0537 45.0889 12.3232 45.2647 12.6279C45.4405 12.9268 45.6339 13.249 45.8448 13.5947C46.0616 13.9346 46.2813 14.2744 46.504 14.6143C46.7325 14.9541 46.9581 15.2822 47.1807 15.5986C47.4093 15.9092 47.6261 16.1846 47.8311 16.4248C48.0421 16.665 48.2354 16.8584 48.4112 17.0049C48.5929 17.1455 48.7481 17.2158 48.877 17.2158C49.047 17.2158 49.2022 17.0986 49.3429 16.8643C49.4835 16.6299 49.6124 16.3223 49.7296 15.9414C49.8526 15.5605 49.961 15.1299 50.0548 14.6494C50.1485 14.1631 50.2305 13.6709 50.3009 13.1729C50.377 12.6748 50.4415 12.1943 50.4942 11.7314C50.547 11.2627 50.5909 10.8525 50.6261 10.501C50.6436 10.3135 50.6964 10.1729 50.7843 10.0791C50.8721 9.97949 50.9864 9.92969 51.127 9.92969C51.2501 9.92969 51.3848 9.95605 51.5313 10.0088C51.6778 10.0615 51.8155 10.1348 51.9444 10.2285C52.0733 10.3164 52.1788 10.4219 52.2608 10.5449C52.3487 10.6621 52.3927 10.791 52.3927 10.9316C52.3927 11.1484 52.3721 11.4033 52.3311 11.6963C52.296 11.9893 52.2491 12.2998 52.1905 12.6279C52.1378 12.9502 52.0763 13.2812 52.0059 13.6211C51.9356 13.9551 51.8653 14.2715 51.795 14.5703C51.7481 14.7812 51.6837 15.0449 51.6016 15.3613C51.5255 15.6719 51.4288 16.0029 51.3116 16.3545C51.1944 16.7002 51.0567 17.0488 50.8985 17.4004C50.7403 17.7461 50.5587 18.0596 50.3536 18.3408C50.1485 18.6162 49.9171 18.8389 49.6593 19.0088C49.4073 19.1846 49.1231 19.2725 48.8067 19.2725C48.5782 19.2725 48.3409 19.208 48.0948 19.0791C47.8487 18.9561 47.6026 18.792 47.3565 18.5869C47.1104 18.3818 46.8673 18.1504 46.627 17.8926C46.3868 17.6289 46.1583 17.3623 45.9415 17.0928C45.7247 16.8232 45.5225 16.5625 45.335 16.3105C45.1475 16.0527 44.9864 15.8271 44.8516 15.6338ZM59.7663 11.3184C60.0886 11.3184 60.3991 11.3682 60.698 11.4678C60.9968 11.5674 61.2605 11.7051 61.489 11.8809C61.7175 12.0566 61.8991 12.2676 62.0339 12.5137C62.1745 12.7598 62.2448 13.0322 62.2448 13.3311C62.2448 13.4541 62.2155 13.5742 62.157 13.6914C62.1042 13.8027 62.031 13.9023 61.9372 13.9902C61.8435 14.0723 61.7351 14.1396 61.612 14.1924C61.4948 14.2393 61.3718 14.2627 61.2429 14.2627C61.2312 14.2627 61.2195 14.2656 61.2077 14.2715C61.2019 14.2715 61.1931 14.2715 61.1814 14.2715C61.1696 14.2773 61.1579 14.2803 61.1462 14.2803L61.1814 14.9834C61.2048 15.8213 61.322 16.4336 61.5329 16.8203C61.7497 17.207 62.031 17.4004 62.3767 17.4004C62.4997 17.4004 62.6081 17.3887 62.7019 17.3652C62.8015 17.3418 62.8923 17.3154 62.9743 17.2861C63.0622 17.251 63.1443 17.2217 63.2204 17.1982C63.2966 17.1748 63.3728 17.1631 63.4489 17.1631C63.5837 17.1631 63.7009 17.2217 63.8005 17.3389C63.906 17.4561 63.9587 17.5967 63.9587 17.7607C63.9587 17.9248 63.8943 18.0889 63.7654 18.2529C63.6423 18.417 63.4782 18.5664 63.2732 18.7012C63.0681 18.8301 62.8366 18.9355 62.5788 19.0176C62.321 19.0996 62.0603 19.1406 61.7966 19.1406C61.3396 19.1406 60.9382 18.9531 60.5925 18.5781C60.2468 18.1973 60.0007 17.6406 59.8542 16.9082C59.8191 16.791 59.7722 16.7324 59.7136 16.7324C59.6433 16.7324 59.5818 16.7676 59.529 16.8379C58.9489 17.5703 58.3308 18.1211 57.6745 18.4902C57.0183 18.8535 56.3708 19.0352 55.7321 19.0352C55.4333 19.0352 55.1638 18.9912 54.9236 18.9033C54.6833 18.8154 54.4782 18.6924 54.3083 18.5342C54.1443 18.3701 54.0154 18.1738 53.9216 17.9453C53.8337 17.7109 53.7898 17.4502 53.7898 17.1631C53.7898 16.7588 53.8777 16.334 54.0534 15.8887C54.2351 15.4434 54.4782 15.0039 54.7829 14.5703C55.0876 14.1367 55.4392 13.7236 55.8376 13.3311C56.2419 12.9385 56.6638 12.5928 57.1032 12.2939C57.5486 11.9951 57.9997 11.7578 58.4568 11.582C58.9138 11.4062 59.3503 11.3184 59.7663 11.3184ZM59.4763 14.3594C59.5818 14.1602 59.6784 14.0166 59.7663 13.9287C59.8542 13.835 59.9802 13.7734 60.1443 13.7441C60.2732 13.7266 60.3376 13.6855 60.3376 13.6211C60.3376 13.5742 60.32 13.5244 60.2849 13.4717C60.1736 13.3193 60.0564 13.1875 59.9333 13.0762C59.8103 12.959 59.6462 12.9004 59.4411 12.9004C59.2185 12.9004 58.9695 12.9648 58.6941 13.0938C58.4187 13.2227 58.1374 13.3955 57.8503 13.6123C57.5691 13.8232 57.2907 14.0664 57.0154 14.3418C56.7458 14.6113 56.5056 14.8896 56.2946 15.1768C56.0837 15.4639 55.9138 15.748 55.7849 16.0293C55.656 16.3105 55.5915 16.5625 55.5915 16.7852C55.5915 16.9844 55.6443 17.1396 55.7497 17.251C55.8611 17.3623 56.0105 17.418 56.198 17.418C56.6784 17.418 57.2029 17.1631 57.7712 16.6533C58.3396 16.1436 58.9079 15.3789 59.4763 14.3594ZM69.3724 12.4258C69.1556 12.4258 68.9652 12.4844 68.8011 12.6016C68.6371 12.7129 68.4964 12.8711 68.3793 13.0762C68.2621 13.2754 68.1654 13.5127 68.0892 13.7881C68.013 14.0576 67.9515 14.3535 67.9046 14.6758C67.8578 14.998 67.8255 15.335 67.808 15.6865C67.7904 16.0381 67.7816 16.3926 67.7816 16.75C67.7816 17.2188 67.7992 17.6816 67.8343 18.1387C67.8754 18.5898 67.8959 19.0088 67.8959 19.3955C67.8959 19.6475 67.8021 19.8438 67.6146 19.9844C67.4271 20.1309 67.1605 20.2041 66.8148 20.2041C66.7504 20.2041 66.6771 20.1982 66.5951 20.1865C66.513 20.1748 66.4339 20.1514 66.3578 20.1162C66.2875 20.0811 66.223 20.0312 66.1644 19.9668C66.1117 19.9082 66.0824 19.8262 66.0765 19.7207C66.0238 19.2051 65.9476 18.6777 65.848 18.1387C65.7484 17.5996 65.6224 17.0635 65.4701 16.5303C65.3236 15.9912 65.1449 15.458 64.9339 14.9307C64.7289 14.4033 64.4916 13.8877 64.222 13.3838C64.1752 13.2959 64.1341 13.2139 64.099 13.1377C64.0697 13.0615 64.055 12.9883 64.055 12.918C64.055 12.8301 64.0931 12.7363 64.1693 12.6367C64.2513 12.5312 64.3509 12.4346 64.4681 12.3467C64.5912 12.2588 64.723 12.1885 64.8636 12.1357C65.0101 12.0771 65.1507 12.0479 65.2855 12.0479C65.5082 12.0479 65.7045 12.2031 65.8744 12.5137C66.0443 12.8184 66.2025 13.3076 66.349 13.9814C66.3783 14.0986 66.4017 14.1807 66.4193 14.2275C66.4369 14.2744 66.4603 14.2979 66.4896 14.2979C66.5541 14.2979 66.5951 14.1982 66.6127 13.999C66.683 13.4424 66.8031 12.9648 66.973 12.5664C67.1429 12.1621 67.3539 11.8311 67.6058 11.5732C67.8636 11.3096 68.1566 11.1162 68.4847 10.9932C68.8187 10.8701 69.1849 10.8086 69.5834 10.8086C69.8119 10.8086 70.0433 10.8291 70.2777 10.8701C70.5121 10.9111 70.723 10.9727 70.9105 11.0547C71.098 11.1367 71.2504 11.2363 71.3675 11.3535C71.4847 11.4707 71.5433 11.6025 71.5433 11.749C71.5433 11.8545 71.5199 11.9805 71.473 12.127C71.432 12.2676 71.3763 12.4053 71.306 12.54C71.2357 12.6689 71.1537 12.7803 71.0599 12.874C70.972 12.9619 70.8812 13.0059 70.7875 13.0059C70.682 13.0059 70.5795 12.9766 70.4798 12.918C70.3802 12.8535 70.2718 12.7861 70.1546 12.7158C70.0433 12.6455 69.9232 12.5811 69.7943 12.5225C69.6712 12.458 69.5306 12.4258 69.3724 12.4258ZM72.668 10.0352C72.498 10.0352 72.3369 10.0117 72.1846 9.96484C72.0381 9.91211 71.9092 9.8418 71.7979 9.75391C71.6924 9.66016 71.6074 9.55176 71.543 9.42871C71.4785 9.30566 71.4463 9.1709 71.4463 9.02441C71.4463 8.77832 71.543 8.5791 71.7363 8.42676C71.9355 8.27441 72.1992 8.19824 72.5273 8.19824C72.6797 8.19824 72.8262 8.22754 72.9668 8.28613C73.1074 8.33887 73.2305 8.41211 73.3359 8.50586C73.4473 8.59961 73.5352 8.71094 73.5996 8.83984C73.6641 8.96289 73.6963 9.0918 73.6963 9.22656C73.6963 9.47852 73.6025 9.67773 73.415 9.82422C73.2334 9.96484 72.9844 10.0352 72.668 10.0352ZM71.4639 12.7158C71.4639 12.5107 71.5518 12.3438 71.7275 12.2148C71.9092 12.0801 72.1465 12.0127 72.4395 12.0127C72.9668 12.0127 73.248 12.1943 73.2832 12.5576C73.3066 12.8096 73.3301 13.0938 73.3535 13.4102C73.3828 13.7266 73.4092 14.0635 73.4326 14.4209C73.4619 14.7725 73.4854 15.1387 73.5029 15.5195C73.5264 15.8945 73.5469 16.2666 73.5645 16.6357C73.582 16.999 73.5967 17.3506 73.6084 17.6904C73.6201 18.0303 73.626 18.3408 73.626 18.6221C73.626 18.915 73.5205 19.1348 73.3096 19.2812C73.1045 19.4277 72.8027 19.501 72.4043 19.501C72.2227 19.501 72.0791 19.457 71.9736 19.3691C71.874 19.2871 71.8242 19.1641 71.8242 19C71.8242 18.1914 71.8037 17.4355 71.7627 16.7324C71.7275 16.0234 71.6865 15.3936 71.6396 14.8428C71.5986 14.292 71.5576 13.835 71.5166 13.4717C71.4814 13.1025 71.4639 12.8506 71.4639 12.7158ZM83.0914 17.0752C83.2614 16.9287 83.4284 16.8555 83.5924 16.8555C83.6862 16.8555 83.7711 16.8789 83.8473 16.9258C83.9235 16.9727 84.0084 17.0459 84.1022 17.1455C84.1901 17.2803 84.2516 17.3916 84.2868 17.4795C84.3278 17.5615 84.3483 17.6436 84.3483 17.7256C84.3483 17.9014 84.2604 18.0684 84.0846 18.2266C83.8034 18.4609 83.4987 18.6719 83.1705 18.8594C82.8424 19.041 82.4996 19.1963 82.1422 19.3252C81.7848 19.4541 81.4157 19.5508 81.0348 19.6152C80.6539 19.6855 80.276 19.7207 79.901 19.7207C79.4264 19.7207 78.9811 19.6592 78.5651 19.5361C78.1491 19.4189 77.777 19.249 77.4489 19.0264C77.1266 18.8037 76.8541 18.5371 76.6315 18.2266C76.4088 17.9102 76.2506 17.5557 76.1569 17.1631C76.1041 16.999 76.0543 16.8936 76.0075 16.8467C75.9664 16.7939 75.8961 16.7676 75.7965 16.7676C75.5797 16.7676 75.4127 16.7148 75.2955 16.6094C75.1784 16.5039 75.1198 16.3516 75.1198 16.1523C75.1198 16.0703 75.1256 16.0176 75.1373 15.9941L75.1549 15.8184C75.1842 15.6074 75.2399 15.4551 75.3219 15.3613C75.4098 15.2676 75.5446 15.2207 75.7262 15.2207H75.858C76.1041 15.2207 76.277 15.1064 76.3766 14.8779C76.5582 14.4736 76.7897 14.1045 77.0709 13.7705C77.3522 13.4365 77.6686 13.1523 78.0202 12.918C78.3717 12.6777 78.7467 12.4932 79.1452 12.3643C79.5495 12.2295 79.9596 12.1621 80.3756 12.1621C80.8092 12.1621 81.2135 12.2266 81.5885 12.3555C81.9694 12.4785 82.3004 12.6514 82.5817 12.874C82.8629 13.0967 83.0827 13.3574 83.2409 13.6562C83.4049 13.9551 83.487 14.2773 83.487 14.623C83.487 14.8633 83.4401 15.083 83.3463 15.2822C83.2526 15.4814 83.1178 15.6572 82.942 15.8096C82.7663 15.9561 82.5524 16.0762 82.3004 16.1699C82.0543 16.2637 81.7731 16.3252 81.4567 16.3545L78.4069 16.6621C78.2897 16.6621 78.193 16.6914 78.1168 16.75C78.0465 16.8086 78.0114 16.8877 78.0114 16.9873C78.0114 17.1396 78.067 17.2861 78.1784 17.4268C78.2955 17.5674 78.4479 17.6934 78.6354 17.8047C78.8288 17.9102 79.0485 17.9951 79.2946 18.0596C79.5465 18.124 79.8043 18.1562 80.068 18.1562C80.32 18.1562 80.5778 18.1328 80.8414 18.0859C81.111 18.0332 81.3746 17.96 81.6325 17.8662C81.8961 17.7725 82.151 17.6611 82.3971 17.5322C82.6432 17.3975 82.8746 17.2451 83.0914 17.0752ZM81.1315 14.8076C81.2194 14.79 81.2955 14.749 81.36 14.6846C81.4245 14.6143 81.4567 14.5293 81.4567 14.4297C81.4567 14.3418 81.4245 14.2598 81.36 14.1836C81.2955 14.1074 81.2077 14.04 81.0963 13.9814C80.985 13.917 80.8561 13.8672 80.7096 13.832C80.5631 13.7969 80.4079 13.7793 80.2438 13.7793C80.0036 13.7793 79.7575 13.8145 79.5055 13.8848C79.2536 13.9551 79.025 14.0488 78.82 14.166C78.6149 14.2773 78.4479 14.4033 78.319 14.5439C78.1901 14.6787 78.1256 14.8135 78.1256 14.9482C78.1256 15.083 78.2077 15.1504 78.3717 15.1504C78.4713 15.1504 78.6325 15.1387 78.8551 15.1152C79.0778 15.0918 79.3239 15.0654 79.5934 15.0361C79.8629 15.001 80.1354 14.9629 80.4108 14.9219C80.6862 14.8809 80.9264 14.8428 81.1315 14.8076ZM86.0882 8.84863C86.0882 8.53809 86.1761 8.32129 86.3518 8.19824C86.5276 8.06934 86.8177 8.00488 87.222 8.00488C87.3684 8.00488 87.4915 8.01953 87.5911 8.04883C87.6966 8.07227 87.7845 8.11914 87.8548 8.18945C87.9309 8.25977 87.9895 8.35352 88.0305 8.4707C88.0774 8.58203 88.1155 8.72559 88.1448 8.90137C88.2151 9.44629 88.2913 10.0088 88.3733 10.5889C88.4612 11.1689 88.552 11.752 88.6458 12.3379C88.6809 12.6016 88.8186 12.7334 89.0589 12.7334C89.1233 12.7334 89.2288 12.7275 89.3753 12.7158C89.5276 12.6982 89.7063 12.6807 89.9114 12.6631C90.1165 12.6396 90.3362 12.6162 90.5706 12.5928C90.8108 12.5693 91.0481 12.5488 91.2825 12.5312C91.5227 12.5078 91.7483 12.4902 91.9593 12.4785C92.1761 12.4609 92.3665 12.4521 92.5305 12.4521C92.6595 12.4521 92.762 12.4785 92.8382 12.5312C92.9143 12.5781 92.9729 12.6426 93.0139 12.7246C93.0608 12.8008 93.0901 12.8887 93.1018 12.9883C93.1194 13.082 93.1282 13.1787 93.1282 13.2783C93.1282 13.3662 93.1106 13.457 93.0755 13.5508C93.0462 13.6445 93.0022 13.7295 92.9436 13.8057C92.8909 13.876 92.8235 13.9346 92.7415 13.9814C92.6595 14.0283 92.5657 14.0518 92.4602 14.0518C91.9505 14.0518 91.4348 14.0693 90.9134 14.1045C90.3977 14.1338 89.8821 14.1748 89.3665 14.2275C89.1028 14.2627 88.971 14.3945 88.971 14.623C88.971 14.6406 88.9739 14.6641 88.9798 14.6934C88.9856 14.7168 88.9886 14.7373 88.9886 14.7549C89.0589 15.2646 89.1233 15.7422 89.1819 16.1875C89.2464 16.6328 89.2991 17.0312 89.3401 17.3828C89.387 17.7285 89.4221 18.0186 89.4456 18.2529C89.4749 18.4814 89.4895 18.6338 89.4895 18.71C89.4895 18.9209 89.469 19.0967 89.428 19.2373C89.387 19.3838 89.3196 19.501 89.2259 19.5889C89.1321 19.6826 89.0061 19.7471 88.8479 19.7822C88.6956 19.8232 88.5022 19.8438 88.2679 19.8438C88.0452 19.8438 87.8811 19.791 87.7757 19.6855C87.6702 19.5801 87.6116 19.4189 87.5999 19.2021C87.5647 18.5107 87.5091 17.8164 87.4329 17.1191C87.3567 16.416 87.2688 15.7158 87.1692 15.0186C87.1165 14.7666 86.9846 14.6406 86.7737 14.6406C86.7561 14.6406 86.7356 14.6436 86.7122 14.6494C86.6888 14.6553 86.6682 14.6582 86.6507 14.6582C86.2874 14.7402 85.9446 14.8223 85.6223 14.9043C85.3001 14.9863 84.9983 15.0742 84.7171 15.168C84.5589 15.2207 84.4182 15.2588 84.2952 15.2822C84.1721 15.2998 84.0608 15.3086 83.9612 15.3086C83.8264 15.3086 83.7268 15.25 83.6624 15.1328C83.5979 15.0098 83.5657 14.8574 83.5657 14.6758C83.5657 14.6113 83.5716 14.5381 83.5833 14.4561C83.595 14.3682 83.6184 14.2832 83.6536 14.2012C83.6829 14.1133 83.7298 14.0342 83.7942 13.9639C83.8528 13.8877 83.9348 13.8262 84.0403 13.7793C84.2864 13.6797 84.6145 13.5771 85.0247 13.4717C85.4348 13.3604 85.8977 13.2578 86.4134 13.1641C86.5305 13.1348 86.6214 13.0879 86.6858 13.0234C86.7561 12.9531 86.7913 12.8506 86.7913 12.7158C86.7913 12.6865 86.7913 12.6572 86.7913 12.6279C86.7913 12.5928 86.7854 12.5576 86.7737 12.5225C86.68 11.9834 86.5891 11.4941 86.5013 11.0547C86.4192 10.6094 86.346 10.2285 86.2815 9.91211C86.2229 9.5957 86.1761 9.34668 86.1409 9.16504C86.1057 8.9834 86.0882 8.87793 86.0882 8.84863ZM96.6435 19.2373C96.2919 19.2373 95.9404 19.1523 95.5888 18.9824C95.2372 18.8066 94.9003 18.5693 94.578 18.2705C94.2558 17.9717 93.957 17.6201 93.6816 17.2158C93.4062 16.8057 93.1659 16.3662 92.9609 15.8975C92.7558 15.4229 92.5947 14.9277 92.4775 14.4121C92.3603 13.8965 92.3017 13.3809 92.3017 12.8652C92.3017 12.4668 92.3837 12.1826 92.5478 12.0127C92.7118 11.8369 92.9784 11.749 93.3476 11.749C93.8105 11.749 94.0683 11.9395 94.121 12.3203C94.2265 13.1289 94.373 13.8584 94.5605 14.5088C94.748 15.1592 94.9677 15.7129 95.2197 16.1699C95.4775 16.627 95.7616 16.9785 96.0722 17.2246C96.3886 17.4707 96.7226 17.5938 97.0741 17.5938C97.3261 17.5938 97.5634 17.5322 97.7861 17.4092C98.0087 17.2803 98.2021 17.1016 98.3661 16.873C98.4247 16.7852 98.4628 16.7002 98.4804 16.6182C98.5038 16.5361 98.5214 16.4424 98.5331 16.3369C98.5624 15.9209 98.5947 15.5137 98.6298 15.1152C98.6708 14.7109 98.7089 14.3066 98.7441 13.9023C98.7558 13.7266 98.7792 13.583 98.8144 13.4717C98.8495 13.3604 98.9023 13.2725 98.9726 13.208C99.0429 13.1436 99.1337 13.0996 99.245 13.0762C99.3622 13.0527 99.5087 13.041 99.6845 13.041C99.8837 13.041 100.054 13.0703 100.194 13.1289C100.335 13.1816 100.449 13.2725 100.537 13.4014C100.625 13.5244 100.686 13.6885 100.722 13.8936C100.763 14.0928 100.783 14.3418 100.783 14.6406C100.783 14.8984 100.763 15.124 100.722 15.3174C100.686 15.5049 100.643 15.6836 100.59 15.8535C100.543 16.0176 100.496 16.1816 100.449 16.3457C100.408 16.5039 100.382 16.6797 100.37 16.873C100.341 17.3594 100.314 17.7812 100.291 18.1387C100.268 18.4902 100.247 18.792 100.229 19.0439C100.218 19.2959 100.206 19.5127 100.194 19.6943C100.188 19.876 100.183 20.0371 100.177 20.1777C100.171 20.3242 100.168 20.4619 100.168 20.5908C100.168 20.7197 100.168 20.8604 100.168 21.0127C100.168 21.2881 100.18 21.5869 100.203 21.9092C100.226 22.2373 100.25 22.5508 100.273 22.8496C100.303 23.1484 100.329 23.4121 100.352 23.6406C100.376 23.8691 100.388 24.0273 100.388 24.1152C100.388 24.2266 100.352 24.332 100.282 24.4316C100.212 24.5312 100.118 24.6191 100.001 24.6953C99.8837 24.7715 99.746 24.8301 99.5878 24.8711C99.4296 24.918 99.2626 24.9414 99.0868 24.9414C98.9345 24.9414 98.8114 24.8887 98.7177 24.7832C98.6298 24.6836 98.58 24.5488 98.5683 24.3789C98.5507 24.1562 98.5361 23.8838 98.5243 23.5615C98.5126 23.2451 98.5009 22.9053 98.4892 22.542C98.4775 22.1846 98.4687 21.8184 98.4628 21.4434C98.4628 21.0742 98.4599 20.7285 98.454 20.4062C98.4482 20.0898 98.4452 19.8115 98.4452 19.5713C98.4452 19.3311 98.4452 19.1582 98.4452 19.0527C98.4452 18.9473 98.4335 18.874 98.4101 18.833C98.3866 18.7861 98.3427 18.7627 98.2782 18.7627C98.2431 18.7627 98.1962 18.7744 98.1376 18.7979C98.079 18.8154 98.0116 18.8477 97.9355 18.8945C97.7304 19.0176 97.5224 19.1055 97.3114 19.1582C97.1005 19.2109 96.8779 19.2373 96.6435 19.2373Z" fill="#FAFAFF"/>
<path d="M42.4539 46.48L42.2509 46.364C42.1929 46.306 42.1639 46.277 42.1639 46.277C42.1446 46.1997 42.1156 46.1223 42.0769 46.045C42.0382 45.987 42.0286 45.9193 42.0479 45.842C42.0479 45.726 42.0382 45.61 42.0189 45.494C41.9996 45.3973 41.9706 45.3103 41.9319 45.233L41.8739 45.001C41.8546 44.8077 41.7772 44.6143 41.6419 44.421C41.5066 44.2083 41.4002 43.9957 41.3229 43.783C41.2456 43.5703 41.1876 43.348 41.1489 43.116C41.1102 42.884 41.0426 42.6713 40.9459 42.478C40.8492 42.2653 40.7526 42.043 40.6559 41.811L40.4819 41.434C40.4239 41.2987 40.3466 41.2117 40.2499 41.173C40.1919 41.1537 40.1242 41.086 40.0469 40.97C40.0082 40.9507 39.9696 40.9023 39.9309 40.825C39.8729 40.6897 39.8052 40.564 39.7279 40.448C39.6699 40.3127 39.6022 40.1773 39.5249 40.042C39.4476 39.926 39.3702 39.8197 39.2929 39.723C39.2349 39.607 39.1769 39.491 39.1189 39.375C39.0996 39.317 39.0706 39.259 39.0319 39.201C38.9932 39.143 38.9546 39.085 38.9159 39.027C38.8772 38.9497 38.8289 38.8723 38.7709 38.795C38.7322 38.6983 38.6936 38.6113 38.6549 38.534L38.4809 38.186C38.4229 38.0893 38.3649 38.0023 38.3069 37.925C38.2682 37.8283 38.2296 37.7413 38.1909 37.664C38.1136 37.4513 38.0169 37.258 37.9009 37.084C37.7849 36.91 37.6689 36.7263 37.5529 36.533C37.5142 36.4557 37.4756 36.3977 37.4369 36.359C37.4176 36.301 37.3886 36.243 37.3499 36.185C37.3112 36.127 37.2726 36.069 37.2339 36.011C37.1566 35.8757 37.0792 35.7403 37.0019 35.605C36.9439 35.4697 36.8956 35.3343 36.8569 35.199C36.8376 35.1217 36.8182 35.054 36.7989 34.996C36.7796 34.938 36.7506 34.88 36.7119 34.822C36.6732 34.7253 36.6346 34.6383 36.5959 34.561C36.5572 34.4643 36.5186 34.3677 36.4799 34.271C36.4799 34.2517 36.4702 34.2323 36.4509 34.213C36.3736 34.0583 36.3059 33.9037 36.2479 33.749C36.1899 33.5943 36.1319 33.4493 36.0739 33.314C35.9966 33.1207 35.9096 32.937 35.8129 32.763C35.7162 32.589 35.6196 32.415 35.5229 32.241L35.4359 32.038C35.2426 31.4773 34.9816 30.9167 34.6529 30.356C34.6336 30.3367 34.6239 30.3173 34.6239 30.298C34.6239 30.2787 34.6142 30.2593 34.5949 30.24C34.5756 30.1047 34.5176 29.979 34.4209 29.863C34.4016 29.863 34.3919 29.8533 34.3919 29.834C34.3919 29.8147 34.3822 29.7953 34.3629 29.776C34.3242 29.6793 34.2759 29.5827 34.2179 29.486C34.1792 29.37 34.1309 29.2637 34.0729 29.167C34.0729 29.1283 34.0632 29.0993 34.0439 29.08C34.0246 29.0413 34.0052 29.0123 33.9859 28.993C33.9086 28.8963 33.8409 28.7997 33.7829 28.703C33.7442 28.6063 33.7056 28.5 33.6669 28.384C33.6282 28.2873 33.5896 28.2003 33.5509 28.123C33.5122 28.0263 33.4736 27.9393 33.4349 27.862L33.3769 27.775C33.2996 27.6397 33.2319 27.514 33.1739 27.398C33.1159 27.2627 33.0482 27.1273 32.9709 26.992C32.9516 26.9147 32.9032 26.76 32.8259 26.528C32.7486 26.296 32.7002 26.1413 32.6809 26.064C32.6616 26.0253 32.6519 25.9673 32.6519 25.89C32.6519 25.774 32.6422 25.658 32.6229 25.542C32.6229 25.426 32.6326 25.31 32.6519 25.194C32.6906 24.672 32.8839 24.2563 33.2319 23.947C33.4252 23.7923 33.6186 23.686 33.8119 23.628C33.8506 23.6087 33.8892 23.599 33.9279 23.599C33.9666 23.599 33.9956 23.5893 34.0149 23.57C34.1502 23.5313 34.2759 23.5217 34.3919 23.541C34.5079 23.5603 34.6239 23.5893 34.7399 23.628L35.2039 23.889C35.4166 23.9857 35.5519 24.1307 35.6099 24.324C35.6486 24.4207 35.6872 24.5173 35.7259 24.614C35.7839 24.6913 35.8419 24.7687 35.8999 24.846C36.0352 25.02 36.1416 25.2037 36.2189 25.397C36.3156 25.571 36.4026 25.7547 36.4799 25.948C36.5379 26.0833 36.5862 26.2187 36.6249 26.354C36.6829 26.4893 36.7409 26.615 36.7989 26.731L37.2339 27.775C37.3112 27.949 37.3886 28.123 37.4659 28.297C37.5432 28.471 37.6206 28.645 37.6979 28.819L37.7849 29.051C37.8622 29.2443 37.9396 29.4473 38.0169 29.66C38.1136 29.8533 38.1909 30.0563 38.2489 30.269C38.2876 30.385 38.3359 30.501 38.3939 30.617C38.4519 30.7137 38.5099 30.82 38.5679 30.936C38.6066 31.0133 38.6452 31.1003 38.6839 31.197C38.7226 31.2937 38.7612 31.3903 38.7999 31.487C38.8192 31.5063 38.8289 31.5353 38.8289 31.574C38.8289 31.6127 38.8386 31.6417 38.8579 31.661C38.9352 31.777 38.9932 31.893 39.0319 32.009C39.0706 32.125 39.1092 32.241 39.1479 32.357C39.3412 32.8017 39.5346 33.2463 39.7279 33.691C39.9406 34.1357 40.1532 34.5803 40.3659 35.025C40.4046 35.141 40.4529 35.257 40.5109 35.373C40.5689 35.489 40.6172 35.605 40.6559 35.721L40.9169 36.214C40.9556 36.3107 40.9942 36.417 41.0329 36.533C41.0716 36.6297 41.1199 36.7263 41.1779 36.823C41.2359 36.9197 41.2842 37.026 41.3229 37.142C41.3616 37.2387 41.4002 37.3353 41.4389 37.432L41.7579 38.041C41.7966 38.1183 41.8352 38.1957 41.8739 38.273C41.9319 38.3503 41.9706 38.4083 41.9899 38.447C42.0092 38.4857 42.0286 38.534 42.0479 38.592C42.0672 38.6307 42.0866 38.6693 42.1059 38.708C42.1446 38.7273 42.1929 38.795 42.2509 38.911C42.3089 39.0077 42.3282 39.056 42.3089 39.056C42.4056 39.0947 42.4636 39.0753 42.4829 38.998C42.5022 38.9207 42.5216 38.8433 42.5409 38.766C42.5796 38.6693 42.6086 38.5823 42.6279 38.505C42.6666 38.3503 42.6956 38.1957 42.7149 38.041C42.7342 37.8863 42.7536 37.7317 42.7729 37.577C42.8116 37.3643 42.8406 37.1613 42.8599 36.968C42.8986 36.7553 42.9372 36.5523 42.9759 36.359C42.9759 36.3203 42.9759 36.272 42.9759 36.214C42.9759 36.156 42.9856 36.1077 43.0049 36.069C43.0629 35.4697 43.1499 34.8993 43.2659 34.358C43.2659 34.3 43.2756 34.2613 43.2949 34.242C43.3142 33.9133 43.3529 33.604 43.4109 33.314C43.4882 33.0047 43.5559 32.6953 43.6139 32.386C43.6526 32.1153 43.7009 31.8447 43.7589 31.574C43.8169 31.3033 43.8749 31.0327 43.9329 30.762C44.0102 30.4333 44.0876 30.1047 44.1649 29.776C44.2422 29.428 44.3196 29.0897 44.3969 28.761L44.6579 27.659C44.6966 27.5043 44.7352 27.3593 44.7739 27.224C44.8126 27.0887 44.8512 26.9533 44.8899 26.818C44.9286 26.644 44.9672 26.4797 45.0059 26.325C45.0639 26.151 45.1026 25.9867 45.1219 25.832C45.1606 25.6967 45.1992 25.571 45.2379 25.455C45.2766 25.3197 45.3152 25.1843 45.3539 25.049L45.6149 24.324C45.6342 24.2467 45.6536 24.1693 45.6729 24.092C45.6922 23.9953 45.7019 23.9083 45.7019 23.831C45.6826 23.6763 45.6922 23.5313 45.7309 23.396C45.7696 23.2607 45.8082 23.1253 45.8469 22.99C45.9436 22.7193 46.0596 22.5067 46.1949 22.352C46.2529 22.294 46.3012 22.236 46.3399 22.178C46.3786 22.1007 46.4172 22.0233 46.4559 21.946C46.4946 21.888 46.5139 21.7913 46.5139 21.656C46.5139 21.54 46.4656 21.4723 46.3689 21.453C46.3109 21.4143 46.2819 21.3757 46.2819 21.337C46.3012 21.2983 46.3109 21.25 46.3109 21.192C46.3496 21.076 46.3979 21.0083 46.4559 20.989L46.9199 20.786C46.9586 20.7667 46.9972 20.757 47.0359 20.757C47.0746 20.757 47.1036 20.7473 47.1229 20.728C47.1809 20.728 47.2292 20.7473 47.2679 20.786C47.3259 20.844 47.4032 20.8827 47.4999 20.902C47.5966 20.9213 47.7029 20.9407 47.8189 20.96C47.9349 20.9793 48.0509 20.9987 48.1669 21.018C48.2249 21.0373 48.2829 21.0567 48.3409 21.076C48.3989 21.076 48.4569 21.0953 48.5149 21.134C48.6116 21.2113 48.7082 21.2983 48.8049 21.395C48.9209 21.4723 49.0176 21.569 49.0949 21.685C49.2302 21.8783 49.3462 22.1007 49.4429 22.352L49.5299 22.671C49.6266 22.8257 49.6942 23.019 49.7329 23.251C49.8296 23.7343 49.7909 24.179 49.6169 24.585C49.5976 24.643 49.5686 24.7107 49.5299 24.788C49.5106 24.846 49.4816 24.904 49.4429 24.962C49.3462 25.1167 49.2592 25.281 49.1819 25.455C49.1239 25.629 49.0756 25.803 49.0369 25.977C49.0176 26.151 48.9789 26.325 48.9209 26.499C48.8629 26.6537 48.7952 26.8083 48.7179 26.963L48.4569 27.659C48.4376 27.6977 48.4182 27.746 48.3989 27.804C48.3796 27.8427 48.3602 27.8813 48.3409 27.92V27.978C48.3216 27.9973 48.3022 28.036 48.2829 28.094C48.2636 28.1327 48.2539 28.1713 48.2539 28.21C48.2346 28.3453 48.1959 28.471 48.1379 28.587C48.0799 28.703 48.0606 28.8383 48.0799 28.993C48.0799 29.0317 48.1089 29.0703 48.1669 29.109C48.2056 29.109 48.2442 29.1187 48.2829 29.138C48.3216 29.138 48.3602 29.138 48.3989 29.138L48.4859 29.225C48.5246 29.2443 48.5439 29.2733 48.5439 29.312C48.5439 29.3507 48.5246 29.3797 48.4859 29.399C48.3892 29.4957 48.2829 29.544 48.1669 29.544C48.1282 29.544 48.0799 29.5537 48.0219 29.573C47.9832 29.573 47.9446 29.573 47.9059 29.573C47.8672 29.6117 47.8286 29.6793 47.7899 29.776C47.7706 29.8147 47.7512 29.863 47.7319 29.921C47.7319 29.979 47.7126 30.0273 47.6739 30.066C47.5966 30.24 47.4322 30.327 47.1809 30.327H46.9779C46.9392 30.3463 46.9006 30.4043 46.8619 30.501C46.7652 30.8103 46.6686 31.1197 46.5719 31.429C46.4752 31.719 46.3979 32.0283 46.3399 32.357C46.3206 32.4923 46.2916 32.6277 46.2529 32.763C46.2142 32.879 46.1756 33.0143 46.1369 33.169C46.0596 33.517 45.9726 33.865 45.8759 34.213C45.7986 34.561 45.7309 34.909 45.6729 35.257C45.6536 35.3537 45.6342 35.46 45.6149 35.576C45.5956 35.692 45.5666 35.7983 45.5279 35.895C45.4892 36.0883 45.4602 36.2913 45.4409 36.504C45.4409 36.6973 45.4216 36.8907 45.3829 37.084L45.2959 38.07C45.2766 38.1473 45.2669 38.2343 45.2669 38.331C45.2669 38.4083 45.2572 38.4857 45.2379 38.563C45.2186 38.6403 45.1992 38.708 45.1799 38.766C45.1799 38.824 45.1799 38.8917 45.1799 38.969C45.1219 39.2203 45.0639 39.4813 45.0059 39.752C44.9672 40.0033 44.9189 40.2643 44.8609 40.535C44.8416 40.709 44.8029 40.883 44.7449 41.057C44.7062 41.2117 44.6676 41.3663 44.6289 41.521C44.6096 41.5983 44.5902 41.666 44.5709 41.724C44.5516 41.782 44.5226 41.84 44.4839 41.898C44.4066 42.072 44.3582 42.2267 44.3389 42.362C44.3002 42.4007 44.2809 42.4393 44.2809 42.478C44.2809 42.7293 44.2422 42.9323 44.1649 43.087C44.1456 43.145 44.1359 43.2223 44.1359 43.319C44.1359 43.377 44.1166 43.4253 44.0779 43.464C44.0392 43.522 44.0199 43.58 44.0199 43.638C44.0199 43.6767 44.0006 43.696 43.9619 43.696C43.9039 43.7153 43.8556 43.754 43.8169 43.812C43.7976 43.87 43.7686 43.9183 43.7299 43.957C43.6719 44.0343 43.6139 44.102 43.5559 44.16C43.5172 44.218 43.4496 44.2663 43.3529 44.305C43.3142 44.3437 43.2852 44.3823 43.2659 44.421C43.2466 44.537 43.2176 44.653 43.1789 44.769C43.1402 44.9043 43.1209 45.0397 43.1209 45.175C43.1209 45.233 43.1112 45.291 43.0919 45.349C43.0919 45.407 43.0919 45.465 43.0919 45.523C43.1112 45.639 43.1016 45.755 43.0629 45.871C43.0436 45.987 43.0146 46.0933 42.9759 46.19C42.9566 46.2673 42.8889 46.335 42.7729 46.393C42.6762 46.4703 42.5699 46.4993 42.4539 46.48ZM63.1943 45.117C63.0203 45.117 62.8657 45.0493 62.7303 44.914C62.6917 44.856 62.653 44.798 62.6143 44.74C62.5757 44.682 62.537 44.624 62.4983 44.566C62.3243 44.16 62.2373 43.7347 62.2373 43.29L62.1503 42.594C62.0923 42.3233 62.044 42.0527 62.0053 41.782C61.9667 41.5113 61.899 41.2503 61.8023 40.999L61.6283 40.506C61.6283 40.4673 61.6187 40.4287 61.5993 40.39C61.5993 40.3513 61.5897 40.3127 61.5703 40.274L61.1353 38.737C61.116 38.6983 61.0967 38.65 61.0773 38.592C61.0773 38.534 61.058 38.4857 61.0193 38.447C60.9613 38.331 60.913 38.215 60.8743 38.099C60.855 37.9637 60.826 37.8283 60.7873 37.693C60.768 37.5963 60.7487 37.5093 60.7293 37.432C60.71 37.3353 60.681 37.2387 60.6423 37.142C60.6037 37.026 60.565 36.9583 60.5263 36.939C60.4877 36.9003 60.4007 36.9003 60.2653 36.939C60.1687 36.9583 60.0623 36.9777 59.9463 36.997C59.8497 36.997 59.753 37.0163 59.6563 37.055C59.579 37.0743 59.4823 37.0937 59.3663 37.113C59.2697 37.113 59.173 37.1227 59.0763 37.142L58.6703 37.229C58.5737 37.2483 58.4673 37.2773 58.3513 37.316C58.2547 37.3353 58.158 37.345 58.0613 37.345L57.5393 37.432C57.3847 37.4707 57.2203 37.5093 57.0463 37.548C56.8723 37.5867 56.708 37.6253 56.5533 37.664C56.0893 37.78 55.6253 37.867 55.1613 37.925C55.0067 37.9637 54.9197 38.0313 54.9003 38.128C54.881 38.128 54.8713 38.1377 54.8713 38.157C54.7553 38.4663 54.62 38.7757 54.4653 39.085C54.33 39.375 54.185 39.6747 54.0303 39.984C53.9917 40.0613 53.953 40.1387 53.9143 40.216C53.895 40.274 53.866 40.3417 53.8273 40.419C53.808 40.4577 53.7887 40.506 53.7693 40.564C53.75 40.6027 53.7307 40.6413 53.7113 40.68C53.5953 40.8153 53.5373 40.9797 53.5373 41.173C53.518 41.289 53.4793 41.405 53.4213 41.521C53.3633 41.6177 53.3053 41.7143 53.2473 41.811C53.228 41.869 53.1893 41.898 53.1313 41.898C53.054 41.9173 52.9767 41.9463 52.8993 41.985C52.822 42.0237 52.735 42.0623 52.6383 42.101C52.5803 42.1203 52.5223 42.1203 52.4643 42.101C52.4257 42.0817 52.3773 42.0623 52.3193 42.043C52.2807 42.0043 52.242 41.985 52.2033 41.985C51.9907 41.9657 51.836 41.84 51.7393 41.608C51.5847 41.2987 51.4783 40.9893 51.4203 40.68C51.401 40.6027 51.401 40.535 51.4203 40.477C51.459 40.419 51.488 40.361 51.5073 40.303C51.6233 40.2257 51.691 40.1387 51.7103 40.042V40.013C51.7103 39.7617 51.7587 39.5297 51.8553 39.317C51.9713 39.085 52.068 38.8627 52.1453 38.65C52.184 38.534 52.2323 38.418 52.2903 38.302C52.3483 38.186 52.4063 38.07 52.4643 37.954C52.5417 37.8187 52.5997 37.693 52.6383 37.577C52.6963 37.4417 52.7447 37.3063 52.7833 37.171C52.8413 37.0163 52.8413 36.8713 52.7833 36.736C52.7447 36.62 52.7253 36.5137 52.7253 36.417C52.7253 36.301 52.735 36.185 52.7543 36.069C52.7543 35.8563 52.8317 35.6727 52.9863 35.518C53.0637 35.4213 53.141 35.344 53.2183 35.286C53.315 35.2087 53.402 35.1313 53.4793 35.054C53.6533 34.88 53.7887 34.648 53.8853 34.358C53.9627 34.1067 54.0207 33.8553 54.0593 33.604C54.1173 33.3333 54.1753 33.0723 54.2333 32.821C54.272 32.5697 54.3107 32.328 54.3493 32.096C54.4073 31.8447 54.4653 31.603 54.5233 31.371C54.5427 31.2743 54.562 31.1873 54.5813 31.11C54.62 31.0133 54.649 30.9263 54.6683 30.849C54.7263 30.6943 54.7843 30.5493 54.8423 30.414C54.9003 30.2593 54.939 30.1047 54.9583 29.95C54.997 29.8727 54.997 29.805 54.9583 29.747C54.939 29.6503 54.939 29.5633 54.9583 29.486C54.997 29.4087 55.026 29.3313 55.0453 29.254C55.1033 29.1187 55.142 28.9833 55.1613 28.848C55.2 28.7127 55.2483 28.5773 55.3063 28.442C55.403 28.1907 55.4803 27.9877 55.5383 27.833C55.6157 27.659 55.6833 27.4657 55.7413 27.253C55.78 27.137 55.8187 27.0307 55.8573 26.934C55.9153 26.818 55.954 26.702 55.9733 26.586C56.0313 26.412 56.0797 26.238 56.1183 26.064C56.157 25.8707 56.1763 25.687 56.1763 25.513C56.215 25.3583 56.2537 25.252 56.2923 25.194C56.389 25.0007 56.505 24.8363 56.6403 24.701C56.795 24.5657 56.94 24.4303 57.0753 24.295C57.172 24.237 57.2687 24.1983 57.3653 24.179C57.462 24.1403 57.5587 24.15 57.6553 24.208C57.7327 24.2467 57.781 24.266 57.8003 24.266C57.9743 24.2467 58.1193 24.2853 58.2353 24.382C58.3513 24.4787 58.448 24.5947 58.5253 24.73C58.564 24.7687 58.593 24.817 58.6123 24.875C58.6317 24.933 58.651 24.9813 58.6703 25.02C58.767 25.1747 58.8153 25.3293 58.8153 25.484C58.8153 25.5613 58.825 25.6483 58.8443 25.745C58.8637 25.8223 58.883 25.9093 58.9023 26.006C58.9603 26.122 59.0473 26.18 59.1633 26.18C59.1827 26.1607 59.202 26.1607 59.2213 26.18C59.2407 26.1993 59.2503 26.2187 59.2503 26.238C59.347 26.354 59.376 26.4797 59.3373 26.615C59.2987 26.7697 59.289 26.9243 59.3083 27.079C59.347 27.2143 59.3857 27.3593 59.4243 27.514C59.5017 27.7073 59.579 27.9007 59.6563 28.094C59.7337 28.2873 59.811 28.4807 59.8883 28.674C59.985 28.8867 60.0817 29.0993 60.1783 29.312C60.275 29.5247 60.362 29.7373 60.4393 29.95C60.536 30.2207 60.6327 30.4913 60.7293 30.762C60.8453 31.0327 60.971 31.3033 61.1063 31.574L61.1933 31.893C61.2127 31.9703 61.232 32.0477 61.2513 32.125C61.29 32.2023 61.319 32.2797 61.3383 32.357C61.377 32.415 61.406 32.473 61.4253 32.531C61.464 32.589 61.5027 32.6373 61.5413 32.676C61.638 32.8113 61.696 32.9563 61.7153 33.111C61.7733 33.3043 61.8603 33.4783 61.9763 33.633C62.015 33.691 62.073 33.72 62.1503 33.72C62.4403 33.6813 62.7303 33.6523 63.0203 33.633C63.3103 33.5943 63.6003 33.5363 63.8903 33.459C64.103 33.401 64.306 33.372 64.4993 33.372C64.8667 33.372 65.205 33.4977 65.5143 33.749C65.8817 34.039 66.075 34.4063 66.0943 34.851C66.0943 34.9477 66.104 35.025 66.1233 35.083C66.1233 35.2183 66.0847 35.3247 66.0073 35.402C65.988 35.46 65.9493 35.518 65.8913 35.576C65.8527 35.634 65.814 35.692 65.7753 35.75C65.7367 35.8273 65.698 35.8853 65.6593 35.924L65.4853 36.069C65.466 36.1077 65.437 36.156 65.3983 36.214C65.3597 36.2527 65.3113 36.2817 65.2533 36.301C65.176 36.3203 65.0987 36.3493 65.0213 36.388C64.944 36.4073 64.857 36.417 64.7603 36.417C64.4123 36.4557 64.103 36.446 63.8323 36.388H63.3683C63.3297 36.388 63.2717 36.4073 63.1943 36.446C63.117 36.4847 63.0783 36.533 63.0783 36.591V36.707C63.1363 36.881 63.175 37.0647 63.1943 37.258C63.233 37.432 63.291 37.5963 63.3683 37.751C63.3683 37.8283 63.3877 37.9057 63.4263 37.983C63.523 38.157 63.6003 38.3407 63.6583 38.534C63.7163 38.708 63.7647 38.8917 63.8033 39.085C63.8033 39.1237 63.8227 39.201 63.8613 39.317C63.9193 39.4523 63.9677 39.5973 64.0063 39.752C64.045 39.8873 64.074 40.0323 64.0933 40.187C64.0933 40.303 64.1223 40.4093 64.1803 40.506C64.2577 40.68 64.3157 40.854 64.3543 41.028C64.393 41.202 64.422 41.3857 64.4413 41.579C64.4607 41.5983 64.4703 41.637 64.4703 41.695C64.4703 41.7337 64.48 41.7723 64.4993 41.811C64.596 42.0237 64.6637 42.2557 64.7023 42.507C64.741 42.739 64.7893 42.971 64.8473 43.203C64.886 43.319 64.9053 43.435 64.9053 43.551C64.9247 43.6863 64.9343 43.8217 64.9343 43.957C64.9343 44.0537 64.9053 44.16 64.8473 44.276C64.7893 44.334 64.7603 44.363 64.7603 44.363C64.6443 44.3823 64.5767 44.45 64.5573 44.566L64.4703 44.74C64.4317 44.8173 64.3737 44.8657 64.2963 44.885C64.219 44.885 64.1513 44.914 64.0933 44.972C64.016 45.0493 63.9097 45.088 63.7743 45.088C63.697 45.088 63.6003 45.088 63.4843 45.088C63.3877 45.088 63.291 45.0977 63.1943 45.117ZM56.2053 34.59C56.3213 34.5707 56.4373 34.5513 56.5533 34.532C56.6887 34.5127 56.8337 34.4933 56.9883 34.474C57.085 34.4547 57.2107 34.4353 57.3653 34.416C57.52 34.3967 57.665 34.3773 57.8003 34.358C57.9357 34.3193 58.071 34.3 58.2063 34.3C58.3417 34.2807 58.477 34.2613 58.6123 34.242C58.7283 34.2033 58.8443 34.184 58.9603 34.184C59.0763 34.1647 59.1923 34.1453 59.3083 34.126C59.4823 34.0873 59.55 33.9907 59.5113 33.836C59.492 33.6813 59.4533 33.5267 59.3953 33.372C59.3567 33.198 59.2697 33.053 59.1343 32.937C59.0957 32.8983 59.0763 32.8403 59.0763 32.763V32.676C59.0377 32.5213 58.9893 32.3763 58.9313 32.241C58.8927 32.0863 58.8443 31.9413 58.7863 31.806C58.7477 31.6513 58.6993 31.516 58.6413 31.4C58.6027 31.2647 58.5543 31.1293 58.4963 30.994L58.1483 29.95C58.0903 29.8147 58.0323 29.6793 57.9743 29.544C57.9357 29.4087 57.897 29.2733 57.8583 29.138L57.7713 29.022H57.6843L57.6263 29.109C57.5297 29.399 57.4137 29.689 57.2783 29.979C57.1623 30.269 57.056 30.5783 56.9593 30.907C56.9593 30.9457 56.9497 30.994 56.9303 31.052C56.911 31.11 56.8917 31.168 56.8723 31.226C56.795 31.4193 56.7177 31.632 56.6403 31.864C56.5823 32.096 56.534 32.328 56.4953 32.56C56.476 32.6953 56.4567 32.8307 56.4373 32.966C56.418 33.082 56.389 33.2077 56.3503 33.343L56.0893 34.474C56.07 34.4933 56.0797 34.5223 56.1183 34.561C56.157 34.5803 56.186 34.59 56.2053 34.59ZM74.2118 43.29C74.1925 43.2707 74.1635 43.261 74.1248 43.261C73.9315 43.145 73.7382 43.0387 73.5448 42.942C73.3708 42.826 73.2065 42.7003 73.0518 42.565C72.9745 42.5263 72.9262 42.4877 72.9068 42.449C72.7328 42.3523 72.5782 42.2363 72.4428 42.101C72.3075 41.9463 72.1818 41.782 72.0658 41.608C72.0272 41.5693 71.9885 41.521 71.9498 41.463C71.9112 41.405 71.8628 41.347 71.8048 41.289C71.6115 41.0957 71.4568 40.8637 71.3408 40.593C71.3215 40.535 71.2925 40.477 71.2538 40.419C71.2152 40.361 71.1765 40.303 71.1378 40.245C71.0218 40.0903 70.9348 39.9453 70.8768 39.81C70.8382 39.6553 70.7802 39.5103 70.7028 39.375C70.6255 39.2203 70.5482 39.0753 70.4708 38.94C70.4515 38.8627 70.4225 38.7853 70.3838 38.708C70.3452 38.6307 70.3162 38.5533 70.2968 38.476C70.2968 38.3793 70.2678 38.273 70.2098 38.157C70.1325 37.9443 70.0552 37.7317 69.9778 37.519C69.9198 37.287 69.8618 37.055 69.8038 36.823C69.7652 36.7457 69.7458 36.6877 69.7458 36.649C69.6298 36.3977 69.5428 36.1367 69.4848 35.866C69.4268 35.5953 69.3688 35.3343 69.3108 35.083L69.1368 33.778C69.1175 33.7393 69.1078 33.691 69.1078 33.633C69.1078 33.575 69.1078 33.5267 69.1078 33.488C69.1078 33.372 69.1078 33.2657 69.1078 33.169C69.1078 33.053 69.0885 32.937 69.0498 32.821C69.0112 32.5697 69.0208 32.3377 69.0788 32.125C69.0788 32.0477 69.0788 31.98 69.0788 31.922C69.0982 31.8447 69.1078 31.7673 69.1078 31.69C69.1078 31.5933 69.1078 31.4967 69.1078 31.4C69.1272 31.284 69.1465 31.1873 69.1658 31.11C69.1852 31.052 69.1948 30.9747 69.1948 30.878C69.2335 30.704 69.2528 30.5397 69.2528 30.385C69.2722 30.211 69.2915 30.0467 69.3108 29.892C69.3688 29.6213 69.3978 29.3603 69.3978 29.109C69.3978 29.0317 69.3978 28.964 69.3978 28.906C69.4172 28.8287 69.4365 28.7513 69.4558 28.674C69.4558 28.5 69.4462 28.3743 69.4268 28.297C69.3688 28.2197 69.3592 28.1133 69.3978 27.978C69.4365 27.9007 69.4558 27.8427 69.4558 27.804C69.4752 27.7653 69.4848 27.7267 69.4848 27.688C69.4848 27.63 69.5138 27.5913 69.5718 27.572H69.7748C69.8522 27.572 69.9005 27.543 69.9198 27.485C69.9392 27.4077 70.0068 27.3497 70.1228 27.311C70.2195 27.2723 70.3065 27.2433 70.3838 27.224C70.4612 27.1853 70.5385 27.137 70.6158 27.079C70.6738 27.0403 70.7415 27.021 70.8188 27.021C70.8962 27.021 70.9735 27.0307 71.0508 27.05L71.5728 27.224C71.5922 27.2433 71.6018 27.253 71.6018 27.253C71.6212 27.253 71.6405 27.2627 71.6598 27.282C71.8145 27.4367 71.9402 27.6107 72.0368 27.804C72.1528 27.9973 72.2205 28.21 72.2398 28.442C72.2398 28.5193 72.2398 28.5967 72.2398 28.674C72.2398 28.732 72.2205 28.7997 72.1818 28.877C72.1625 28.993 72.1432 29.109 72.1238 29.225C72.1045 29.341 72.0852 29.4667 72.0658 29.602C72.0272 29.7953 71.9982 29.9887 71.9788 30.182C71.9788 30.356 71.9788 30.5397 71.9788 30.733C71.9595 30.8103 71.9498 30.8877 71.9498 30.965C71.9498 31.023 71.9402 31.0907 71.9208 31.168C71.9015 31.4 71.8918 31.632 71.8918 31.864C71.8918 32.096 71.9112 32.3183 71.9498 32.531C71.9498 32.5503 71.9498 32.5793 71.9498 32.618C71.9692 32.6567 71.9692 32.6953 71.9498 32.734C71.9498 32.9273 71.9692 33.1303 72.0078 33.343C72.0465 33.5557 72.0755 33.7683 72.0948 33.981C72.1142 34.1743 72.1335 34.358 72.1528 34.532C72.1722 34.706 72.2012 34.88 72.2398 35.054C72.2785 35.1313 72.2978 35.2087 72.2978 35.286C72.3172 35.3633 72.3365 35.4407 72.3558 35.518C72.4332 35.8853 72.5202 36.243 72.6168 36.591C72.7135 36.939 72.8392 37.287 72.9938 37.635C73.0905 37.8477 73.1872 38.0313 73.2838 38.186C73.4385 38.4567 73.5738 38.7273 73.6898 38.998C73.7672 39.1333 73.8445 39.2687 73.9218 39.404C73.9992 39.52 74.0765 39.6457 74.1538 39.781C74.2312 39.8777 74.3085 39.9647 74.3858 40.042C74.4632 40.1193 74.5405 40.2063 74.6178 40.303C74.7145 40.3997 74.8402 40.4287 74.9948 40.39C75.0915 40.3513 75.1592 40.3127 75.1978 40.274C75.2945 40.216 75.3815 40.158 75.4588 40.1C75.5555 40.042 75.6425 39.9743 75.7198 39.897C75.9325 39.6843 76.1258 39.4717 76.2998 39.259C76.4932 39.0463 76.6575 38.8143 76.7928 38.563C76.9088 38.3503 77.0248 38.128 77.1408 37.896C77.2568 37.664 77.3632 37.432 77.4598 37.2C77.5758 36.9293 77.6822 36.6587 77.7788 36.388C77.8948 36.1173 78.0012 35.837 78.0978 35.547C78.1752 35.3537 78.2332 35.1603 78.2718 34.967C78.3298 34.7543 78.3685 34.5513 78.3878 34.358C78.4265 34.1453 78.4555 33.9327 78.4748 33.72C78.5135 33.488 78.5232 33.2657 78.5038 33.053C78.5038 32.995 78.5038 32.937 78.5038 32.879C78.5232 32.821 78.5328 32.763 78.5328 32.705C78.5715 32.5697 78.5812 32.444 78.5618 32.328C78.5618 32.212 78.5522 32.096 78.5328 31.98C78.5135 31.6513 78.4845 31.342 78.4458 31.052C78.4265 30.7427 78.4072 30.4333 78.3878 30.124C78.3878 29.9693 78.3782 29.863 78.3588 29.805C78.3395 29.631 78.3202 29.457 78.3008 29.283C78.3008 29.109 78.2815 28.935 78.2428 28.761V28.529C78.2428 28.3357 78.2332 28.152 78.2138 27.978C78.2138 27.7847 78.2138 27.5913 78.2138 27.398C78.2138 27.2433 78.2042 27.108 78.1848 26.992C78.1848 26.8567 78.1848 26.7213 78.1848 26.586C78.1848 26.412 78.2138 26.267 78.2718 26.151C78.3298 26.0543 78.3492 25.977 78.3298 25.919C78.2718 25.803 78.3008 25.716 78.4168 25.658C78.5135 25.5613 78.6102 25.484 78.7068 25.426C78.8228 25.368 78.9485 25.3293 79.0838 25.31C79.1225 25.2907 79.1515 25.281 79.1708 25.281C79.2095 25.281 79.2385 25.2713 79.2578 25.252C79.3738 25.1553 79.5285 25.1263 79.7218 25.165C79.7605 25.1843 79.8185 25.194 79.8958 25.194C80.0698 25.2327 80.1955 25.3003 80.2728 25.397C80.3308 25.455 80.4178 25.5227 80.5338 25.6C80.6885 25.6773 80.7948 25.774 80.8528 25.89C80.9108 26.006 80.9495 26.1317 80.9688 26.267C81.0075 26.4603 81.0365 26.644 81.0558 26.818C81.0945 26.992 81.1042 27.1757 81.0848 27.369V27.63C81.0848 27.8233 81.0848 28.0167 81.0848 28.21C81.1042 28.384 81.1235 28.5677 81.1428 28.761C81.1622 28.819 81.1718 28.8867 81.1718 28.964C81.1718 29.022 81.1718 29.08 81.1718 29.138C81.1718 29.254 81.1718 29.37 81.1718 29.486C81.1912 29.5827 81.2105 29.689 81.2298 29.805C81.2492 29.8437 81.2588 29.9017 81.2588 29.979C81.2395 30.1723 81.2395 30.3657 81.2588 30.559C81.2975 30.733 81.3265 30.9167 81.3458 31.11C81.3652 31.3033 81.3748 31.5063 81.3748 31.719C81.3942 31.9317 81.4038 32.1443 81.4038 32.357C81.4232 32.3763 81.4232 32.4053 81.4038 32.444C81.4038 32.4827 81.4038 32.5213 81.4038 32.56C81.3458 32.734 81.3362 32.937 81.3748 33.169C81.4135 33.4203 81.4038 33.662 81.3458 33.894C81.3265 34.068 81.3072 34.242 81.2878 34.416C81.2685 34.59 81.2395 34.7737 81.2008 34.967C81.1622 35.2763 81.0945 35.5857 80.9978 35.895C80.9012 36.2043 80.8045 36.5137 80.7078 36.823C80.7078 36.8617 80.6788 36.9293 80.6208 37.026C80.5435 37.1613 80.4758 37.3063 80.4178 37.461C80.3598 37.5963 80.3115 37.7413 80.2728 37.896L80.1858 38.099C80.0892 38.2923 80.0022 38.4857 79.9248 38.679C79.8668 38.853 79.7895 39.0367 79.6928 39.23C79.6348 39.346 79.5768 39.462 79.5188 39.578C79.4608 39.694 79.3932 39.8003 79.3158 39.897C79.2965 39.9357 79.2675 39.9743 79.2288 40.013C79.1902 40.1483 79.1322 40.274 79.0548 40.39C78.9775 40.506 78.9002 40.622 78.8228 40.738C78.6102 41.0667 78.3588 41.376 78.0688 41.666C77.7982 41.956 77.4985 42.2267 77.1698 42.478L76.8218 42.681C76.5512 42.8163 76.2612 42.9323 75.9518 43.029C75.6618 43.1257 75.3622 43.1933 75.0528 43.232C74.9562 43.2513 74.8498 43.2513 74.7338 43.232C74.6758 43.232 74.6178 43.232 74.5598 43.232C74.5018 43.232 74.4438 43.2513 74.3858 43.29H74.2118ZM87.466 43.087C87.3113 43.145 87.1373 43.1257 86.944 43.029L86.364 42.768C86.2673 42.7293 86.19 42.6423 86.132 42.507L86.045 42.333C86.0063 42.2363 85.958 42.1687 85.9 42.13C85.8033 42.0527 85.7356 41.9173 85.697 41.724C85.6583 41.5307 85.6293 41.3373 85.61 41.144C85.5906 40.9507 85.5713 40.7573 85.552 40.564C85.5326 40.4093 85.523 40.2547 85.523 40.1C85.523 39.9453 85.523 39.8003 85.523 39.665L85.552 39.462C85.5906 39.3653 85.61 39.2687 85.61 39.172C85.61 39.0753 85.61 38.9883 85.61 38.911V33.633C85.6486 33.3623 85.668 33.0917 85.668 32.821C85.668 32.531 85.668 32.2507 85.668 31.98C85.6873 31.7093 85.697 31.4483 85.697 31.197C85.697 30.9263 85.6776 30.6653 85.639 30.414C85.6196 30.3173 85.61 30.211 85.61 30.095C85.61 29.979 85.61 29.863 85.61 29.747C85.61 29.573 85.61 29.399 85.61 29.225C85.61 29.051 85.5906 28.877 85.552 28.703V28.616C85.552 28.3453 85.5326 28.0843 85.494 27.833C85.4746 27.5623 85.4553 27.3013 85.436 27.05C85.4166 26.8953 85.3973 26.7503 85.378 26.615C85.3586 26.4797 85.3296 26.3443 85.291 26.209C85.2716 26.1317 85.262 26.0543 85.262 25.977C85.262 25.8997 85.262 25.8223 85.262 25.745C85.262 25.6097 85.2813 25.484 85.32 25.368C85.3586 25.2327 85.3973 25.107 85.436 24.991C85.4553 24.9523 85.5036 24.8943 85.581 24.817C85.6196 24.7783 85.6583 24.7493 85.697 24.73C85.7356 24.7107 85.7646 24.6913 85.784 24.672C85.9 24.5173 86.0546 24.4497 86.248 24.469C86.2866 24.4883 86.3446 24.4787 86.422 24.44C86.5186 24.3627 86.6056 24.353 86.683 24.411C86.741 24.4497 86.8376 24.4497 86.973 24.411C87.031 24.411 87.0793 24.4303 87.118 24.469C87.176 24.5463 87.2533 24.6043 87.35 24.643C87.4466 24.6817 87.5143 24.7397 87.553 24.817C87.611 24.875 87.669 24.933 87.727 24.991C87.7656 25.049 87.8043 25.107 87.843 25.165C87.901 25.2037 87.93 25.2617 87.93 25.339C87.9493 25.4163 87.9493 25.4937 87.93 25.571C87.93 25.629 87.93 25.6967 87.93 25.774C87.93 25.948 87.9396 26.1317 87.959 26.325C87.9976 26.499 88.0266 26.673 88.046 26.847C88.0846 27.0403 88.1136 27.2433 88.133 27.456C88.1523 27.6493 88.1716 27.8523 88.191 28.065V28.355C88.2296 28.4903 88.249 28.6257 88.249 28.761C88.249 28.8963 88.2586 29.0317 88.278 29.167V29.196C88.2973 29.428 88.3166 29.66 88.336 29.892C88.3553 30.124 88.3746 30.356 88.394 30.588C88.4133 30.6847 88.423 30.791 88.423 30.907C88.423 31.0037 88.423 31.1003 88.423 31.197V38.911C88.423 39.085 88.4326 39.259 88.452 39.433C88.4906 39.607 88.5196 39.7713 88.539 39.926C88.539 40.0227 88.597 40.071 88.713 40.071C88.887 40.1097 89.0513 40.1097 89.206 40.071C89.4186 40.0323 89.6216 40.013 89.815 40.013C90.0276 40.013 90.2403 40.013 90.453 40.013C90.6656 40.013 90.8686 40.013 91.062 40.013C91.2746 39.9937 91.4776 39.9743 91.671 39.955H91.99C92.1446 39.9743 92.28 39.9937 92.396 40.013C92.5313 40.013 92.6666 40.013 92.802 40.013C93.0146 40.013 93.2273 40.0227 93.44 40.042C93.672 40.042 93.8943 40.0517 94.107 40.071C94.2616 40.0903 94.4163 40.1 94.571 40.1C94.745 40.1 94.919 40.1 95.093 40.1H95.238C95.6246 40.0807 95.9726 40.1773 96.282 40.39C96.4173 40.448 96.514 40.5447 96.572 40.68C96.6106 40.7573 96.6396 40.8347 96.659 40.912C96.6976 40.97 96.7266 41.0473 96.746 41.144C96.7653 41.2213 96.775 41.2987 96.775 41.376C96.7943 41.434 96.8136 41.5017 96.833 41.579C96.891 41.753 96.8716 41.9463 96.775 42.159C96.7556 42.217 96.7363 42.275 96.717 42.333C96.6976 42.391 96.6686 42.449 96.63 42.507C96.5913 42.565 96.543 42.6133 96.485 42.652C96.485 42.652 96.4463 42.6713 96.369 42.71C96.2143 42.8453 96.0403 42.9323 95.847 42.971C95.673 43.0097 95.4796 43.0483 95.267 43.087L94.977 43.058C94.687 42.9613 94.397 42.9033 94.107 42.884C94.0296 42.8647 93.9426 42.855 93.846 42.855C93.7493 42.8357 93.6526 42.826 93.556 42.826C93.4206 42.826 93.2853 42.826 93.15 42.826C93.0146 42.8067 92.8696 42.7873 92.715 42.768L92.425 42.739C92.251 42.7583 92.077 42.768 91.903 42.768C91.729 42.7487 91.555 42.7487 91.381 42.768C91.3036 42.768 91.2263 42.768 91.149 42.768C91.0716 42.7487 90.9943 42.739 90.917 42.739C90.7623 42.739 90.6076 42.739 90.453 42.739C90.3176 42.739 90.1726 42.7583 90.018 42.797C89.9406 42.8163 89.844 42.8357 89.728 42.855C89.6313 42.855 89.5346 42.855 89.438 42.855C89.148 42.8743 88.858 42.9033 88.568 42.942C88.278 42.9613 87.9976 43 87.727 43.058C87.669 43.0773 87.582 43.087 87.466 43.087ZM104.081 42.971C104.043 42.9517 103.985 42.942 103.907 42.942C103.869 42.942 103.83 42.913 103.791 42.855C103.753 42.797 103.714 42.7487 103.675 42.71C103.637 42.652 103.598 42.5843 103.559 42.507C103.501 42.4297 103.453 42.4297 103.414 42.507H103.356C103.356 42.4877 103.347 42.478 103.327 42.478C103.327 42.4587 103.327 42.449 103.327 42.449C103.269 42.1783 103.182 41.927 103.066 41.695C103.008 41.5403 102.95 41.3857 102.892 41.231C102.854 41.057 102.825 40.883 102.805 40.709L102.631 39.433L102.544 38.389V38.331C102.506 38.099 102.486 37.867 102.486 37.635C102.486 37.3837 102.486 37.1323 102.486 36.881C102.467 36.7457 102.457 36.62 102.457 36.504C102.457 36.3687 102.448 36.2333 102.428 36.098C102.409 35.9433 102.39 35.7887 102.37 35.634C102.37 35.4793 102.37 35.3343 102.37 35.199L102.399 32.908V29.805C102.361 29.689 102.303 29.631 102.225 29.631C102.187 29.631 102.138 29.6407 102.08 29.66C102.042 29.66 102.003 29.66 101.964 29.66L100.659 30.008C100.485 30.066 100.311 30.124 100.137 30.182C99.9634 30.2207 99.7894 30.269 99.6154 30.327C99.4801 30.3463 99.3447 30.3657 99.2094 30.385C99.0934 30.385 98.9677 30.385 98.8324 30.385C98.7357 30.385 98.6294 30.3463 98.5134 30.269C98.3781 30.211 98.2621 30.1337 98.1654 30.037C98.0687 29.9403 97.9721 29.834 97.8754 29.718L97.8174 29.631C97.7787 29.4957 97.7401 29.37 97.7014 29.254C97.6821 29.1187 97.6821 28.9833 97.7014 28.848C97.7207 28.674 97.7594 28.5097 97.8174 28.355C97.8947 28.2003 98.0011 28.065 98.1364 27.949C98.1944 27.9103 98.2427 27.862 98.2814 27.804C98.3394 27.746 98.3974 27.688 98.4554 27.63C98.5327 27.5913 98.5811 27.572 98.6004 27.572C98.7164 27.572 98.8227 27.5527 98.9194 27.514C99.0161 27.456 99.1127 27.4173 99.2094 27.398C99.3061 27.3787 99.4027 27.3593 99.4994 27.34C99.5961 27.3207 99.6927 27.3013 99.7894 27.282C100.06 27.2047 100.331 27.137 100.601 27.079C100.872 27.0017 101.143 26.9437 101.413 26.905L102.979 26.644C103.018 26.6247 103.047 26.615 103.066 26.615C103.105 26.615 103.134 26.6053 103.153 26.586C103.269 26.5473 103.385 26.5183 103.501 26.499C103.617 26.4797 103.733 26.4893 103.849 26.528C103.888 26.5473 103.917 26.557 103.936 26.557C103.975 26.5377 104.004 26.528 104.023 26.528C104.352 26.4893 104.681 26.4507 105.009 26.412C105.338 26.3733 105.657 26.325 105.966 26.267C106.218 26.2283 106.469 26.1897 106.72 26.151C106.972 26.1123 107.223 26.0833 107.474 26.064C107.668 26.0253 107.861 25.9963 108.054 25.977C108.248 25.9577 108.441 25.9383 108.634 25.919C108.789 25.8997 108.944 25.8803 109.098 25.861C109.272 25.8417 109.437 25.8223 109.591 25.803C109.746 25.7837 109.891 25.7837 110.026 25.803C110.181 25.803 110.336 25.803 110.49 25.803C110.587 25.803 110.674 25.832 110.751 25.89C110.848 25.948 110.935 25.9963 111.012 26.035C111.09 26.093 111.196 26.1897 111.331 26.325C111.37 26.3637 111.409 26.4507 111.447 26.586C111.467 26.644 111.486 26.7117 111.505 26.789C111.525 26.847 111.544 26.9147 111.563 26.992C111.602 27.166 111.583 27.3303 111.505 27.485L111.331 27.891C111.312 27.949 111.283 28.007 111.244 28.065C111.225 28.1037 111.196 28.1423 111.157 28.181C111.119 28.2197 111.099 28.239 111.099 28.239C111.022 28.297 110.935 28.355 110.838 28.413C110.761 28.471 110.664 28.5097 110.548 28.529L109.301 28.616C109.185 28.616 109.069 28.6257 108.953 28.645C108.837 28.645 108.712 28.6547 108.576 28.674H108.431C108.122 28.6933 107.822 28.7223 107.532 28.761C107.242 28.7997 106.952 28.8383 106.662 28.877L105.502 29.051C105.444 29.051 105.406 29.0607 105.386 29.08C105.309 29.08 105.251 29.138 105.212 29.254V29.341C105.212 29.5343 105.212 29.7277 105.212 29.921C105.212 30.095 105.222 30.2787 105.241 30.472C105.299 30.7427 105.299 31.0133 105.241 31.284C105.222 31.342 105.203 31.4 105.183 31.458C105.183 31.4967 105.183 31.5353 105.183 31.574C105.203 31.806 105.183 32.0573 105.125 32.328C105.125 32.386 105.125 32.444 105.125 32.502C105.125 32.56 105.135 32.618 105.154 32.676C105.174 32.7533 105.183 32.8403 105.183 32.937C105.183 33.0337 105.183 33.1303 105.183 33.227V34.735C105.183 34.8123 105.174 34.909 105.154 35.025C105.154 35.1217 105.154 35.2183 105.154 35.315C105.154 35.3923 105.154 35.4793 105.154 35.576C105.174 35.6727 105.183 35.7693 105.183 35.866C105.183 36.0013 105.183 36.1367 105.183 36.272C105.203 36.4073 105.203 36.5523 105.183 36.707V37.606C105.183 37.6253 105.174 37.6447 105.154 37.664C105.154 37.6833 105.164 37.7123 105.183 37.751C105.203 37.925 105.212 38.1087 105.212 38.302C105.212 38.476 105.232 38.65 105.27 38.824C105.27 38.882 105.27 38.94 105.27 38.998C105.29 39.056 105.29 39.114 105.27 39.172C105.27 39.346 105.29 39.5297 105.328 39.723C105.367 39.897 105.396 40.071 105.415 40.245C105.454 40.4577 105.493 40.6703 105.531 40.883C105.589 41.0957 105.638 41.3083 105.676 41.521L105.763 41.927C105.763 41.985 105.734 42.0333 105.676 42.072C105.676 42.072 105.667 42.072 105.647 42.072C105.647 42.072 105.638 42.0817 105.618 42.101C105.522 42.1397 105.483 42.1977 105.502 42.275V42.42C105.502 42.42 105.493 42.4297 105.473 42.449C105.473 42.4683 105.464 42.478 105.444 42.478C105.348 42.478 105.27 42.5167 105.212 42.594C105.154 42.6713 105.087 42.739 105.009 42.797C104.951 42.8357 104.874 42.8743 104.777 42.913C104.526 43.0097 104.294 43.029 104.081 42.971Z" fill="#FAFAFF"/>
</svg>
