<svg width="28" height="28" viewBox="0 0 28 28" fill="none" xmlns="http://www.w3.org/2000/svg">
<path d="M17.1042 25.5283L11.9687 20.0387L13.6604 18.2304L17.1042 21.9116L23.9312 14.6137L25.6229 16.422L17.1042 25.5283ZM23.75 12.7085H21.3333V6.25016H18.9167V10.1252H6.83333V6.25016H4.41667V24.3335H11.6667V26.9168H4.41667C3.75208 26.9168 3.18336 26.6641 2.7105 26.1586C2.23764 25.6532 2.00081 25.0448 2 24.3335V6.25016C2 5.53975 2.23683 4.9318 2.7105 4.42633C3.18417 3.92086 3.75289 3.66769 4.41667 3.66683H9.46146C9.68299 2.91336 10.116 2.29465 10.7604 1.8107C11.4049 1.32676 12.1097 1.08436 12.875 1.0835C13.6806 1.0835 14.4007 1.3259 15.0355 1.8107C15.6703 2.29551 16.098 2.91422 16.3187 3.66683H21.3333C21.9979 3.66683 22.567 3.92 23.0407 4.42633C23.5144 4.93266 23.7508 5.54061 23.75 6.25016V12.7085ZM12.875 6.25016C13.2174 6.25016 13.5045 6.12616 13.7365 5.87816C13.9685 5.63016 14.0841 5.32361 14.0833 4.9585C14.0833 4.59252 13.9673 4.28597 13.7353 4.03883C13.5033 3.79169 13.2166 3.66769 12.875 3.66683C12.5326 3.66683 12.2459 3.79083 12.0147 4.03883C11.7835 4.28683 11.6675 4.59339 11.6667 4.9585C11.6667 5.32447 11.7827 5.63145 12.0147 5.87945C12.2467 6.12745 12.5334 6.25102 12.875 6.25016Z" fill="#171740"/>
</svg>
