<?xml version="1.0" standalone="no"?>
<!DOCTYPE svg PUBLIC "-//W3C//DTD SVG 20010904//EN"
 "http://www.w3.org/TR/2001/REC-SVG-20010904/DTD/svg10.dtd">
<svg version="1.0" xmlns="http://www.w3.org/2000/svg"
 width="115.000000pt" height="46.000000pt" viewBox="0 0 115.000000 46.000000"
 preserveAspectRatio="xMidYMid meet">

<g transform="translate(0.000000,46.000000) scale(0.100000,-0.100000)"
fill="#ffffff" stroke="none">
<path d="M885 379 c9 -28 -11 -40 -42 -26 -20 9 -27 7 -45 -11 -21 -21 -21
-22 -3 -42 22 -24 35 -25 61 -5 18 14 16 14 -16 9 -25 -5 -32 -4 -25 4 6 6 26
13 45 14 30 3 35 0 38 -20 2 -12 8 -20 13 -17 5 4 6 17 3 31 -8 33 18 32 40
-1 9 -14 23 -25 31 -25 9 0 15 -10 15 -24 0 -51 18 -34 22 20 3 64 -3 76 -21
36 -12 -26 -13 -26 -27 -7 -8 10 -14 25 -14 32 0 9 -8 11 -24 7 -19 -4 -25 -1
-30 20 -3 14 -11 26 -17 26 -6 0 -8 -9 -4 -21z m-48 -45 c-3 -3 -12 -4 -19 -1
-8 3 -5 6 6 6 11 1 17 -2 13 -5z"/>
<path d="M545 352 c-11 -45 -22 -48 -43 -13 -17 31 -32 40 -32 20 0 -18 41
-69 55 -69 20 0 37 36 32 68 -4 27 -4 27 -12 -6z"/>
<path d="M100 356 c-6 -8 -26 -16 -43 -18 l-32 -3 0 -110 0 -110 49 -3 c36 -2
47 0 44 10 -3 7 -21 14 -42 16 l-37 3 3 86 c2 58 7 88 16 91 7 2 12 -5 12 -17
0 -19 6 -21 60 -21 53 0 60 2 60 20 0 33 18 23 22 -12 2 -17 9 -33 16 -36 10
-3 12 7 10 39 -3 42 -5 44 -37 47 -19 2 -40 10 -48 18 -18 18 -37 18 -53 0z
m40 -26 c0 -5 -4 -10 -10 -10 -5 0 -10 5 -10 10 0 6 5 10 10 10 6 0 10 -4 10
-10z"/>
<path d="M612 363 c-7 -3 -19 -18 -28 -34 -13 -26 -13 -30 1 -35 8 -4 23 0 32
7 13 11 17 11 20 2 5 -15 33 -17 33 -3 0 6 -5 10 -11 10 -7 0 -9 9 -5 24 4 17
1 26 -10 30 -9 3 -16 6 -17 5 -1 0 -8 -3 -15 -6z m16 -33 c-7 -11 -18 -20 -25
-20 -17 0 -16 5 3 24 22 23 37 20 22 -4z"/>
<path d="M705 360 c-3 -5 -11 -7 -17 -4 -8 5 -9 -3 -5 -26 4 -18 7 -36 7 -41
0 -5 5 -9 10 -9 6 0 10 15 10 34 0 57 32 54 43 -4 3 -14 4 -8 4 15 -2 33 -6
41 -24 43 -11 2 -24 -2 -28 -8z"/>
<path d="M486 195 c-9 -35 -16 -73 -16 -85 0 -37 -16 -21 -47 50 -30 66 -53
90 -53 54 0 -9 21 -59 47 -110 51 -103 56 -104 73 -12 6 29 17 67 24 83 23 49
24 85 2 85 -8 0 -20 -24 -30 -65z"/>
<path d="M203 195 c-26 -32 -28 -33 -45 -18 -31 27 -43 1 -13 -27 l25 -24 40
39 c38 37 51 65 30 65 -5 0 -22 -16 -37 -35z"/>
<path d="M596 219 c-2 -8 -14 -47 -27 -86 -12 -40 -19 -76 -14 -80 4 -5 10 -2
12 5 8 22 34 42 53 42 14 0 22 -11 30 -40 15 -54 34 -53 25 1 -5 29 -3 44 5
49 16 10 4 31 -14 24 -12 -5 -36 34 -36 60 0 8 -7 19 -15 26 -12 10 -16 10
-19 -1z m27 -69 c3 -13 0 -20 -9 -20 -8 0 -14 9 -14 20 0 11 4 20 9 20 5 0 11
-9 14 -20z"/>
<path d="M878 223 c-2 -4 -2 -47 0 -95 l3 -88 56 0 c65 0 70 22 7 30 l-39 5
-3 70 c-3 63 -14 100 -24 78z"/>
<path d="M816 208 c-3 -7 -6 -37 -9 -66 -8 -95 -47 -96 -57 -1 -7 66 -25 63
-25 -5 1 -94 61 -128 97 -56 19 38 24 125 8 135 -6 3 -12 0 -14 -7z"/>
<path d="M1055 205 c-5 -2 -22 -6 -37 -9 -35 -8 -37 -26 -3 -26 23 0 25 -3 25
-49 0 -54 7 -81 21 -81 5 0 9 31 9 69 0 68 1 70 27 73 40 5 42 28 1 27 -18 0
-37 -2 -43 -4z"/>
</g>
</svg>
