<svg width="58" height="57" viewBox="0 0 58 57" fill="none" xmlns="http://www.w3.org/2000/svg">
<circle cx="28.994" cy="28.745" r="28.245" fill="#333A56"/>
<path fill-rule="evenodd" clip-rule="evenodd" d="M29 21.25C29.4142 21.25 29.75 21.5858 29.75 22V28.25H36C36.4142 28.25 36.75 28.5858 36.75 29C36.75 29.4142 36.4142 29.75 36 29.75H29.75V36C29.75 36.4142 29.4142 36.75 29 36.75C28.5858 36.75 28.25 36.4142 28.25 36V29.75H22C21.5858 29.75 21.25 29.4142 21.25 29C21.25 28.5858 21.5858 28.25 22 28.25H28.25V22C28.25 21.5858 28.5858 21.25 29 21.25Z" fill="white"/>
</svg>
