<svg width="228" height="227" viewBox="0 0 228 227" fill="none" xmlns="http://www.w3.org/2000/svg">
<g id="User / UserCircle">
<path id="Vector" d="M114 198.625C161.013 198.625 199.125 160.513 199.125 113.5C199.125 66.4868 161.013 28.375 114 28.375C66.9868 28.375 28.875 66.4868 28.875 113.5C28.875 160.513 66.9868 198.625 114 198.625Z" stroke="white" stroke-width="2" stroke-linecap="round" stroke-linejoin="round"/>
<path id="Vector_2" d="M163.339 182.851C151.216 169.312 133.602 160.792 113.998 160.792C94.3945 160.792 76.7806 169.312 64.6577 182.851" stroke="white" stroke-width="2" stroke-linecap="round" stroke-linejoin="round"/>
<path id="Vector_3" d="M114 132.417C129.671 132.417 142.375 119.713 142.375 104.042C142.375 88.3706 129.671 75.6667 114 75.6667C98.3289 75.6667 85.625 88.3706 85.625 104.042C85.625 119.713 98.3289 132.417 114 132.417Z" stroke="white" stroke-width="2" stroke-linecap="round" stroke-linejoin="round"/>
</g>
</svg>
