<svg width="1232" height="934" viewBox="0 0 1232 934" fill="none" xmlns="http://www.w3.org/2000/svg">
<g filter="url(#filter0_d_2385_3360)">
<rect width="1200" height="902" transform="translate(16 12)" fill="#F7F5E6"/>
<path d="M498.16 553.4L497.32 552.92C497.08 552.68 496.96 552.56 496.96 552.56C496.88 552.24 496.76 551.92 496.6 551.6C496.44 551.36 496.4 551.08 496.48 550.76C496.48 550.28 496.44 549.8 496.36 549.32C496.28 548.92 496.16 548.56 496 548.24L495.76 547.28C495.68 546.48 495.36 545.68 494.8 544.88C494.24 544 493.8 543.12 493.48 542.24C493.16 541.36 492.92 540.44 492.76 539.48C492.6 538.52 492.32 537.64 491.92 536.84C491.52 535.96 491.12 535.04 490.72 534.08L490 532.52C489.76 531.96 489.44 531.6 489.04 531.44C488.8 531.36 488.52 531.08 488.2 530.6C488.04 530.52 487.88 530.32 487.72 530C487.48 529.44 487.2 528.92 486.88 528.44C486.64 527.88 486.36 527.32 486.04 526.76C485.72 526.28 485.4 525.84 485.08 525.44C484.84 524.96 484.6 524.48 484.36 524C484.28 523.76 484.16 523.52 484 523.28C483.84 523.04 483.68 522.8 483.52 522.56C483.36 522.24 483.16 521.92 482.92 521.6C482.76 521.2 482.6 520.84 482.44 520.52L481.72 519.08C481.48 518.68 481.24 518.32 481 518C480.84 517.6 480.68 517.24 480.52 516.92C480.2 516.04 479.8 515.24 479.32 514.52C478.84 513.8 478.36 513.04 477.88 512.24C477.72 511.92 477.56 511.68 477.4 511.52C477.32 511.28 477.2 511.04 477.04 510.8C476.88 510.56 476.72 510.32 476.56 510.08C476.24 509.52 475.92 508.96 475.6 508.4C475.36 507.84 475.16 507.28 475 506.72C474.92 506.4 474.84 506.12 474.76 505.88C474.68 505.64 474.56 505.4 474.4 505.16C474.24 504.76 474.08 504.4 473.92 504.08C473.76 503.68 473.6 503.28 473.44 502.88C473.44 502.8 473.4 502.72 473.32 502.64C473 502 472.72 501.36 472.48 500.72C472.24 500.08 472 499.48 471.76 498.92C471.44 498.12 471.08 497.36 470.68 496.64C470.28 495.92 469.88 495.2 469.48 494.48L469.12 493.64C468.32 491.32 467.24 489 465.88 486.68C465.8 486.6 465.76 486.52 465.76 486.44C465.76 486.36 465.72 486.28 465.64 486.2C465.56 485.64 465.32 485.12 464.92 484.64C464.84 484.64 464.8 484.6 464.8 484.52C464.8 484.44 464.76 484.36 464.68 484.28C464.52 483.88 464.32 483.48 464.08 483.08C463.92 482.6 463.72 482.16 463.48 481.76C463.48 481.6 463.44 481.48 463.36 481.4C463.28 481.24 463.2 481.12 463.12 481.04C462.8 480.64 462.52 480.24 462.28 479.84C462.12 479.44 461.96 479 461.8 478.52C461.64 478.12 461.48 477.76 461.32 477.44C461.16 477.04 461 476.68 460.84 476.36L460.6 476C460.28 475.44 460 474.92 459.76 474.44C459.52 473.88 459.24 473.32 458.92 472.76C458.84 472.44 458.64 471.8 458.32 470.84C458 469.88 457.8 469.24 457.72 468.92C457.64 468.76 457.6 468.52 457.6 468.2C457.6 467.72 457.56 467.24 457.48 466.76C457.48 466.28 457.52 465.8 457.6 465.32C457.76 463.16 458.56 461.44 460 460.16C460.8 459.52 461.6 459.08 462.4 458.84C462.56 458.76 462.72 458.72 462.88 458.72C463.04 458.72 463.16 458.68 463.24 458.6C463.8 458.44 464.32 458.4 464.8 458.48C465.28 458.56 465.76 458.68 466.24 458.84L468.16 459.92C469.04 460.32 469.6 460.92 469.84 461.72C470 462.12 470.16 462.52 470.32 462.92C470.56 463.24 470.8 463.56 471.04 463.88C471.6 464.6 472.04 465.36 472.36 466.16C472.76 466.88 473.12 467.64 473.44 468.44C473.68 469 473.88 469.56 474.04 470.12C474.28 470.68 474.52 471.2 474.76 471.68L476.56 476C476.88 476.72 477.2 477.44 477.52 478.16C477.84 478.88 478.16 479.6 478.48 480.32L478.84 481.28C479.16 482.08 479.48 482.92 479.8 483.8C480.2 484.6 480.52 485.44 480.76 486.32C480.92 486.8 481.12 487.28 481.36 487.76C481.6 488.16 481.84 488.6 482.08 489.08C482.24 489.4 482.4 489.76 482.56 490.16C482.72 490.56 482.88 490.96 483.04 491.36C483.12 491.44 483.16 491.56 483.16 491.72C483.16 491.88 483.2 492 483.28 492.08C483.6 492.56 483.84 493.04 484 493.52C484.16 494 484.32 494.48 484.48 494.96C485.28 496.8 486.08 498.64 486.88 500.48C487.76 502.32 488.64 504.16 489.52 506C489.68 506.48 489.88 506.96 490.12 507.44C490.36 507.92 490.56 508.4 490.72 508.88L491.8 510.92C491.96 511.32 492.12 511.76 492.28 512.24C492.44 512.64 492.64 513.04 492.88 513.44C493.12 513.84 493.32 514.28 493.48 514.76C493.64 515.16 493.8 515.56 493.96 515.96L495.28 518.48C495.44 518.8 495.6 519.12 495.76 519.44C496 519.76 496.16 520 496.24 520.16C496.32 520.32 496.4 520.52 496.48 520.76C496.56 520.92 496.64 521.08 496.72 521.24C496.88 521.32 497.08 521.6 497.32 522.08C497.56 522.48 497.64 522.68 497.56 522.68C497.96 522.84 498.2 522.76 498.28 522.44C498.36 522.12 498.44 521.8 498.52 521.48C498.68 521.08 498.8 520.72 498.88 520.4C499.04 519.76 499.16 519.12 499.24 518.48C499.32 517.84 499.4 517.2 499.48 516.56C499.64 515.68 499.76 514.84 499.84 514.04C500 513.16 500.16 512.32 500.32 511.52C500.32 511.36 500.32 511.16 500.32 510.92C500.32 510.68 500.36 510.48 500.44 510.32C500.68 507.84 501.04 505.48 501.52 503.24C501.52 503 501.56 502.84 501.64 502.76C501.72 501.4 501.88 500.12 502.12 498.92C502.44 497.64 502.72 496.36 502.96 495.08C503.12 493.96 503.32 492.84 503.56 491.72C503.8 490.6 504.04 489.48 504.28 488.36C504.6 487 504.92 485.64 505.24 484.28C505.56 482.84 505.88 481.44 506.2 480.08L507.28 475.52C507.44 474.88 507.6 474.28 507.76 473.72C507.92 473.16 508.08 472.6 508.24 472.04C508.4 471.32 508.56 470.64 508.72 470C508.96 469.28 509.12 468.6 509.2 467.96C509.36 467.4 509.52 466.88 509.68 466.4C509.84 465.84 510 465.28 510.16 464.72L511.24 461.72C511.32 461.4 511.4 461.08 511.48 460.76C511.56 460.36 511.6 460 511.6 459.68C511.52 459.04 511.56 458.44 511.72 457.88C511.88 457.32 512.04 456.76 512.2 456.2C512.6 455.08 513.08 454.2 513.64 453.56C513.88 453.32 514.08 453.08 514.24 452.84C514.4 452.52 514.56 452.2 514.72 451.88C514.88 451.64 514.96 451.24 514.96 450.68C514.96 450.2 514.76 449.92 514.36 449.84C514.12 449.68 514 449.52 514 449.36C514.08 449.2 514.12 449 514.12 448.76C514.28 448.28 514.48 448 514.72 447.92L516.64 447.08C516.8 447 516.96 446.96 517.12 446.96C517.28 446.96 517.4 446.92 517.48 446.84C517.72 446.84 517.92 446.92 518.08 447.08C518.32 447.32 518.64 447.48 519.04 447.56C519.44 447.64 519.88 447.72 520.36 447.8C520.84 447.88 521.32 447.96 521.8 448.04C522.04 448.12 522.28 448.2 522.52 448.28C522.76 448.28 523 448.36 523.24 448.52C523.64 448.84 524.04 449.2 524.44 449.6C524.92 449.92 525.32 450.32 525.64 450.8C526.2 451.6 526.68 452.52 527.08 453.56L527.44 454.88C527.84 455.52 528.12 456.32 528.28 457.28C528.68 459.28 528.52 461.12 527.8 462.8C527.72 463.04 527.6 463.32 527.44 463.64C527.36 463.88 527.24 464.12 527.08 464.36C526.68 465 526.32 465.68 526 466.4C525.76 467.12 525.56 467.84 525.4 468.56C525.32 469.28 525.16 470 524.92 470.72C524.68 471.36 524.4 472 524.08 472.64L523 475.52C522.92 475.68 522.84 475.88 522.76 476.12C522.68 476.28 522.6 476.44 522.52 476.6V476.84C522.44 476.92 522.36 477.08 522.28 477.32C522.2 477.48 522.16 477.64 522.16 477.8C522.08 478.36 521.92 478.88 521.68 479.36C521.44 479.84 521.36 480.4 521.44 481.04C521.44 481.2 521.56 481.36 521.8 481.52C521.96 481.52 522.12 481.56 522.28 481.64C522.44 481.64 522.6 481.64 522.76 481.64L523.12 482C523.28 482.08 523.36 482.2 523.36 482.36C523.36 482.52 523.28 482.64 523.12 482.72C522.72 483.12 522.28 483.32 521.8 483.32C521.64 483.32 521.44 483.36 521.2 483.44C521.04 483.44 520.88 483.44 520.72 483.44C520.56 483.6 520.4 483.88 520.24 484.28C520.16 484.44 520.08 484.64 520 484.88C520 485.12 519.92 485.32 519.76 485.48C519.44 486.2 518.76 486.56 517.72 486.56H516.88C516.72 486.64 516.56 486.88 516.4 487.28C516 488.56 515.6 489.84 515.2 491.12C514.8 492.32 514.48 493.6 514.24 494.96C514.16 495.52 514.04 496.08 513.88 496.64C513.72 497.12 513.56 497.68 513.4 498.32C513.08 499.76 512.72 501.2 512.32 502.64C512 504.08 511.72 505.52 511.48 506.96C511.4 507.36 511.32 507.8 511.24 508.28C511.16 508.76 511.04 509.2 510.88 509.6C510.72 510.4 510.6 511.24 510.52 512.12C510.52 512.92 510.44 513.72 510.28 514.52L509.92 518.6C509.84 518.92 509.8 519.28 509.8 519.68C509.8 520 509.76 520.32 509.68 520.64C509.6 520.96 509.52 521.24 509.44 521.48C509.44 521.72 509.44 522 509.44 522.32C509.2 523.36 508.96 524.44 508.72 525.56C508.56 526.6 508.36 527.68 508.12 528.8C508.04 529.52 507.88 530.24 507.64 530.96C507.48 531.6 507.32 532.24 507.16 532.88C507.08 533.2 507 533.48 506.92 533.72C506.84 533.96 506.72 534.2 506.56 534.44C506.24 535.16 506.04 535.8 505.96 536.36C505.8 536.52 505.72 536.68 505.72 536.84C505.72 537.88 505.56 538.72 505.24 539.36C505.16 539.6 505.12 539.92 505.12 540.32C505.12 540.56 505.04 540.76 504.88 540.92C504.72 541.16 504.64 541.4 504.64 541.64C504.64 541.8 504.56 541.88 504.4 541.88C504.16 541.96 503.96 542.12 503.8 542.36C503.72 542.6 503.6 542.8 503.44 542.96C503.2 543.28 502.96 543.56 502.72 543.8C502.56 544.04 502.28 544.24 501.88 544.4C501.72 544.56 501.6 544.72 501.52 544.88C501.44 545.36 501.32 545.84 501.16 546.32C501 546.88 500.92 547.44 500.92 548C500.92 548.24 500.88 548.48 500.8 548.72C500.8 548.96 500.8 549.2 500.8 549.44C500.88 549.92 500.84 550.4 500.68 550.88C500.6 551.36 500.48 551.8 500.32 552.2C500.24 552.52 499.96 552.8 499.48 553.04C499.08 553.36 498.64 553.48 498.16 553.4ZM581.583 547.76C580.863 547.76 580.223 547.48 579.663 546.92C579.503 546.68 579.343 546.44 579.183 546.2C579.023 545.96 578.863 545.72 578.703 545.48C577.983 543.8 577.623 542.04 577.623 540.2L577.263 537.32C577.023 536.2 576.823 535.08 576.663 533.96C576.503 532.84 576.223 531.76 575.823 530.72L575.103 528.68C575.103 528.52 575.063 528.36 574.983 528.2C574.983 528.04 574.943 527.88 574.863 527.72L573.063 521.36C572.983 521.2 572.903 521 572.823 520.76C572.823 520.52 572.743 520.32 572.583 520.16C572.343 519.68 572.143 519.2 571.983 518.72C571.903 518.16 571.783 517.6 571.623 517.04C571.543 516.64 571.463 516.28 571.383 515.96C571.303 515.56 571.183 515.16 571.023 514.76C570.863 514.28 570.703 514 570.543 513.92C570.383 513.76 570.023 513.76 569.463 513.92C569.063 514 568.623 514.08 568.143 514.16C567.743 514.16 567.343 514.24 566.943 514.4C566.623 514.48 566.223 514.56 565.743 514.64C565.343 514.64 564.943 514.68 564.543 514.76L562.863 515.12C562.463 515.2 562.023 515.32 561.543 515.48C561.143 515.56 560.743 515.6 560.343 515.6L558.183 515.96C557.543 516.12 556.863 516.28 556.143 516.44C555.423 516.6 554.743 516.76 554.103 516.92C552.183 517.4 550.263 517.76 548.343 518C547.703 518.16 547.343 518.44 547.263 518.84C547.183 518.84 547.143 518.88 547.143 518.96C546.663 520.24 546.103 521.52 545.463 522.8C544.903 524 544.303 525.24 543.663 526.52C543.503 526.84 543.343 527.16 543.183 527.48C543.103 527.72 542.983 528 542.823 528.32C542.743 528.48 542.663 528.68 542.583 528.92C542.503 529.08 542.423 529.24 542.343 529.4C541.863 529.96 541.623 530.64 541.623 531.44C541.543 531.92 541.383 532.4 541.143 532.88C540.903 533.28 540.663 533.68 540.423 534.08C540.343 534.32 540.183 534.44 539.943 534.44C539.623 534.52 539.303 534.64 538.983 534.8C538.663 534.96 538.303 535.12 537.903 535.28C537.663 535.36 537.423 535.36 537.183 535.28C537.023 535.2 536.823 535.12 536.583 535.04C536.423 534.88 536.263 534.8 536.103 534.8C535.223 534.72 534.583 534.2 534.183 533.24C533.543 531.96 533.103 530.68 532.863 529.4C532.783 529.08 532.783 528.8 532.863 528.56C533.023 528.32 533.143 528.08 533.223 527.84C533.703 527.52 533.983 527.16 534.063 526.76V526.64C534.063 525.6 534.263 524.64 534.663 523.76C535.143 522.8 535.543 521.88 535.863 521C536.023 520.52 536.223 520.04 536.463 519.56C536.703 519.08 536.943 518.6 537.183 518.12C537.503 517.56 537.743 517.04 537.903 516.56C538.143 516 538.343 515.44 538.503 514.88C538.743 514.24 538.743 513.64 538.503 513.08C538.343 512.6 538.263 512.16 538.263 511.76C538.263 511.28 538.303 510.8 538.383 510.32C538.383 509.44 538.703 508.68 539.343 508.04C539.663 507.64 539.983 507.32 540.303 507.08C540.703 506.76 541.063 506.44 541.383 506.12C542.103 505.4 542.663 504.44 543.062 503.24C543.383 502.2 543.623 501.16 543.783 500.12C544.023 499 544.263 497.92 544.503 496.88C544.663 495.84 544.823 494.84 544.983 493.88C545.223 492.84 545.463 491.84 545.702 490.88C545.783 490.48 545.863 490.12 545.943 489.8C546.103 489.4 546.223 489.04 546.303 488.72C546.543 488.08 546.783 487.48 547.023 486.92C547.263 486.28 547.423 485.64 547.503 485C547.663 484.68 547.663 484.4 547.503 484.16C547.423 483.76 547.423 483.4 547.503 483.08C547.663 482.76 547.783 482.44 547.863 482.12C548.103 481.56 548.263 481 548.343 480.44C548.503 479.88 548.703 479.32 548.943 478.76C549.343 477.72 549.663 476.88 549.903 476.24C550.223 475.52 550.503 474.72 550.743 473.84C550.903 473.36 551.063 472.92 551.223 472.52C551.463 472.04 551.623 471.56 551.703 471.08C551.943 470.36 552.143 469.64 552.303 468.92C552.463 468.12 552.543 467.36 552.543 466.64C552.703 466 552.863 465.56 553.023 465.32C553.423 464.52 553.903 463.84 554.463 463.28C555.103 462.72 555.703 462.16 556.263 461.6C556.663 461.36 557.063 461.2 557.463 461.12C557.863 460.96 558.263 461 558.663 461.24C558.983 461.4 559.183 461.48 559.263 461.48C559.983 461.4 560.583 461.56 561.063 461.96C561.543 462.36 561.943 462.84 562.263 463.4C562.423 463.56 562.543 463.76 562.623 464C562.703 464.24 562.783 464.44 562.863 464.6C563.263 465.24 563.463 465.88 563.463 466.52C563.463 466.84 563.503 467.2 563.583 467.6C563.663 467.92 563.743 468.28 563.823 468.68C564.063 469.16 564.423 469.4 564.903 469.4C564.983 469.32 565.063 469.32 565.143 469.4C565.223 469.48 565.263 469.56 565.263 469.64C565.663 470.12 565.783 470.64 565.623 471.2C565.463 471.84 565.423 472.48 565.503 473.12C565.663 473.68 565.823 474.28 565.983 474.92C566.303 475.72 566.623 476.52 566.943 477.32C567.263 478.12 567.583 478.92 567.903 479.72C568.303 480.6 568.703 481.48 569.103 482.36C569.503 483.24 569.863 484.12 570.183 485C570.583 486.12 570.983 487.24 571.383 488.36C571.863 489.48 572.383 490.6 572.943 491.72L573.303 493.04C573.383 493.36 573.463 493.68 573.543 494C573.703 494.32 573.823 494.64 573.903 494.96C574.063 495.2 574.183 495.44 574.263 495.68C574.423 495.92 574.583 496.12 574.743 496.28C575.143 496.84 575.383 497.44 575.463 498.08C575.703 498.88 576.063 499.6 576.543 500.24C576.703 500.48 576.943 500.6 577.263 500.6C578.463 500.44 579.663 500.32 580.863 500.24C582.063 500.08 583.263 499.84 584.463 499.52C585.343 499.28 586.183 499.16 586.983 499.16C588.503 499.16 589.903 499.68 591.183 500.72C592.703 501.92 593.503 503.44 593.583 505.28C593.583 505.68 593.623 506 593.703 506.24C593.703 506.8 593.543 507.24 593.223 507.56C593.143 507.8 592.983 508.04 592.743 508.28C592.583 508.52 592.423 508.76 592.263 509C592.103 509.32 591.943 509.56 591.783 509.72L591.063 510.32C590.983 510.48 590.863 510.68 590.703 510.92C590.543 511.08 590.343 511.2 590.103 511.28C589.783 511.36 589.463 511.48 589.143 511.64C588.822 511.72 588.462 511.76 588.062 511.76C586.623 511.92 585.343 511.88 584.223 511.64H582.303C582.143 511.64 581.903 511.72 581.583 511.88C581.263 512.04 581.103 512.24 581.103 512.48V512.96C581.343 513.68 581.503 514.44 581.583 515.24C581.743 515.96 581.983 516.64 582.303 517.28C582.303 517.6 582.383 517.92 582.543 518.24C582.943 518.96 583.263 519.72 583.503 520.52C583.743 521.24 583.943 522 584.103 522.8C584.103 522.96 584.183 523.28 584.343 523.76C584.583 524.32 584.783 524.92 584.943 525.56C585.103 526.12 585.223 526.72 585.303 527.36C585.303 527.84 585.423 528.28 585.663 528.68C585.983 529.4 586.223 530.12 586.383 530.84C586.543 531.56 586.663 532.32 586.743 533.12C586.823 533.2 586.863 533.36 586.863 533.6C586.863 533.76 586.903 533.92 586.983 534.08C587.383 534.96 587.663 535.92 587.823 536.96C587.983 537.92 588.183 538.88 588.423 539.84C588.583 540.32 588.662 540.8 588.662 541.28C588.743 541.84 588.783 542.4 588.783 542.96C588.783 543.36 588.663 543.8 588.423 544.28C588.183 544.52 588.062 544.64 588.062 544.64C587.583 544.72 587.303 545 587.223 545.48L586.863 546.2C586.703 546.52 586.463 546.72 586.143 546.8C585.823 546.8 585.543 546.92 585.303 547.16C584.983 547.48 584.543 547.64 583.983 547.64C583.663 547.64 583.263 547.64 582.783 547.64C582.383 547.64 581.983 547.68 581.583 547.76ZM552.663 504.2C553.143 504.12 553.623 504.04 554.103 503.96C554.663 503.88 555.263 503.8 555.903 503.72C556.303 503.64 556.823 503.56 557.463 503.48C558.103 503.4 558.703 503.32 559.263 503.24C559.823 503.08 560.383 503 560.943 503C561.503 502.92 562.063 502.84 562.623 502.76C563.103 502.6 563.583 502.52 564.063 502.52C564.543 502.44 565.023 502.36 565.503 502.28C566.223 502.12 566.503 501.72 566.343 501.08C566.263 500.44 566.103 499.8 565.863 499.16C565.703 498.44 565.343 497.84 564.783 497.36C564.623 497.2 564.543 496.96 564.543 496.64V496.28C564.383 495.64 564.183 495.04 563.943 494.48C563.783 493.84 563.583 493.24 563.342 492.68C563.183 492.04 562.983 491.48 562.743 491C562.583 490.44 562.383 489.88 562.143 489.32L560.703 485C560.463 484.44 560.223 483.88 559.983 483.32C559.822 482.76 559.663 482.2 559.503 481.64L559.143 481.16H558.783L558.543 481.52C558.143 482.72 557.663 483.92 557.103 485.12C556.623 486.32 556.183 487.6 555.783 488.96C555.783 489.12 555.743 489.32 555.663 489.56C555.583 489.8 555.503 490.04 555.423 490.28C555.103 491.08 554.783 491.96 554.463 492.92C554.223 493.88 554.023 494.84 553.863 495.8C553.783 496.36 553.703 496.92 553.623 497.48C553.543 497.96 553.423 498.48 553.263 499.04L552.183 503.72C552.103 503.8 552.143 503.92 552.303 504.08C552.463 504.16 552.583 504.2 552.663 504.2ZM624.772 540.2C624.692 540.12 624.572 540.08 624.412 540.08C623.612 539.6 622.812 539.16 622.012 538.76C621.292 538.28 620.612 537.76 619.972 537.2C619.652 537.04 619.452 536.88 619.372 536.72C618.652 536.32 618.012 535.84 617.452 535.28C616.892 534.64 616.372 533.96 615.892 533.24C615.732 533.08 615.572 532.88 615.412 532.64C615.252 532.4 615.052 532.16 614.812 531.92C614.012 531.12 613.372 530.16 612.892 529.04C612.812 528.8 612.692 528.56 612.532 528.32C612.372 528.08 612.212 527.84 612.052 527.6C611.572 526.96 611.212 526.36 610.972 525.8C610.812 525.16 610.572 524.56 610.252 524C609.932 523.36 609.612 522.76 609.292 522.2C609.212 521.88 609.092 521.56 608.932 521.24C608.772 520.92 608.652 520.6 608.572 520.28C608.572 519.88 608.452 519.44 608.212 518.96C607.892 518.08 607.572 517.2 607.252 516.32C607.012 515.36 606.772 514.4 606.532 513.44C606.372 513.12 606.292 512.88 606.292 512.72C605.812 511.68 605.452 510.6 605.212 509.48C604.972 508.36 604.732 507.28 604.492 506.24L603.772 500.84C603.692 500.68 603.652 500.48 603.652 500.24C603.652 500 603.652 499.8 603.652 499.64C603.652 499.16 603.652 498.72 603.652 498.32C603.652 497.84 603.572 497.36 603.412 496.88C603.252 495.84 603.292 494.88 603.532 494C603.532 493.68 603.532 493.4 603.532 493.16C603.612 492.84 603.652 492.52 603.652 492.2C603.652 491.8 603.652 491.4 603.652 491C603.732 490.52 603.812 490.12 603.892 489.8C603.972 489.56 604.012 489.24 604.012 488.84C604.172 488.12 604.252 487.44 604.252 486.8C604.332 486.08 604.412 485.4 604.492 484.76C604.732 483.64 604.852 482.56 604.852 481.52C604.852 481.2 604.852 480.92 604.852 480.68C604.932 480.36 605.012 480.04 605.092 479.72C605.092 479 605.052 478.48 604.972 478.16C604.732 477.84 604.692 477.4 604.852 476.84C605.012 476.52 605.092 476.28 605.092 476.12C605.172 475.96 605.212 475.8 605.212 475.64C605.212 475.4 605.332 475.24 605.572 475.16H606.412C606.732 475.16 606.932 475.04 607.012 474.8C607.092 474.48 607.372 474.24 607.852 474.08C608.252 473.92 608.612 473.8 608.932 473.72C609.252 473.56 609.572 473.36 609.892 473.12C610.132 472.96 610.412 472.88 610.732 472.88C611.052 472.88 611.372 472.92 611.692 473L613.852 473.72C613.932 473.8 613.972 473.84 613.972 473.84C614.052 473.84 614.132 473.88 614.212 473.96C614.852 474.6 615.372 475.32 615.772 476.12C616.252 476.92 616.532 477.8 616.612 478.76C616.612 479.08 616.612 479.4 616.612 479.72C616.612 479.96 616.532 480.24 616.372 480.56C616.292 481.04 616.212 481.52 616.132 482C616.052 482.48 615.972 483 615.892 483.56C615.732 484.36 615.612 485.16 615.532 485.96C615.532 486.68 615.532 487.44 615.532 488.24C615.452 488.56 615.412 488.88 615.412 489.2C615.412 489.44 615.372 489.72 615.292 490.04C615.212 491 615.172 491.96 615.172 492.92C615.172 493.88 615.252 494.8 615.412 495.68C615.412 495.76 615.412 495.88 615.412 496.04C615.492 496.2 615.492 496.36 615.412 496.52C615.412 497.32 615.492 498.16 615.652 499.04C615.812 499.92 615.932 500.8 616.012 501.68C616.092 502.48 616.172 503.24 616.252 503.96C616.332 504.68 616.452 505.4 616.612 506.12C616.772 506.44 616.852 506.76 616.852 507.08C616.932 507.4 617.012 507.72 617.092 508.04C617.412 509.56 617.772 511.04 618.172 512.48C618.572 513.92 619.092 515.36 619.732 516.8C620.132 517.68 620.532 518.44 620.932 519.08C621.572 520.2 622.132 521.32 622.612 522.44C622.932 523 623.252 523.56 623.572 524.12C623.892 524.6 624.212 525.12 624.532 525.68C624.852 526.08 625.172 526.44 625.492 526.76C625.812 527.08 626.132 527.44 626.452 527.84C626.852 528.24 627.372 528.36 628.012 528.2C628.412 528.04 628.692 527.88 628.852 527.72C629.252 527.48 629.612 527.24 629.932 527C630.332 526.76 630.692 526.48 631.012 526.16C631.892 525.28 632.692 524.4 633.412 523.52C634.212 522.64 634.892 521.68 635.452 520.64C635.932 519.76 636.412 518.84 636.892 517.88C637.372 516.92 637.812 515.96 638.212 515C638.692 513.88 639.132 512.76 639.532 511.64C640.012 510.52 640.452 509.36 640.852 508.16C641.172 507.36 641.412 506.56 641.572 505.76C641.812 504.88 641.972 504.04 642.052 503.24C642.212 502.36 642.332 501.48 642.412 500.6C642.572 499.64 642.612 498.72 642.532 497.84C642.532 497.6 642.532 497.36 642.532 497.12C642.612 496.88 642.652 496.64 642.652 496.4C642.812 495.84 642.852 495.32 642.772 494.84C642.772 494.36 642.732 493.88 642.652 493.4C642.572 492.04 642.452 490.76 642.292 489.56C642.212 488.28 642.132 487 642.052 485.72C642.052 485.08 642.012 484.64 641.932 484.4C641.852 483.68 641.772 482.96 641.692 482.24C641.692 481.52 641.612 480.8 641.452 480.08V479.12C641.452 478.32 641.412 477.56 641.332 476.84C641.332 476.04 641.332 475.24 641.332 474.44C641.332 473.8 641.292 473.24 641.212 472.76C641.212 472.2 641.212 471.64 641.212 471.08C641.212 470.36 641.332 469.76 641.572 469.28C641.812 468.88 641.892 468.56 641.812 468.32C641.572 467.84 641.692 467.48 642.172 467.24C642.572 466.84 642.972 466.52 643.372 466.28C643.852 466.04 644.372 465.88 644.932 465.8C645.092 465.72 645.212 465.68 645.292 465.68C645.452 465.68 645.572 465.64 645.652 465.56C646.132 465.16 646.772 465.04 647.572 465.2C647.732 465.28 647.972 465.32 648.292 465.32C649.012 465.48 649.532 465.76 649.852 466.16C650.092 466.4 650.452 466.68 650.932 467C651.572 467.32 652.012 467.72 652.252 468.2C652.492 468.68 652.652 469.2 652.732 469.76C652.892 470.56 653.012 471.32 653.092 472.04C653.252 472.76 653.292 473.52 653.212 474.32V475.4C653.212 476.2 653.212 477 653.212 477.8C653.292 478.52 653.372 479.28 653.452 480.08C653.532 480.32 653.572 480.6 653.572 480.92C653.572 481.16 653.572 481.4 653.572 481.64C653.572 482.12 653.572 482.6 653.572 483.08C653.652 483.48 653.732 483.92 653.812 484.4C653.892 484.56 653.932 484.8 653.932 485.12C653.852 485.92 653.852 486.72 653.932 487.52C654.092 488.24 654.212 489 654.292 489.8C654.372 490.6 654.412 491.44 654.412 492.32C654.492 493.2 654.532 494.08 654.532 494.96C654.612 495.04 654.612 495.16 654.532 495.32C654.532 495.48 654.532 495.64 654.532 495.8C654.292 496.52 654.252 497.36 654.412 498.32C654.572 499.36 654.532 500.36 654.292 501.32C654.212 502.04 654.132 502.76 654.052 503.48C653.972 504.2 653.852 504.96 653.692 505.76C653.532 507.04 653.252 508.32 652.852 509.6C652.452 510.88 652.052 512.16 651.652 513.44C651.652 513.6 651.532 513.88 651.292 514.28C650.972 514.84 650.692 515.44 650.452 516.08C650.212 516.64 650.012 517.24 649.852 517.88L649.492 518.72C649.092 519.52 648.732 520.32 648.412 521.12C648.172 521.84 647.852 522.6 647.452 523.4C647.212 523.88 646.972 524.36 646.732 524.84C646.492 525.32 646.212 525.76 645.892 526.16C645.812 526.32 645.692 526.48 645.532 526.64C645.372 527.2 645.132 527.72 644.812 528.2C644.492 528.68 644.172 529.16 643.852 529.64C642.972 531 641.932 532.28 640.732 533.48C639.612 534.68 638.372 535.8 637.012 536.84L635.572 537.68C634.452 538.24 633.252 538.72 631.972 539.12C630.772 539.52 629.532 539.8 628.252 539.96C627.852 540.04 627.412 540.04 626.932 539.96C626.692 539.96 626.452 539.96 626.212 539.96C625.972 539.96 625.732 540.04 625.492 540.2H624.772ZM677.217 539.36C676.577 539.6 675.857 539.52 675.057 539.12L672.657 538.04C672.257 537.88 671.937 537.52 671.697 536.96L671.337 536.24C671.177 535.84 670.977 535.56 670.737 535.4C670.337 535.08 670.057 534.52 669.897 533.72C669.737 532.92 669.617 532.12 669.537 531.32C669.457 530.52 669.377 529.72 669.297 528.92C669.217 528.28 669.177 527.64 669.177 527C669.177 526.36 669.177 525.76 669.177 525.2L669.297 524.36C669.457 523.96 669.537 523.56 669.537 523.16C669.537 522.76 669.537 522.4 669.537 522.08V500.24C669.697 499.12 669.777 498 669.777 496.88C669.777 495.68 669.777 494.52 669.777 493.4C669.857 492.28 669.897 491.2 669.897 490.16C669.897 489.04 669.817 487.96 669.657 486.92C669.577 486.52 669.537 486.08 669.537 485.6C669.537 485.12 669.537 484.64 669.537 484.16C669.537 483.44 669.537 482.72 669.537 482C669.537 481.28 669.457 480.56 669.297 479.84V479.48C669.297 478.36 669.217 477.28 669.057 476.24C668.977 475.12 668.897 474.04 668.817 473C668.737 472.36 668.657 471.76 668.577 471.2C668.497 470.64 668.377 470.08 668.217 469.52C668.137 469.2 668.097 468.88 668.097 468.56C668.097 468.24 668.097 467.92 668.097 467.6C668.097 467.04 668.177 466.52 668.337 466.04C668.497 465.48 668.657 464.96 668.817 464.48C668.897 464.32 669.097 464.08 669.417 463.76C669.577 463.6 669.737 463.48 669.897 463.4C670.057 463.32 670.177 463.24 670.257 463.16C670.737 462.52 671.377 462.24 672.177 462.32C672.337 462.4 672.577 462.36 672.897 462.2C673.297 461.88 673.657 461.84 673.977 462.08C674.217 462.24 674.617 462.24 675.177 462.08C675.417 462.08 675.617 462.16 675.777 462.32C676.017 462.64 676.337 462.88 676.737 463.04C677.137 463.2 677.417 463.44 677.577 463.76C677.817 464 678.057 464.24 678.297 464.48C678.457 464.72 678.617 464.96 678.777 465.2C679.017 465.36 679.137 465.6 679.137 465.92C679.217 466.24 679.217 466.56 679.137 466.88C679.137 467.12 679.137 467.4 679.137 467.72C679.137 468.44 679.177 469.2 679.257 470C679.417 470.72 679.537 471.44 679.617 472.16C679.777 472.96 679.897 473.8 679.977 474.68C680.057 475.48 680.137 476.32 680.217 477.2V478.4C680.377 478.96 680.457 479.52 680.457 480.08C680.457 480.64 680.497 481.2 680.577 481.76V481.88C680.657 482.84 680.737 483.8 680.817 484.76C680.897 485.72 680.977 486.68 681.057 487.64C681.137 488.04 681.177 488.48 681.177 488.96C681.177 489.36 681.177 489.76 681.177 490.16V522.08C681.177 522.8 681.217 523.52 681.297 524.24C681.457 524.96 681.577 525.64 681.657 526.28C681.657 526.68 681.897 526.88 682.377 526.88C683.097 527.04 683.777 527.04 684.417 526.88C685.297 526.72 686.137 526.64 686.937 526.64C687.817 526.64 688.697 526.64 689.577 526.64C690.457 526.64 691.297 526.64 692.097 526.64C692.977 526.56 693.817 526.48 694.617 526.4H695.937C696.577 526.48 697.137 526.56 697.617 526.64C698.177 526.64 698.737 526.64 699.297 526.64C700.177 526.64 701.057 526.68 701.937 526.76C702.897 526.76 703.817 526.8 704.697 526.88C705.337 526.96 705.977 527 706.617 527C707.337 527 708.057 527 708.777 527H709.377C710.977 526.92 712.417 527.32 713.697 528.2C714.257 528.44 714.657 528.84 714.897 529.4C715.057 529.72 715.177 530.04 715.257 530.36C715.417 530.6 715.537 530.92 715.617 531.32C715.697 531.64 715.737 531.96 715.737 532.28C715.817 532.52 715.897 532.8 715.977 533.12C716.217 533.84 716.137 534.64 715.737 535.52C715.657 535.76 715.577 536 715.497 536.24C715.417 536.48 715.297 536.72 715.137 536.96C714.977 537.2 714.777 537.4 714.537 537.56C714.537 537.56 714.377 537.64 714.057 537.8C713.417 538.36 712.697 538.72 711.897 538.88C711.177 539.04 710.377 539.2 709.497 539.36L708.297 539.24C707.097 538.84 705.897 538.6 704.697 538.52C704.377 538.44 704.017 538.4 703.617 538.4C703.217 538.32 702.817 538.28 702.417 538.28C701.857 538.28 701.297 538.28 700.737 538.28C700.177 538.2 699.577 538.12 698.937 538.04L697.737 537.92C697.017 538 696.297 538.04 695.577 538.04C694.857 537.96 694.137 537.96 693.417 538.04C693.097 538.04 692.777 538.04 692.457 538.04C692.137 537.96 691.817 537.92 691.497 537.92C690.857 537.92 690.217 537.92 689.577 537.92C689.017 537.92 688.417 538 687.777 538.16C687.457 538.24 687.057 538.32 686.577 538.4C686.177 538.4 685.777 538.4 685.377 538.4C684.177 538.48 682.977 538.6 681.777 538.76C680.577 538.84 679.417 539 678.297 539.24C678.057 539.32 677.697 539.36 677.217 539.36ZM743.57 538.88C743.41 538.8 743.17 538.76 742.85 538.76C742.69 538.76 742.53 538.64 742.37 538.4C742.21 538.16 742.05 537.96 741.89 537.8C741.73 537.56 741.57 537.28 741.41 536.96C741.17 536.64 740.97 536.64 740.81 536.96H740.57C740.57 536.88 740.53 536.84 740.45 536.84C740.45 536.76 740.45 536.72 740.45 536.72C740.21 535.6 739.85 534.56 739.37 533.6C739.13 532.96 738.89 532.32 738.65 531.68C738.49 530.96 738.37 530.24 738.29 529.52L737.57 524.24L737.21 519.92V519.68C737.05 518.72 736.97 517.76 736.97 516.8C736.97 515.76 736.97 514.72 736.97 513.68C736.89 513.12 736.85 512.6 736.85 512.12C736.85 511.56 736.81 511 736.73 510.44C736.65 509.8 736.57 509.16 736.49 508.52C736.49 507.88 736.49 507.28 736.49 506.72L736.61 497.24V484.4C736.45 483.92 736.21 483.68 735.89 483.68C735.73 483.68 735.53 483.72 735.29 483.8C735.13 483.8 734.97 483.8 734.81 483.8L729.41 485.24C728.69 485.48 727.97 485.72 727.25 485.96C726.53 486.12 725.81 486.32 725.09 486.56C724.53 486.64 723.97 486.72 723.41 486.8C722.93 486.8 722.41 486.8 721.85 486.8C721.45 486.8 721.01 486.64 720.53 486.32C719.97 486.08 719.49 485.76 719.09 485.36C718.69 484.96 718.29 484.52 717.89 484.04L717.65 483.68C717.49 483.12 717.33 482.6 717.17 482.12C717.09 481.56 717.09 481 717.17 480.44C717.25 479.72 717.41 479.04 717.65 478.4C717.97 477.76 718.41 477.2 718.97 476.72C719.21 476.56 719.41 476.36 719.57 476.12C719.81 475.88 720.05 475.64 720.29 475.4C720.61 475.24 720.81 475.16 720.89 475.16C721.37 475.16 721.81 475.08 722.21 474.92C722.61 474.68 723.01 474.52 723.41 474.44C723.81 474.36 724.21 474.28 724.61 474.2C725.01 474.12 725.41 474.04 725.81 473.96C726.93 473.64 728.05 473.36 729.17 473.12C730.29 472.8 731.41 472.56 732.53 472.4L739.01 471.32C739.17 471.24 739.29 471.2 739.37 471.2C739.53 471.2 739.65 471.16 739.73 471.08C740.21 470.92 740.69 470.8 741.17 470.72C741.65 470.64 742.13 470.68 742.61 470.84C742.77 470.92 742.89 470.96 742.97 470.96C743.13 470.88 743.25 470.84 743.33 470.84C744.69 470.68 746.05 470.52 747.41 470.36C748.77 470.2 750.09 470 751.37 469.76C752.41 469.6 753.45 469.44 754.49 469.28C755.53 469.12 756.57 469 757.61 468.92C758.41 468.76 759.21 468.64 760.01 468.56C760.81 468.48 761.61 468.4 762.41 468.32C763.05 468.24 763.69 468.16 764.33 468.08C765.05 468 765.73 467.92 766.37 467.84C767.01 467.76 767.61 467.76 768.17 467.84C768.81 467.84 769.45 467.84 770.09 467.84C770.49 467.84 770.85 467.96 771.17 468.2C771.57 468.44 771.93 468.64 772.25 468.8C772.57 469.04 773.01 469.44 773.57 470C773.73 470.16 773.89 470.52 774.05 471.08C774.13 471.32 774.21 471.6 774.29 471.92C774.37 472.16 774.45 472.44 774.53 472.76C774.69 473.48 774.61 474.16 774.29 474.8L773.57 476.48C773.49 476.72 773.37 476.96 773.21 477.2C773.13 477.36 773.01 477.52 772.85 477.68C772.69 477.84 772.61 477.92 772.61 477.92C772.29 478.16 771.93 478.4 771.53 478.64C771.21 478.88 770.81 479.04 770.33 479.12L765.17 479.48C764.69 479.48 764.21 479.52 763.73 479.6C763.25 479.6 762.73 479.64 762.17 479.72H761.57C760.29 479.8 759.05 479.92 757.85 480.08C756.65 480.24 755.45 480.4 754.25 480.56L749.45 481.28C749.21 481.28 749.05 481.32 748.97 481.4C748.65 481.4 748.41 481.64 748.25 482.12V482.48C748.25 483.28 748.25 484.08 748.25 484.88C748.25 485.6 748.29 486.36 748.37 487.16C748.61 488.28 748.61 489.4 748.37 490.52C748.29 490.76 748.21 491 748.13 491.24C748.13 491.4 748.13 491.56 748.13 491.72C748.21 492.68 748.13 493.72 747.89 494.84C747.89 495.08 747.89 495.32 747.89 495.56C747.89 495.8 747.93 496.04 748.01 496.28C748.09 496.6 748.13 496.96 748.13 497.36C748.13 497.76 748.13 498.16 748.13 498.56V504.8C748.13 505.12 748.09 505.52 748.01 506C748.01 506.4 748.01 506.8 748.01 507.2C748.01 507.52 748.01 507.88 748.01 508.28C748.09 508.68 748.13 509.08 748.13 509.48C748.13 510.04 748.13 510.6 748.13 511.16C748.21 511.72 748.21 512.32 748.13 512.96V516.68C748.13 516.76 748.09 516.84 748.01 516.92C748.01 517 748.05 517.12 748.13 517.28C748.21 518 748.25 518.76 748.25 519.56C748.25 520.28 748.33 521 748.49 521.72C748.49 521.96 748.49 522.2 748.49 522.44C748.57 522.68 748.57 522.92 748.49 523.16C748.49 523.88 748.57 524.64 748.73 525.44C748.89 526.16 749.01 526.88 749.09 527.6C749.25 528.48 749.41 529.36 749.57 530.24C749.81 531.12 750.01 532 750.17 532.88L750.53 534.56C750.53 534.8 750.41 535 750.17 535.16C750.17 535.16 750.13 535.16 750.05 535.16C750.05 535.16 750.01 535.2 749.93 535.28C749.53 535.44 749.37 535.68 749.45 536V536.6C749.45 536.6 749.41 536.64 749.33 536.72C749.33 536.8 749.29 536.84 749.21 536.84C748.81 536.84 748.49 537 748.25 537.32C748.01 537.64 747.73 537.92 747.41 538.16C747.17 538.32 746.85 538.48 746.45 538.64C745.41 539.04 744.45 539.12 743.57 538.88Z" fill="black"/>
<path d="M512.76 434.722C511.651 433.151 510.599 431.671 509.605 430.285C508.635 428.875 507.78 427.569 507.04 426.367C506.3 425.142 505.723 424.021 505.307 423.004C504.868 421.987 504.648 421.063 504.648 420.231C504.648 419.815 504.833 419.364 505.203 418.879C505.549 418.37 505.965 417.908 506.451 417.492C506.936 417.053 507.433 416.695 507.941 416.417C508.473 416.117 508.912 415.967 509.259 415.967C510.091 415.967 510.807 416.487 511.408 417.527C511.662 418.012 512.044 418.729 512.552 419.676C513.084 420.601 513.696 421.664 514.39 422.866C515.083 424.044 515.846 425.316 516.678 426.679C517.533 428.02 518.4 429.36 519.278 430.701C520.179 432.041 521.069 433.335 521.947 434.583C522.849 435.808 523.704 436.895 524.513 437.842C525.345 438.79 526.107 439.553 526.801 440.13C527.517 440.685 528.13 440.962 528.638 440.962C529.308 440.962 529.921 440.5 530.476 439.576C531.03 438.651 531.539 437.438 532.001 435.936C532.486 434.433 532.914 432.735 533.284 430.839C533.653 428.921 533.977 426.98 534.254 425.015C534.555 423.051 534.809 421.155 535.017 419.33C535.225 417.481 535.398 415.863 535.537 414.476C535.606 413.736 535.814 413.182 536.161 412.812C536.508 412.419 536.958 412.223 537.513 412.223C537.999 412.223 538.53 412.327 539.108 412.535C539.686 412.743 540.229 413.032 540.737 413.401C541.246 413.748 541.662 414.164 541.985 414.649C542.332 415.112 542.505 415.62 542.505 416.175C542.505 417.03 542.424 418.035 542.263 419.191C542.124 420.347 541.939 421.571 541.708 422.866C541.5 424.137 541.257 425.443 540.98 426.783C540.703 428.101 540.425 429.349 540.148 430.527C539.963 431.359 539.709 432.399 539.385 433.647C539.085 434.872 538.703 436.178 538.241 437.565C537.779 438.929 537.236 440.304 536.612 441.69C535.988 443.054 535.271 444.291 534.462 445.4C533.653 446.486 532.741 447.364 531.724 448.035C530.73 448.728 529.609 449.075 528.361 449.075C527.459 449.075 526.523 448.82 525.553 448.312C524.582 447.827 523.611 447.18 522.641 446.371C521.67 445.562 520.711 444.649 519.763 443.632C518.816 442.592 517.914 441.54 517.059 440.477C516.204 439.414 515.407 438.385 514.667 437.392C513.927 436.375 513.292 435.485 512.76 434.722ZM570.17 417.7C571.442 417.7 572.667 417.897 573.845 418.29C575.024 418.682 576.064 419.226 576.965 419.919C577.867 420.612 578.583 421.444 579.115 422.415C579.669 423.386 579.947 424.46 579.947 425.639C579.947 426.125 579.831 426.598 579.6 427.061C579.392 427.5 579.103 427.893 578.733 428.239C578.364 428.563 577.936 428.829 577.451 429.037C576.988 429.222 576.503 429.314 575.995 429.314C575.948 429.314 575.902 429.326 575.856 429.349C575.833 429.349 575.798 429.349 575.752 429.349C575.706 429.372 575.66 429.383 575.613 429.383L575.752 432.157C575.844 435.462 576.307 437.877 577.139 439.402C577.994 440.928 579.103 441.69 580.467 441.69C580.952 441.69 581.38 441.644 581.75 441.552C582.142 441.459 582.501 441.355 582.824 441.24C583.171 441.101 583.494 440.986 583.795 440.893C584.095 440.801 584.396 440.754 584.696 440.754C585.228 440.754 585.69 440.986 586.083 441.448C586.499 441.91 586.707 442.465 586.707 443.112C586.707 443.759 586.453 444.406 585.944 445.053C585.459 445.7 584.812 446.29 584.003 446.821C583.194 447.33 582.281 447.746 581.264 448.069C580.247 448.393 579.219 448.555 578.179 448.555C576.376 448.555 574.793 447.815 573.429 446.336C572.066 444.834 571.095 442.638 570.517 439.749C570.378 439.287 570.194 439.056 569.962 439.056C569.685 439.056 569.442 439.194 569.234 439.472C566.946 442.361 564.508 444.533 561.919 445.989C559.331 447.422 556.777 448.139 554.258 448.139C553.079 448.139 552.016 447.965 551.068 447.619C550.121 447.272 549.312 446.787 548.642 446.163C547.994 445.515 547.486 444.741 547.116 443.84C546.77 442.915 546.596 441.887 546.596 440.754C546.596 439.16 546.943 437.484 547.636 435.728C548.353 433.971 549.312 432.238 550.514 430.527C551.715 428.817 553.102 427.188 554.674 425.639C556.269 424.091 557.933 422.727 559.666 421.548C561.423 420.37 563.202 419.434 565.005 418.74C566.808 418.047 568.529 417.7 570.17 417.7ZM569.026 429.695C569.442 428.91 569.824 428.343 570.17 427.997C570.517 427.627 571.014 427.384 571.661 427.269C572.17 427.199 572.424 427.037 572.424 426.783C572.424 426.598 572.354 426.402 572.216 426.194C571.777 425.593 571.314 425.073 570.829 424.634C570.344 424.172 569.697 423.94 568.888 423.94C568.009 423.94 567.027 424.195 565.941 424.703C564.855 425.212 563.745 425.893 562.613 426.749C561.503 427.581 560.406 428.54 559.319 429.626C558.256 430.689 557.309 431.787 556.477 432.919C555.645 434.052 554.974 435.173 554.466 436.282C553.957 437.392 553.703 438.385 553.703 439.264C553.703 440.049 553.911 440.662 554.327 441.101C554.766 441.54 555.356 441.76 556.095 441.76C557.99 441.76 560.059 440.754 562.301 438.744C564.543 436.733 566.785 433.717 569.026 429.695ZM606.641 422.068C605.786 422.068 605.035 422.299 604.388 422.762C603.741 423.201 603.186 423.825 602.724 424.634C602.261 425.42 601.88 426.356 601.58 427.442C601.279 428.505 601.036 429.672 600.852 430.943C600.667 432.215 600.54 433.543 600.47 434.93C600.401 436.317 600.366 437.715 600.366 439.125C600.366 440.974 600.436 442.8 600.574 444.603C600.736 446.382 600.817 448.035 600.817 449.56C600.817 450.554 600.447 451.328 599.708 451.883C598.968 452.461 597.916 452.75 596.553 452.75C596.299 452.75 596.01 452.726 595.686 452.68C595.362 452.634 595.05 452.542 594.75 452.403C594.473 452.264 594.218 452.068 593.987 451.813C593.779 451.582 593.664 451.259 593.641 450.843C593.433 448.809 593.132 446.729 592.739 444.603C592.346 442.476 591.849 440.361 591.249 438.258C590.671 436.132 589.966 434.029 589.134 431.949C588.325 429.869 587.389 427.835 586.326 425.847C586.141 425.5 585.979 425.177 585.84 424.876C585.725 424.576 585.667 424.287 585.667 424.01C585.667 423.663 585.817 423.293 586.118 422.9C586.441 422.484 586.834 422.103 587.296 421.756C587.782 421.41 588.302 421.132 588.856 420.924C589.434 420.693 589.989 420.578 590.521 420.578C591.399 420.578 592.173 421.19 592.843 422.415C593.514 423.617 594.138 425.547 594.715 428.205C594.831 428.667 594.923 428.99 594.993 429.175C595.062 429.36 595.154 429.453 595.27 429.453C595.524 429.453 595.686 429.06 595.755 428.274C596.033 426.078 596.507 424.195 597.177 422.623C597.847 421.028 598.679 419.722 599.673 418.706C600.69 417.666 601.845 416.903 603.14 416.417C604.457 415.932 605.902 415.689 607.473 415.689C608.375 415.689 609.287 415.77 610.212 415.932C611.136 416.094 611.968 416.337 612.708 416.66C613.448 416.984 614.049 417.377 614.511 417.839C614.973 418.301 615.204 418.821 615.204 419.399C615.204 419.815 615.112 420.312 614.927 420.89C614.765 421.444 614.545 421.987 614.268 422.519C613.991 423.028 613.667 423.467 613.297 423.836C612.951 424.183 612.592 424.356 612.223 424.356C611.807 424.356 611.402 424.241 611.009 424.01C610.616 423.756 610.189 423.49 609.727 423.212C609.287 422.935 608.814 422.681 608.305 422.45C607.82 422.195 607.265 422.068 606.641 422.068ZM618.22 412.639C617.55 412.639 616.914 412.546 616.313 412.361C615.736 412.153 615.227 411.876 614.788 411.529C614.372 411.16 614.037 410.732 613.783 410.247C613.528 409.761 613.401 409.23 613.401 408.652C613.401 407.681 613.783 406.895 614.545 406.294C615.331 405.694 616.371 405.393 617.666 405.393C618.266 405.393 618.844 405.509 619.399 405.74C619.954 405.948 620.439 406.237 620.855 406.606C621.294 406.976 621.641 407.415 621.895 407.924C622.149 408.409 622.276 408.918 622.276 409.449C622.276 410.443 621.907 411.229 621.167 411.807C620.451 412.361 619.468 412.639 618.22 412.639ZM613.471 423.212C613.471 422.403 613.817 421.745 614.511 421.236C615.227 420.705 616.163 420.439 617.319 420.439C619.399 420.439 620.508 421.155 620.647 422.588C620.739 423.582 620.832 424.703 620.924 425.951C621.04 427.199 621.144 428.528 621.236 429.938C621.352 431.325 621.444 432.769 621.514 434.271C621.606 435.751 621.687 437.218 621.756 438.674C621.826 440.107 621.883 441.494 621.93 442.834C621.976 444.175 621.999 445.4 621.999 446.509C621.999 447.665 621.583 448.532 620.751 449.109C619.942 449.687 618.752 449.976 617.18 449.976C616.464 449.976 615.897 449.803 615.481 449.456C615.089 449.132 614.892 448.647 614.892 448C614.892 444.811 614.811 441.829 614.649 439.056C614.511 436.259 614.349 433.775 614.164 431.602C614.002 429.43 613.84 427.627 613.679 426.194C613.54 424.738 613.471 423.744 613.471 423.212ZM657.915 440.408C658.585 439.83 659.244 439.541 659.891 439.541C660.261 439.541 660.596 439.633 660.896 439.818C661.197 440.003 661.532 440.292 661.902 440.685C662.249 441.217 662.491 441.656 662.63 442.002C662.792 442.326 662.873 442.65 662.873 442.973C662.873 443.667 662.526 444.325 661.833 444.949C660.723 445.874 659.521 446.706 658.227 447.445C656.933 448.162 655.581 448.774 654.171 449.283C652.761 449.791 651.305 450.173 649.803 450.427C648.3 450.704 646.81 450.843 645.331 450.843C643.458 450.843 641.702 450.6 640.061 450.115C638.42 449.653 636.952 448.982 635.658 448.104C634.387 447.226 633.312 446.174 632.434 444.949C631.556 443.701 630.932 442.303 630.562 440.754C630.354 440.107 630.158 439.691 629.973 439.506C629.811 439.298 629.534 439.194 629.141 439.194C628.285 439.194 627.627 438.986 627.165 438.57C626.702 438.154 626.471 437.553 626.471 436.768C626.471 436.444 626.494 436.236 626.541 436.144L626.61 435.45C626.725 434.618 626.945 434.017 627.269 433.647C627.615 433.278 628.147 433.093 628.863 433.093H629.383C630.354 433.093 631.036 432.642 631.429 431.741C632.145 430.146 633.058 428.69 634.167 427.373C635.277 426.055 636.525 424.934 637.912 424.01C639.298 423.062 640.778 422.334 642.349 421.826C643.944 421.294 645.562 421.028 647.203 421.028C648.913 421.028 650.508 421.283 651.987 421.791C653.489 422.276 654.795 422.958 655.904 423.836C657.014 424.715 657.88 425.743 658.504 426.922C659.152 428.101 659.475 429.372 659.475 430.735C659.475 431.683 659.29 432.55 658.92 433.335C658.551 434.121 658.019 434.815 657.326 435.416C656.632 435.993 655.789 436.467 654.795 436.837C653.824 437.207 652.715 437.449 651.467 437.565L639.437 438.778C638.975 438.778 638.593 438.894 638.293 439.125C638.016 439.356 637.877 439.668 637.877 440.061C637.877 440.662 638.097 441.24 638.536 441.794C638.998 442.349 639.599 442.846 640.338 443.285C641.101 443.701 641.968 444.036 642.938 444.291C643.932 444.545 644.949 444.672 645.989 444.672C646.983 444.672 648 444.579 649.04 444.395C650.103 444.187 651.143 443.898 652.16 443.528C653.2 443.158 654.206 442.719 655.176 442.21C656.147 441.679 657.06 441.078 657.915 440.408ZM650.184 431.463C650.531 431.394 650.831 431.232 651.085 430.978C651.34 430.701 651.467 430.366 651.467 429.973C651.467 429.626 651.34 429.302 651.085 429.002C650.831 428.701 650.485 428.436 650.045 428.205C649.606 427.95 649.098 427.754 648.52 427.615C647.942 427.477 647.33 427.407 646.683 427.407C645.735 427.407 644.764 427.546 643.771 427.823C642.777 428.101 641.875 428.47 641.066 428.933C640.257 429.372 639.599 429.869 639.09 430.423C638.582 430.955 638.328 431.486 638.328 432.018C638.328 432.55 638.651 432.815 639.298 432.815C639.691 432.815 640.327 432.769 641.205 432.677C642.083 432.584 643.054 432.48 644.117 432.365C645.18 432.226 646.255 432.076 647.341 431.914C648.428 431.752 649.375 431.602 650.184 431.463ZM668.315 407.958C668.315 406.734 668.662 405.878 669.355 405.393C670.049 404.885 671.193 404.63 672.788 404.63C673.365 404.63 673.851 404.688 674.244 404.804C674.66 404.896 675.006 405.081 675.284 405.358C675.584 405.636 675.815 406.006 675.977 406.468C676.162 406.907 676.312 407.473 676.428 408.167C676.705 410.316 677.006 412.535 677.329 414.823C677.676 417.111 678.034 419.41 678.404 421.722C678.542 422.762 679.086 423.282 680.033 423.282C680.287 423.282 680.703 423.259 681.281 423.212C681.882 423.143 682.587 423.074 683.396 423.004C684.205 422.912 685.072 422.819 685.996 422.727C686.944 422.635 687.88 422.554 688.804 422.484C689.752 422.392 690.642 422.323 691.474 422.276C692.329 422.207 693.08 422.172 693.727 422.172C694.236 422.172 694.64 422.276 694.94 422.484C695.241 422.669 695.472 422.924 695.634 423.247C695.819 423.548 695.934 423.894 695.98 424.287C696.05 424.657 696.084 425.038 696.084 425.431C696.084 425.778 696.015 426.136 695.876 426.506C695.761 426.876 695.588 427.211 695.356 427.511C695.148 427.789 694.883 428.02 694.559 428.205C694.236 428.389 693.866 428.482 693.45 428.482C691.439 428.482 689.405 428.551 687.348 428.69C685.314 428.806 683.28 428.967 681.247 429.175C680.207 429.314 679.687 429.834 679.687 430.735C679.687 430.805 679.698 430.897 679.721 431.013C679.744 431.105 679.756 431.186 679.756 431.255C680.033 433.266 680.287 435.15 680.519 436.906C680.773 438.663 680.981 440.234 681.143 441.621C681.327 442.985 681.466 444.129 681.559 445.053C681.674 445.955 681.732 446.556 681.732 446.856C681.732 447.688 681.651 448.381 681.489 448.936C681.327 449.514 681.062 449.976 680.692 450.323C680.322 450.693 679.825 450.947 679.201 451.085C678.6 451.247 677.838 451.328 676.913 451.328C676.035 451.328 675.388 451.12 674.972 450.704C674.556 450.288 674.325 449.653 674.278 448.797C674.14 446.07 673.92 443.331 673.62 440.581C673.319 437.808 672.972 435.046 672.58 432.295C672.372 431.302 671.852 430.805 671.02 430.805C670.95 430.805 670.869 430.816 670.777 430.839C670.684 430.862 670.604 430.874 670.534 430.874C669.101 431.198 667.749 431.521 666.478 431.845C665.207 432.168 664.017 432.515 662.907 432.885C662.283 433.093 661.729 433.243 661.243 433.335C660.758 433.405 660.319 433.439 659.926 433.439C659.394 433.439 659.001 433.208 658.747 432.746C658.493 432.261 658.366 431.66 658.366 430.943C658.366 430.689 658.389 430.4 658.435 430.077C658.481 429.73 658.574 429.395 658.712 429.071C658.828 428.725 659.013 428.413 659.267 428.135C659.498 427.835 659.822 427.592 660.238 427.407C661.208 427.014 662.503 426.61 664.121 426.194C665.738 425.755 667.564 425.35 669.598 424.98C670.06 424.865 670.419 424.68 670.673 424.426C670.95 424.148 671.089 423.744 671.089 423.212C671.089 423.097 671.089 422.981 671.089 422.866C671.089 422.727 671.066 422.588 671.02 422.45C670.65 420.323 670.292 418.394 669.945 416.66C669.621 414.904 669.332 413.401 669.078 412.153C668.847 410.905 668.662 409.923 668.523 409.207C668.385 408.49 668.315 408.074 668.315 407.958ZM708.53 448.936C707.144 448.936 705.757 448.601 704.37 447.931C702.983 447.237 701.654 446.301 700.383 445.123C699.112 443.944 697.933 442.557 696.847 440.962C695.761 439.345 694.813 437.611 694.004 435.762C693.195 433.89 692.56 431.937 692.098 429.903C691.635 427.869 691.404 425.836 691.404 423.802C691.404 422.23 691.728 421.109 692.375 420.439C693.022 419.746 694.074 419.399 695.53 419.399C697.356 419.399 698.373 420.15 698.581 421.652C698.997 424.842 699.574 427.719 700.314 430.285C701.054 432.85 701.92 435.034 702.914 436.837C703.931 438.64 705.052 440.026 706.277 440.997C707.525 441.968 708.842 442.453 710.229 442.453C711.223 442.453 712.159 442.21 713.037 441.725C713.915 441.217 714.678 440.512 715.325 439.61C715.556 439.264 715.707 438.929 715.776 438.605C715.868 438.281 715.938 437.912 715.984 437.496C716.099 435.855 716.227 434.248 716.365 432.677C716.527 431.082 716.677 429.487 716.816 427.893C716.862 427.199 716.955 426.633 717.093 426.194C717.232 425.755 717.44 425.408 717.717 425.154C717.995 424.9 718.353 424.726 718.792 424.634C719.254 424.541 719.832 424.495 720.525 424.495C721.311 424.495 721.981 424.611 722.536 424.842C723.091 425.05 723.542 425.408 723.888 425.917C724.235 426.402 724.478 427.049 724.616 427.858C724.778 428.644 724.859 429.626 724.859 430.805C724.859 431.822 724.778 432.711 724.616 433.474C724.478 434.214 724.304 434.919 724.096 435.589C723.911 436.236 723.726 436.883 723.542 437.53C723.38 438.154 723.276 438.848 723.229 439.61C723.114 441.529 723.01 443.193 722.917 444.603C722.825 445.989 722.744 447.18 722.675 448.173C722.629 449.167 722.582 450.022 722.536 450.739C722.513 451.455 722.49 452.091 722.467 452.646C722.444 453.223 722.432 453.766 722.432 454.275C722.432 454.783 722.432 455.338 722.432 455.939C722.432 457.025 722.478 458.204 722.571 459.475C722.663 460.769 722.756 462.006 722.848 463.185C722.964 464.363 723.068 465.403 723.16 466.305C723.253 467.206 723.299 467.83 723.299 468.177C723.299 468.616 723.16 469.032 722.883 469.425C722.605 469.818 722.236 470.164 721.773 470.465C721.311 470.765 720.768 470.996 720.144 471.158C719.52 471.343 718.861 471.436 718.168 471.436C717.567 471.436 717.082 471.228 716.712 470.812C716.365 470.419 716.169 469.887 716.123 469.217C716.053 468.339 715.995 467.264 715.949 465.993C715.903 464.745 715.857 463.404 715.811 461.971C715.764 460.561 715.73 459.117 715.707 457.638C715.707 456.182 715.695 454.818 715.672 453.547C715.649 452.299 715.637 451.201 715.637 450.253C715.637 449.306 715.637 448.624 715.637 448.208C715.637 447.792 715.591 447.503 715.499 447.341C715.406 447.156 715.233 447.064 714.979 447.064C714.84 447.064 714.655 447.11 714.424 447.203C714.193 447.272 713.927 447.399 713.626 447.584C712.818 448.069 711.997 448.416 711.165 448.624C710.333 448.832 709.455 448.936 708.53 448.936Z" fill="black"/>
</g>
<defs>
<filter id="filter0_d_2385_3360" x="0" y="0" width="1232" height="934" filterUnits="userSpaceOnUse" color-interpolation-filters="sRGB">
<feFlood flood-opacity="0" result="BackgroundImageFix"/>
<feColorMatrix in="SourceAlpha" type="matrix" values="0 0 0 0 0 0 0 0 0 0 0 0 0 0 0 0 0 0 127 0" result="hardAlpha"/>
<feOffset dy="4"/>
<feGaussianBlur stdDeviation="8"/>
<feComposite in2="hardAlpha" operator="out"/>
<feColorMatrix type="matrix" values="0 0 0 0 0 0 0 0 0 0 0 0 0 0 0 0 0 0 0.25 0"/>
<feBlend mode="normal" in2="BackgroundImageFix" result="effect1_dropShadow_2385_3360"/>
<feBlend mode="normal" in="SourceGraphic" in2="effect1_dropShadow_2385_3360" result="shape"/>
</filter>
</defs>
</svg>
