<svg width="325" height="150" viewBox="0 0 325 150" fill="none" xmlns="http://www.w3.org/2000/svg">
<path d="M44.16 149.4L43.32 148.92C43.08 148.68 42.96 148.56 42.96 148.56C42.88 148.24 42.76 147.92 42.6 147.6C42.44 147.36 42.4 147.08 42.48 146.76C42.48 146.28 42.44 145.8 42.36 145.32C42.28 144.92 42.16 144.56 42 144.24L41.76 143.28C41.68 142.48 41.36 141.68 40.8 140.88C40.24 140 39.8 139.12 39.48 138.24C39.16 137.36 38.92 136.44 38.76 135.48C38.6 134.52 38.32 133.64 37.92 132.84C37.52 131.96 37.12 131.04 36.72 130.08L36 128.52C35.76 127.96 35.44 127.6 35.04 127.44C34.8 127.36 34.52 127.08 34.2 126.6C34.04 126.52 33.88 126.32 33.72 126C33.48 125.44 33.2 124.92 32.88 124.44C32.64 123.88 32.36 123.32 32.04 122.76C31.72 122.28 31.4 121.84 31.08 121.44C30.84 120.96 30.6 120.48 30.36 120C30.28 119.76 30.16 119.52 30 119.28C29.84 119.04 29.68 118.8 29.52 118.56C29.36 118.24 29.16 117.92 28.92 117.6C28.76 117.2 28.6 116.84 28.44 116.52L27.72 115.08C27.48 114.68 27.24 114.32 27 114C26.84 113.6 26.68 113.24 26.52 112.92C26.2 112.04 25.8 111.24 25.32 110.52C24.84 109.8 24.36 109.04 23.88 108.24C23.72 107.92 23.56 107.68 23.4 107.52C23.32 107.28 23.2 107.04 23.04 106.8C22.88 106.56 22.72 106.32 22.56 106.08C22.24 105.52 21.92 104.96 21.6 104.4C21.36 103.84 21.16 103.28 21 102.72C20.92 102.4 20.84 102.12 20.76 101.88C20.68 101.64 20.56 101.4 20.4 101.16C20.24 100.76 20.08 100.4 19.92 100.08C19.76 99.68 19.6 99.28 19.44 98.88C19.44 98.8 19.4 98.72 19.32 98.64C19 98 18.72 97.36 18.48 96.72C18.24 96.08 18 95.48 17.76 94.92C17.44 94.12 17.08 93.36 16.68 92.64C16.28 91.92 15.88 91.2 15.48 90.48L15.12 89.64C14.32 87.32 13.24 85 11.88 82.68C11.8 82.6 11.76 82.52 11.76 82.44C11.76 82.36 11.72 82.28 11.64 82.2C11.56 81.64 11.32 81.12 10.92 80.64C10.84 80.64 10.8 80.6 10.8 80.52C10.8 80.44 10.76 80.36 10.68 80.28C10.52 79.88 10.32 79.48 10.08 79.08C9.92 78.6 9.72 78.16 9.48 77.76C9.48 77.6 9.44 77.48 9.36 77.4C9.28 77.24 9.2 77.12 9.12 77.04C8.8 76.64 8.52 76.24 8.28 75.84C8.12 75.44 7.96 75 7.8 74.52C7.64 74.12 7.48 73.76 7.32 73.44C7.16 73.04 7 72.68 6.84 72.36L6.6 72C6.28 71.44 6 70.92 5.76 70.44C5.52 69.88 5.24 69.32 4.92 68.76C4.84 68.44 4.64 67.8 4.32 66.84C4 65.88 3.8 65.24 3.72 64.92C3.64 64.76 3.6 64.52 3.6 64.2C3.6 63.72 3.56 63.24 3.48 62.76C3.48 62.28 3.52 61.8 3.6 61.32C3.76 59.16 4.56 57.44 6 56.16C6.8 55.52 7.6 55.08 8.4 54.84C8.56 54.76 8.72 54.72 8.88 54.72C9.04 54.72 9.16 54.68 9.24 54.6C9.8 54.44 10.32 54.4 10.8 54.48C11.28 54.56 11.76 54.68 12.24 54.84L14.16 55.92C15.04 56.32 15.6 56.92 15.84 57.72C16 58.12 16.16 58.52 16.32 58.92C16.56 59.24 16.8 59.56 17.04 59.88C17.6 60.6 18.04 61.36 18.36 62.16C18.76 62.88 19.12 63.64 19.44 64.44C19.68 65 19.88 65.56 20.04 66.12C20.28 66.68 20.52 67.2 20.76 67.68L22.56 72C22.88 72.72 23.2 73.44 23.52 74.16C23.84 74.88 24.16 75.6 24.48 76.32L24.84 77.28C25.16 78.08 25.48 78.92 25.8 79.8C26.2 80.6 26.52 81.44 26.76 82.32C26.92 82.8 27.12 83.28 27.36 83.76C27.6 84.16 27.84 84.6 28.08 85.08C28.24 85.4 28.4 85.76 28.56 86.16C28.72 86.56 28.88 86.96 29.04 87.36C29.12 87.44 29.16 87.56 29.16 87.72C29.16 87.88 29.2 88 29.28 88.08C29.6 88.56 29.84 89.04 30 89.52C30.16 90 30.32 90.48 30.48 90.96C31.28 92.8 32.08 94.64 32.88 96.48C33.76 98.32 34.64 100.16 35.52 102C35.68 102.48 35.88 102.96 36.12 103.44C36.36 103.92 36.56 104.4 36.72 104.88L37.8 106.92C37.96 107.32 38.12 107.76 38.28 108.24C38.44 108.64 38.64 109.04 38.88 109.44C39.12 109.84 39.32 110.28 39.48 110.76C39.64 111.16 39.8 111.56 39.96 111.96L41.28 114.48C41.44 114.8 41.6 115.12 41.76 115.44C42 115.76 42.16 116 42.24 116.16C42.32 116.32 42.4 116.52 42.48 116.76C42.56 116.92 42.64 117.08 42.72 117.24C42.88 117.32 43.08 117.6 43.32 118.08C43.56 118.48 43.64 118.68 43.56 118.68C43.96 118.84 44.2 118.76 44.28 118.44C44.36 118.12 44.44 117.8 44.52 117.48C44.68 117.08 44.8 116.72 44.88 116.4C45.04 115.76 45.16 115.12 45.24 114.48C45.32 113.84 45.4 113.2 45.48 112.56C45.64 111.68 45.76 110.84 45.84 110.04C46 109.16 46.16 108.32 46.32 107.52C46.32 107.36 46.32 107.16 46.32 106.92C46.32 106.68 46.36 106.48 46.44 106.32C46.68 103.84 47.04 101.48 47.52 99.24C47.52 99 47.56 98.84 47.64 98.76C47.72 97.4 47.88 96.12 48.12 94.92C48.44 93.64 48.72 92.36 48.96 91.08C49.12 89.96 49.32 88.84 49.56 87.72C49.8 86.6 50.04 85.48 50.28 84.36C50.6 83 50.92 81.64 51.24 80.28C51.56 78.84 51.88 77.44 52.2 76.08L53.28 71.52C53.44 70.88 53.6 70.28 53.76 69.72C53.92 69.16 54.08 68.6 54.24 68.04C54.4 67.32 54.56 66.64 54.72 66C54.96 65.28 55.12 64.6 55.2 63.96C55.36 63.4 55.52 62.88 55.68 62.4C55.84 61.84 56 61.28 56.16 60.72L57.24 57.72C57.32 57.4 57.4 57.08 57.48 56.76C57.56 56.36 57.6 56 57.6 55.68C57.52 55.04 57.56 54.44 57.72 53.88C57.88 53.32 58.04 52.76 58.2 52.2C58.6 51.08 59.08 50.2 59.64 49.56C59.88 49.32 60.08 49.08 60.24 48.84C60.4 48.52 60.56 48.2 60.72 47.88C60.88 47.64 60.96 47.24 60.96 46.68C60.96 46.2 60.76 45.92 60.36 45.84C60.12 45.68 60 45.52 60 45.36C60.08 45.2 60.12 45 60.12 44.76C60.28 44.28 60.48 44 60.72 43.92L62.64 43.08C62.8 43 62.96 42.96 63.12 42.96C63.28 42.96 63.4 42.92 63.48 42.84C63.72 42.84 63.92 42.92 64.08 43.08C64.32 43.32 64.64 43.48 65.04 43.56C65.44 43.64 65.88 43.72 66.36 43.8C66.84 43.88 67.32 43.96 67.8 44.04C68.04 44.12 68.28 44.2 68.52 44.28C68.76 44.28 69 44.36 69.24 44.52C69.64 44.84 70.04 45.2 70.44 45.6C70.92 45.92 71.32 46.32 71.64 46.8C72.2 47.6 72.68 48.52 73.08 49.56L73.44 50.88C73.84 51.52 74.12 52.32 74.28 53.28C74.68 55.28 74.52 57.12 73.8 58.8C73.72 59.04 73.6 59.32 73.44 59.64C73.36 59.88 73.24 60.12 73.08 60.36C72.68 61 72.32 61.68 72 62.4C71.76 63.12 71.56 63.84 71.4 64.56C71.32 65.28 71.16 66 70.92 66.72C70.68 67.36 70.4 68 70.08 68.64L69 71.52C68.92 71.68 68.84 71.88 68.76 72.12C68.68 72.28 68.6 72.44 68.52 72.6V72.84C68.44 72.92 68.36 73.08 68.28 73.32C68.2 73.48 68.16 73.64 68.16 73.8C68.08 74.36 67.92 74.88 67.68 75.36C67.44 75.84 67.36 76.4 67.44 77.04C67.44 77.2 67.56 77.36 67.8 77.52C67.96 77.52 68.12 77.56 68.28 77.64C68.44 77.64 68.6 77.64 68.76 77.64L69.12 78C69.28 78.08 69.36 78.2 69.36 78.36C69.36 78.52 69.28 78.64 69.12 78.72C68.72 79.12 68.28 79.32 67.8 79.32C67.64 79.32 67.44 79.36 67.2 79.44C67.04 79.44 66.88 79.44 66.72 79.44C66.56 79.6 66.4 79.88 66.24 80.28C66.16 80.44 66.08 80.64 66 80.88C66 81.12 65.92 81.32 65.76 81.48C65.44 82.2 64.76 82.56 63.72 82.56H62.88C62.72 82.64 62.56 82.88 62.4 83.28C62 84.56 61.6 85.84 61.2 87.12C60.8 88.32 60.48 89.6 60.24 90.96C60.16 91.52 60.04 92.08 59.88 92.64C59.72 93.12 59.56 93.68 59.4 94.32C59.08 95.76 58.72 97.2 58.32 98.64C58 100.08 57.72 101.52 57.48 102.96C57.4 103.36 57.32 103.8 57.24 104.28C57.16 104.76 57.04 105.2 56.88 105.6C56.72 106.4 56.6 107.24 56.52 108.12C56.52 108.92 56.44 109.72 56.28 110.52L55.92 114.6C55.84 114.92 55.8 115.28 55.8 115.68C55.8 116 55.76 116.32 55.68 116.64C55.6 116.96 55.52 117.24 55.44 117.48C55.44 117.72 55.44 118 55.44 118.32C55.2 119.36 54.96 120.44 54.72 121.56C54.56 122.6 54.36 123.68 54.12 124.8C54.04 125.52 53.88 126.24 53.64 126.96C53.48 127.6 53.32 128.24 53.16 128.88C53.08 129.2 53 129.48 52.92 129.72C52.84 129.96 52.72 130.2 52.56 130.44C52.24 131.16 52.04 131.8 51.96 132.36C51.8 132.52 51.72 132.68 51.72 132.84C51.72 133.88 51.56 134.72 51.24 135.36C51.16 135.6 51.12 135.92 51.12 136.32C51.12 136.56 51.04 136.76 50.88 136.92C50.72 137.16 50.64 137.4 50.64 137.64C50.64 137.8 50.56 137.88 50.4 137.88C50.16 137.96 49.96 138.12 49.8 138.36C49.72 138.6 49.6 138.8 49.44 138.96C49.2 139.28 48.96 139.56 48.72 139.8C48.56 140.04 48.28 140.24 47.88 140.4C47.72 140.56 47.6 140.72 47.52 140.88C47.44 141.36 47.32 141.84 47.16 142.32C47 142.88 46.92 143.44 46.92 144C46.92 144.24 46.88 144.48 46.8 144.72C46.8 144.96 46.8 145.2 46.8 145.44C46.88 145.92 46.84 146.4 46.68 146.88C46.6 147.36 46.48 147.8 46.32 148.2C46.24 148.52 45.96 148.8 45.48 149.04C45.08 149.36 44.64 149.48 44.16 149.4ZM127.583 143.76C126.863 143.76 126.223 143.48 125.663 142.92C125.503 142.68 125.343 142.44 125.183 142.2C125.023 141.96 124.863 141.72 124.703 141.48C123.983 139.8 123.623 138.04 123.623 136.2L123.263 133.32C123.023 132.2 122.823 131.08 122.663 129.96C122.503 128.84 122.223 127.76 121.823 126.72L121.103 124.68C121.103 124.52 121.063 124.36 120.983 124.2C120.983 124.04 120.943 123.88 120.863 123.72L119.063 117.36C118.983 117.2 118.903 117 118.823 116.76C118.823 116.52 118.743 116.32 118.583 116.16C118.343 115.68 118.143 115.2 117.983 114.72C117.903 114.16 117.783 113.6 117.623 113.04C117.543 112.64 117.463 112.28 117.383 111.96C117.303 111.56 117.183 111.16 117.023 110.76C116.863 110.28 116.703 110 116.543 109.92C116.383 109.76 116.023 109.76 115.463 109.92C115.063 110 114.623 110.08 114.143 110.16C113.743 110.16 113.343 110.24 112.943 110.4C112.623 110.48 112.223 110.56 111.743 110.64C111.343 110.64 110.943 110.68 110.543 110.76L108.863 111.12C108.463 111.2 108.023 111.32 107.543 111.48C107.143 111.56 106.743 111.6 106.343 111.6L104.183 111.96C103.543 112.12 102.863 112.28 102.143 112.44C101.423 112.6 100.743 112.76 100.103 112.92C98.1825 113.4 96.2625 113.76 94.3425 114C93.7025 114.16 93.3425 114.44 93.2625 114.84C93.1825 114.84 93.1425 114.88 93.1425 114.96C92.6625 116.24 92.1025 117.52 91.4625 118.8C90.9025 120 90.3025 121.24 89.6625 122.52C89.5025 122.84 89.3425 123.16 89.1825 123.48C89.1025 123.72 88.9825 124 88.8225 124.32C88.7425 124.48 88.6625 124.68 88.5825 124.92C88.5025 125.08 88.4225 125.24 88.3425 125.4C87.8625 125.96 87.6225 126.64 87.6225 127.44C87.5425 127.92 87.3825 128.4 87.1425 128.88C86.9025 129.28 86.6625 129.68 86.4225 130.08C86.3425 130.32 86.1825 130.44 85.9425 130.44C85.6225 130.52 85.3025 130.64 84.9825 130.8C84.6625 130.96 84.3025 131.12 83.9025 131.28C83.6625 131.36 83.4225 131.36 83.1825 131.28C83.0225 131.2 82.8225 131.12 82.5825 131.04C82.4225 130.88 82.2625 130.8 82.1025 130.8C81.2225 130.72 80.5825 130.2 80.1825 129.24C79.5425 127.96 79.1025 126.68 78.8625 125.4C78.7825 125.08 78.7825 124.8 78.8625 124.56C79.0225 124.32 79.1425 124.08 79.2225 123.84C79.7025 123.52 79.9825 123.16 80.0625 122.76V122.64C80.0625 121.6 80.2625 120.64 80.6625 119.76C81.1425 118.8 81.5425 117.88 81.8625 117C82.0225 116.52 82.2225 116.04 82.4625 115.56C82.7025 115.08 82.9425 114.6 83.1825 114.12C83.5025 113.56 83.7425 113.04 83.9025 112.56C84.1425 112 84.3425 111.44 84.5025 110.88C84.7425 110.24 84.7425 109.64 84.5025 109.08C84.3425 108.6 84.2625 108.16 84.2625 107.76C84.2625 107.28 84.3025 106.8 84.3825 106.32C84.3825 105.44 84.7025 104.68 85.3425 104.04C85.6625 103.64 85.9825 103.32 86.3025 103.08C86.7025 102.76 87.0625 102.44 87.3825 102.12C88.1025 101.4 88.6625 100.44 89.0625 99.24C89.3825 98.2 89.6225 97.16 89.7825 96.12C90.0225 95 90.2625 93.92 90.5025 92.88C90.6625 91.84 90.8225 90.84 90.9825 89.88C91.2225 88.84 91.4625 87.84 91.7025 86.88C91.7825 86.48 91.8625 86.12 91.9425 85.8C92.1025 85.4 92.2225 85.04 92.3025 84.72C92.5425 84.08 92.7825 83.48 93.0225 82.92C93.2625 82.28 93.4225 81.64 93.5025 81C93.6625 80.68 93.6625 80.4 93.5025 80.16C93.4225 79.76 93.4225 79.4 93.5025 79.08C93.6625 78.76 93.7825 78.44 93.8625 78.12C94.1025 77.56 94.2625 77 94.3425 76.44C94.5025 75.88 94.7025 75.32 94.9425 74.76C95.3425 73.72 95.6625 72.88 95.9025 72.24C96.2225 71.52 96.5025 70.72 96.7425 69.84C96.9025 69.36 97.0625 68.92 97.2225 68.52C97.4625 68.04 97.6225 67.56 97.7025 67.08C97.9425 66.36 98.1425 65.64 98.3025 64.92C98.4625 64.12 98.5425 63.36 98.5425 62.64C98.7025 62 98.8625 61.56 99.0225 61.32C99.4225 60.52 99.9025 59.84 100.463 59.28C101.103 58.72 101.703 58.16 102.263 57.6C102.663 57.36 103.063 57.2 103.463 57.12C103.863 56.96 104.263 57 104.663 57.24C104.983 57.4 105.183 57.48 105.263 57.48C105.983 57.4 106.583 57.56 107.063 57.96C107.543 58.36 107.943 58.84 108.263 59.4C108.423 59.56 108.543 59.76 108.623 60C108.703 60.24 108.783 60.44 108.863 60.6C109.263 61.24 109.463 61.88 109.463 62.52C109.463 62.84 109.503 63.2 109.583 63.6C109.663 63.92 109.743 64.28 109.823 64.68C110.063 65.16 110.423 65.4 110.903 65.4C110.983 65.32 111.063 65.32 111.143 65.4C111.223 65.48 111.263 65.56 111.263 65.64C111.663 66.12 111.783 66.64 111.623 67.2C111.463 67.84 111.423 68.48 111.503 69.12C111.663 69.68 111.823 70.28 111.983 70.92C112.303 71.72 112.623 72.52 112.943 73.32C113.263 74.12 113.583 74.92 113.903 75.72C114.303 76.6 114.703 77.48 115.103 78.36C115.503 79.24 115.863 80.12 116.183 81C116.583 82.12 116.983 83.24 117.383 84.36C117.863 85.48 118.383 86.6 118.943 87.72L119.303 89.04C119.383 89.36 119.463 89.68 119.543 90C119.703 90.32 119.823 90.64 119.903 90.96C120.063 91.2 120.183 91.44 120.263 91.68C120.423 91.92 120.583 92.12 120.743 92.28C121.143 92.84 121.383 93.44 121.463 94.08C121.703 94.88 122.063 95.6 122.543 96.24C122.703 96.48 122.943 96.6 123.263 96.6C124.463 96.44 125.663 96.32 126.863 96.24C128.063 96.08 129.263 95.84 130.463 95.52C131.343 95.28 132.183 95.16 132.983 95.16C134.503 95.16 135.903 95.68 137.183 96.72C138.703 97.92 139.503 99.44 139.583 101.28C139.583 101.68 139.623 102 139.703 102.24C139.703 102.8 139.543 103.24 139.223 103.56C139.143 103.8 138.983 104.04 138.743 104.28C138.583 104.52 138.423 104.76 138.263 105C138.103 105.32 137.943 105.56 137.783 105.72L137.063 106.32C136.983 106.48 136.863 106.68 136.703 106.92C136.543 107.08 136.343 107.2 136.103 107.28C135.783 107.36 135.463 107.48 135.143 107.64C134.822 107.72 134.462 107.76 134.062 107.76C132.623 107.92 131.343 107.88 130.223 107.64H128.303C128.143 107.64 127.903 107.72 127.583 107.88C127.263 108.04 127.103 108.24 127.103 108.48V108.96C127.343 109.68 127.503 110.44 127.583 111.24C127.743 111.96 127.983 112.64 128.303 113.28C128.303 113.6 128.383 113.92 128.543 114.24C128.943 114.96 129.263 115.72 129.503 116.52C129.743 117.24 129.943 118 130.103 118.8C130.103 118.96 130.183 119.28 130.343 119.76C130.583 120.32 130.783 120.92 130.943 121.56C131.103 122.12 131.223 122.72 131.303 123.36C131.303 123.84 131.423 124.28 131.663 124.68C131.983 125.4 132.223 126.12 132.383 126.84C132.543 127.56 132.663 128.32 132.743 129.12C132.823 129.2 132.863 129.36 132.863 129.6C132.863 129.76 132.903 129.92 132.983 130.08C133.383 130.96 133.663 131.92 133.823 132.96C133.983 133.92 134.183 134.88 134.423 135.84C134.583 136.32 134.662 136.8 134.662 137.28C134.743 137.84 134.783 138.4 134.783 138.96C134.783 139.36 134.663 139.8 134.423 140.28C134.183 140.52 134.062 140.64 134.062 140.64C133.583 140.72 133.303 141 133.223 141.48L132.863 142.2C132.703 142.52 132.463 142.72 132.143 142.8C131.823 142.8 131.543 142.92 131.303 143.16C130.983 143.48 130.543 143.64 129.983 143.64C129.663 143.64 129.263 143.64 128.783 143.64C128.383 143.64 127.983 143.68 127.583 143.76ZM98.6625 100.2C99.1425 100.12 99.6225 100.04 100.103 99.96C100.663 99.88 101.263 99.8 101.903 99.72C102.303 99.64 102.823 99.56 103.463 99.48C104.103 99.4 104.703 99.32 105.263 99.24C105.823 99.08 106.383 99 106.943 99C107.503 98.92 108.063 98.84 108.623 98.76C109.103 98.6 109.583 98.52 110.063 98.52C110.543 98.44 111.023 98.36 111.503 98.28C112.223 98.12 112.503 97.72 112.343 97.08C112.263 96.44 112.103 95.8 111.863 95.16C111.703 94.44 111.343 93.84 110.783 93.36C110.623 93.2 110.543 92.96 110.543 92.64V92.28C110.383 91.64 110.183 91.04 109.943 90.48C109.783 89.84 109.583 89.24 109.342 88.68C109.183 88.04 108.983 87.48 108.743 87C108.583 86.44 108.383 85.88 108.143 85.32L106.703 81C106.463 80.44 106.223 79.88 105.983 79.32C105.822 78.76 105.663 78.2 105.503 77.64L105.143 77.16H104.783L104.543 77.52C104.143 78.72 103.663 79.92 103.103 81.12C102.623 82.32 102.183 83.6 101.783 84.96C101.783 85.12 101.743 85.32 101.663 85.56C101.583 85.8 101.503 86.04 101.423 86.28C101.103 87.08 100.783 87.96 100.463 88.92C100.223 89.88 100.023 90.84 99.8625 91.8C99.7825 92.36 99.7025 92.92 99.6225 93.48C99.5425 93.96 99.4225 94.48 99.2625 95.04L98.1825 99.72C98.1025 99.8 98.1425 99.92 98.3025 100.08C98.4625 100.16 98.5825 100.2 98.6625 100.2ZM170.772 136.2C170.692 136.12 170.572 136.08 170.412 136.08C169.612 135.6 168.812 135.16 168.012 134.76C167.292 134.28 166.612 133.76 165.972 133.2C165.652 133.04 165.452 132.88 165.372 132.72C164.652 132.32 164.012 131.84 163.452 131.28C162.892 130.64 162.372 129.96 161.892 129.24C161.732 129.08 161.572 128.88 161.412 128.64C161.252 128.4 161.052 128.16 160.812 127.92C160.012 127.12 159.372 126.16 158.892 125.04C158.812 124.8 158.692 124.56 158.532 124.32C158.372 124.08 158.212 123.84 158.052 123.6C157.572 122.96 157.212 122.36 156.972 121.8C156.812 121.16 156.572 120.56 156.252 120C155.932 119.36 155.612 118.76 155.292 118.2C155.212 117.88 155.092 117.56 154.932 117.24C154.772 116.92 154.652 116.6 154.572 116.28C154.572 115.88 154.452 115.44 154.212 114.96C153.892 114.08 153.572 113.2 153.252 112.32C153.012 111.36 152.772 110.4 152.532 109.44C152.372 109.12 152.292 108.88 152.292 108.72C151.812 107.68 151.452 106.6 151.212 105.48C150.972 104.36 150.732 103.28 150.492 102.24L149.772 96.84C149.692 96.68 149.652 96.48 149.652 96.24C149.652 96 149.652 95.8 149.652 95.64C149.652 95.16 149.652 94.72 149.652 94.32C149.652 93.84 149.572 93.36 149.412 92.88C149.252 91.84 149.292 90.88 149.532 90C149.532 89.68 149.532 89.4 149.532 89.16C149.612 88.84 149.652 88.52 149.652 88.2C149.652 87.8 149.652 87.4 149.652 87C149.732 86.52 149.812 86.12 149.892 85.8C149.972 85.56 150.012 85.24 150.012 84.84C150.172 84.12 150.252 83.44 150.252 82.8C150.332 82.08 150.412 81.4 150.492 80.76C150.732 79.64 150.852 78.56 150.852 77.52C150.852 77.2 150.852 76.92 150.852 76.68C150.932 76.36 151.012 76.04 151.092 75.72C151.092 75 151.052 74.48 150.972 74.16C150.732 73.84 150.692 73.4 150.852 72.84C151.012 72.52 151.092 72.28 151.092 72.12C151.172 71.96 151.212 71.8 151.212 71.64C151.212 71.4 151.332 71.24 151.572 71.16H152.412C152.732 71.16 152.932 71.04 153.012 70.8C153.092 70.48 153.372 70.24 153.852 70.08C154.252 69.92 154.612 69.8 154.932 69.72C155.252 69.56 155.572 69.36 155.892 69.12C156.132 68.96 156.412 68.88 156.732 68.88C157.052 68.88 157.372 68.92 157.692 69L159.852 69.72C159.932 69.8 159.972 69.84 159.972 69.84C160.052 69.84 160.132 69.88 160.212 69.96C160.852 70.6 161.372 71.32 161.772 72.12C162.252 72.92 162.532 73.8 162.612 74.76C162.612 75.08 162.612 75.4 162.612 75.72C162.612 75.96 162.532 76.24 162.372 76.56C162.292 77.04 162.212 77.52 162.132 78C162.052 78.48 161.972 79 161.892 79.56C161.732 80.36 161.612 81.16 161.532 81.96C161.532 82.68 161.532 83.44 161.532 84.24C161.452 84.56 161.412 84.88 161.412 85.2C161.412 85.44 161.372 85.72 161.292 86.04C161.212 87 161.172 87.96 161.172 88.92C161.172 89.88 161.252 90.8 161.412 91.68C161.412 91.76 161.412 91.88 161.412 92.04C161.492 92.2 161.492 92.36 161.412 92.52C161.412 93.32 161.492 94.16 161.652 95.04C161.812 95.92 161.932 96.8 162.012 97.68C162.092 98.48 162.172 99.24 162.252 99.96C162.332 100.68 162.452 101.4 162.612 102.12C162.772 102.44 162.852 102.76 162.852 103.08C162.932 103.4 163.012 103.72 163.092 104.04C163.412 105.56 163.772 107.04 164.172 108.48C164.572 109.92 165.092 111.36 165.732 112.8C166.132 113.68 166.532 114.44 166.932 115.08C167.572 116.2 168.132 117.32 168.612 118.44C168.932 119 169.252 119.56 169.572 120.12C169.892 120.6 170.212 121.12 170.532 121.68C170.852 122.08 171.172 122.44 171.492 122.76C171.812 123.08 172.132 123.44 172.452 123.84C172.852 124.24 173.372 124.36 174.012 124.2C174.412 124.04 174.692 123.88 174.852 123.72C175.252 123.48 175.612 123.24 175.932 123C176.332 122.76 176.692 122.48 177.012 122.16C177.892 121.28 178.692 120.4 179.412 119.52C180.212 118.64 180.892 117.68 181.452 116.64C181.932 115.76 182.412 114.84 182.892 113.88C183.372 112.92 183.812 111.96 184.212 111C184.692 109.88 185.132 108.76 185.532 107.64C186.012 106.52 186.452 105.36 186.852 104.16C187.172 103.36 187.412 102.56 187.572 101.76C187.812 100.88 187.972 100.04 188.052 99.24C188.212 98.36 188.332 97.48 188.412 96.6C188.572 95.64 188.612 94.72 188.532 93.84C188.532 93.6 188.532 93.36 188.532 93.12C188.612 92.88 188.652 92.64 188.652 92.4C188.812 91.84 188.852 91.32 188.772 90.84C188.772 90.36 188.732 89.88 188.652 89.4C188.572 88.04 188.452 86.76 188.292 85.56C188.212 84.28 188.132 83 188.052 81.72C188.052 81.08 188.012 80.64 187.932 80.4C187.852 79.68 187.772 78.96 187.692 78.24C187.692 77.52 187.612 76.8 187.452 76.08V75.12C187.452 74.32 187.412 73.56 187.332 72.84C187.332 72.04 187.332 71.24 187.332 70.44C187.332 69.8 187.292 69.24 187.212 68.76C187.212 68.2 187.212 67.64 187.212 67.08C187.212 66.36 187.332 65.76 187.572 65.28C187.812 64.88 187.892 64.56 187.812 64.32C187.572 63.84 187.692 63.48 188.172 63.24C188.572 62.84 188.972 62.52 189.372 62.28C189.852 62.04 190.372 61.88 190.932 61.8C191.092 61.72 191.212 61.68 191.292 61.68C191.452 61.68 191.572 61.64 191.652 61.56C192.132 61.16 192.772 61.04 193.572 61.2C193.732 61.28 193.972 61.32 194.292 61.32C195.012 61.48 195.532 61.76 195.852 62.16C196.092 62.4 196.452 62.68 196.932 63C197.572 63.32 198.012 63.72 198.252 64.2C198.492 64.68 198.652 65.2 198.732 65.76C198.892 66.56 199.012 67.32 199.092 68.04C199.252 68.76 199.292 69.52 199.212 70.32V71.4C199.212 72.2 199.212 73 199.212 73.8C199.292 74.52 199.372 75.28 199.452 76.08C199.532 76.32 199.572 76.6 199.572 76.92C199.572 77.16 199.572 77.4 199.572 77.64C199.572 78.12 199.572 78.6 199.572 79.08C199.652 79.48 199.732 79.92 199.812 80.4C199.892 80.56 199.932 80.8 199.932 81.12C199.852 81.92 199.852 82.72 199.932 83.52C200.092 84.24 200.212 85 200.292 85.8C200.372 86.6 200.412 87.44 200.412 88.32C200.492 89.2 200.532 90.08 200.532 90.96C200.612 91.04 200.612 91.16 200.532 91.32C200.532 91.48 200.532 91.64 200.532 91.8C200.292 92.52 200.252 93.36 200.412 94.32C200.572 95.36 200.532 96.36 200.292 97.32C200.212 98.04 200.132 98.76 200.052 99.48C199.972 100.2 199.852 100.96 199.692 101.76C199.532 103.04 199.252 104.32 198.852 105.6C198.452 106.88 198.052 108.16 197.652 109.44C197.652 109.6 197.532 109.88 197.292 110.28C196.972 110.84 196.692 111.44 196.452 112.08C196.212 112.64 196.012 113.24 195.852 113.88L195.492 114.72C195.092 115.52 194.732 116.32 194.412 117.12C194.172 117.84 193.852 118.6 193.452 119.4C193.212 119.88 192.972 120.36 192.732 120.84C192.492 121.32 192.212 121.76 191.892 122.16C191.812 122.32 191.692 122.48 191.532 122.64C191.372 123.2 191.132 123.72 190.812 124.2C190.492 124.68 190.172 125.16 189.852 125.64C188.972 127 187.932 128.28 186.732 129.48C185.612 130.68 184.372 131.8 183.012 132.84L181.572 133.68C180.452 134.24 179.252 134.72 177.972 135.12C176.772 135.52 175.532 135.8 174.252 135.96C173.852 136.04 173.412 136.04 172.932 135.96C172.692 135.96 172.452 135.96 172.212 135.96C171.972 135.96 171.732 136.04 171.492 136.2H170.772ZM223.217 135.36C222.577 135.6 221.857 135.52 221.057 135.12L218.657 134.04C218.257 133.88 217.937 133.52 217.697 132.96L217.337 132.24C217.177 131.84 216.977 131.56 216.737 131.4C216.337 131.08 216.057 130.52 215.897 129.72C215.737 128.92 215.617 128.12 215.537 127.32C215.457 126.52 215.377 125.72 215.297 124.92C215.217 124.28 215.177 123.64 215.177 123C215.177 122.36 215.177 121.76 215.177 121.2L215.297 120.36C215.457 119.96 215.537 119.56 215.537 119.16C215.537 118.76 215.537 118.4 215.537 118.08V96.24C215.697 95.12 215.777 94 215.777 92.88C215.777 91.68 215.777 90.52 215.777 89.4C215.857 88.28 215.897 87.2 215.897 86.16C215.897 85.04 215.817 83.96 215.657 82.92C215.577 82.52 215.537 82.08 215.537 81.6C215.537 81.12 215.537 80.64 215.537 80.16C215.537 79.44 215.537 78.72 215.537 78C215.537 77.28 215.457 76.56 215.297 75.84V75.48C215.297 74.36 215.217 73.28 215.057 72.24C214.977 71.12 214.897 70.04 214.817 69C214.737 68.36 214.657 67.76 214.577 67.2C214.497 66.64 214.377 66.08 214.217 65.52C214.137 65.2 214.097 64.88 214.097 64.56C214.097 64.24 214.097 63.92 214.097 63.6C214.097 63.04 214.177 62.52 214.337 62.04C214.497 61.48 214.657 60.96 214.817 60.48C214.897 60.32 215.097 60.08 215.417 59.76C215.577 59.6 215.737 59.48 215.897 59.4C216.057 59.32 216.177 59.24 216.257 59.16C216.737 58.52 217.377 58.24 218.177 58.32C218.337 58.4 218.577 58.36 218.897 58.2C219.297 57.88 219.657 57.84 219.977 58.08C220.217 58.24 220.617 58.24 221.177 58.08C221.417 58.08 221.617 58.16 221.777 58.32C222.017 58.64 222.337 58.88 222.737 59.04C223.137 59.2 223.417 59.44 223.577 59.76C223.817 60 224.057 60.24 224.297 60.48C224.457 60.72 224.617 60.96 224.777 61.2C225.017 61.36 225.137 61.6 225.137 61.92C225.217 62.24 225.217 62.56 225.137 62.88C225.137 63.12 225.137 63.4 225.137 63.72C225.137 64.44 225.177 65.2 225.257 66C225.417 66.72 225.537 67.44 225.617 68.16C225.777 68.96 225.897 69.8 225.977 70.68C226.057 71.48 226.137 72.32 226.217 73.2V74.4C226.377 74.96 226.457 75.52 226.457 76.08C226.457 76.64 226.497 77.2 226.577 77.76V77.88C226.657 78.84 226.737 79.8 226.817 80.76C226.897 81.72 226.977 82.68 227.057 83.64C227.137 84.04 227.177 84.48 227.177 84.96C227.177 85.36 227.177 85.76 227.177 86.16V118.08C227.177 118.8 227.217 119.52 227.297 120.24C227.457 120.96 227.577 121.64 227.657 122.28C227.657 122.68 227.897 122.88 228.377 122.88C229.097 123.04 229.777 123.04 230.417 122.88C231.297 122.72 232.137 122.64 232.937 122.64C233.817 122.64 234.697 122.64 235.577 122.64C236.457 122.64 237.297 122.64 238.097 122.64C238.977 122.56 239.817 122.48 240.617 122.4H241.937C242.577 122.48 243.137 122.56 243.617 122.64C244.177 122.64 244.737 122.64 245.297 122.64C246.177 122.64 247.057 122.68 247.937 122.76C248.897 122.76 249.817 122.8 250.697 122.88C251.337 122.96 251.977 123 252.617 123C253.337 123 254.057 123 254.777 123H255.377C256.977 122.92 258.417 123.32 259.697 124.2C260.257 124.44 260.657 124.84 260.897 125.4C261.057 125.72 261.177 126.04 261.257 126.36C261.417 126.6 261.537 126.92 261.617 127.32C261.697 127.64 261.737 127.96 261.737 128.28C261.817 128.52 261.897 128.8 261.977 129.12C262.217 129.84 262.137 130.64 261.737 131.52C261.657 131.76 261.577 132 261.497 132.24C261.417 132.48 261.297 132.72 261.137 132.96C260.977 133.2 260.777 133.4 260.537 133.56C260.537 133.56 260.377 133.64 260.057 133.8C259.417 134.36 258.697 134.72 257.897 134.88C257.177 135.04 256.377 135.2 255.497 135.36L254.297 135.24C253.097 134.84 251.897 134.6 250.697 134.52C250.377 134.44 250.017 134.4 249.617 134.4C249.217 134.32 248.817 134.28 248.417 134.28C247.857 134.28 247.297 134.28 246.737 134.28C246.177 134.2 245.577 134.12 244.937 134.04L243.737 133.92C243.017 134 242.297 134.04 241.577 134.04C240.857 133.96 240.137 133.96 239.417 134.04C239.097 134.04 238.777 134.04 238.457 134.04C238.137 133.96 237.817 133.92 237.497 133.92C236.857 133.92 236.217 133.92 235.577 133.92C235.017 133.92 234.417 134 233.777 134.16C233.457 134.24 233.057 134.32 232.577 134.4C232.177 134.4 231.777 134.4 231.377 134.4C230.177 134.48 228.977 134.6 227.777 134.76C226.577 134.84 225.417 135 224.297 135.24C224.057 135.32 223.697 135.36 223.217 135.36ZM289.57 134.88C289.41 134.8 289.17 134.76 288.85 134.76C288.69 134.76 288.53 134.64 288.37 134.4C288.21 134.16 288.05 133.96 287.89 133.8C287.73 133.56 287.57 133.28 287.41 132.96C287.17 132.64 286.97 132.64 286.81 132.96H286.57C286.57 132.88 286.53 132.84 286.45 132.84C286.45 132.76 286.45 132.72 286.45 132.72C286.21 131.6 285.85 130.56 285.37 129.6C285.13 128.96 284.89 128.32 284.65 127.68C284.49 126.96 284.37 126.24 284.29 125.52L283.57 120.24L283.21 115.92V115.68C283.05 114.72 282.97 113.76 282.97 112.8C282.97 111.76 282.97 110.72 282.97 109.68C282.89 109.12 282.85 108.6 282.85 108.12C282.85 107.56 282.81 107 282.73 106.44C282.65 105.8 282.57 105.16 282.49 104.52C282.49 103.88 282.49 103.28 282.49 102.72L282.61 93.24V80.4C282.45 79.92 282.21 79.68 281.89 79.68C281.73 79.68 281.53 79.72 281.29 79.8C281.13 79.8 280.97 79.8 280.81 79.8L275.41 81.24C274.69 81.48 273.97 81.72 273.25 81.96C272.53 82.12 271.81 82.32 271.09 82.56C270.53 82.64 269.97 82.72 269.41 82.8C268.93 82.8 268.41 82.8 267.85 82.8C267.45 82.8 267.01 82.64 266.53 82.32C265.97 82.08 265.49 81.76 265.09 81.36C264.69 80.96 264.29 80.52 263.89 80.04L263.65 79.68C263.49 79.12 263.33 78.6 263.17 78.12C263.09 77.56 263.09 77 263.17 76.44C263.25 75.72 263.41 75.04 263.65 74.4C263.97 73.76 264.41 73.2 264.97 72.72C265.21 72.56 265.41 72.36 265.57 72.12C265.81 71.88 266.05 71.64 266.29 71.4C266.61 71.24 266.81 71.16 266.89 71.16C267.37 71.16 267.81 71.08 268.21 70.92C268.61 70.68 269.01 70.52 269.41 70.44C269.81 70.36 270.21 70.28 270.61 70.2C271.01 70.12 271.41 70.04 271.81 69.96C272.93 69.64 274.05 69.36 275.17 69.12C276.29 68.8 277.41 68.56 278.53 68.4L285.01 67.32C285.17 67.24 285.29 67.2 285.37 67.2C285.53 67.2 285.65 67.16 285.73 67.08C286.21 66.92 286.69 66.8 287.17 66.72C287.65 66.64 288.13 66.68 288.61 66.84C288.77 66.92 288.89 66.96 288.97 66.96C289.13 66.88 289.25 66.84 289.33 66.84C290.69 66.68 292.05 66.52 293.41 66.36C294.77 66.2 296.09 66 297.37 65.76C298.41 65.6 299.45 65.44 300.49 65.28C301.53 65.12 302.57 65 303.61 64.92C304.41 64.76 305.21 64.64 306.01 64.56C306.81 64.48 307.61 64.4 308.41 64.32C309.05 64.24 309.69 64.16 310.33 64.08C311.05 64 311.73 63.92 312.37 63.84C313.01 63.76 313.61 63.76 314.17 63.84C314.81 63.84 315.45 63.84 316.09 63.84C316.49 63.84 316.85 63.96 317.17 64.2C317.57 64.44 317.93 64.64 318.25 64.8C318.57 65.04 319.01 65.44 319.57 66C319.73 66.16 319.89 66.52 320.05 67.08C320.13 67.32 320.21 67.6 320.29 67.92C320.37 68.16 320.45 68.44 320.53 68.76C320.69 69.48 320.61 70.16 320.29 70.8L319.57 72.48C319.49 72.72 319.37 72.96 319.21 73.2C319.13 73.36 319.01 73.52 318.85 73.68C318.69 73.84 318.61 73.92 318.61 73.92C318.29 74.16 317.93 74.4 317.53 74.64C317.21 74.88 316.81 75.04 316.33 75.12L311.17 75.48C310.69 75.48 310.21 75.52 309.73 75.6C309.25 75.6 308.73 75.64 308.17 75.72H307.57C306.29 75.8 305.05 75.92 303.85 76.08C302.65 76.24 301.45 76.4 300.25 76.56L295.45 77.28C295.21 77.28 295.05 77.32 294.97 77.4C294.65 77.4 294.41 77.64 294.25 78.12V78.48C294.25 79.28 294.25 80.08 294.25 80.88C294.25 81.6 294.29 82.36 294.37 83.16C294.61 84.28 294.61 85.4 294.37 86.52C294.29 86.76 294.21 87 294.13 87.24C294.13 87.4 294.13 87.56 294.13 87.72C294.21 88.68 294.13 89.72 293.89 90.84C293.89 91.08 293.89 91.32 293.89 91.56C293.89 91.8 293.93 92.04 294.01 92.28C294.09 92.6 294.13 92.96 294.13 93.36C294.13 93.76 294.13 94.16 294.13 94.56V100.8C294.13 101.12 294.09 101.52 294.01 102C294.01 102.4 294.01 102.8 294.01 103.2C294.01 103.52 294.01 103.88 294.01 104.28C294.09 104.68 294.13 105.08 294.13 105.48C294.13 106.04 294.13 106.6 294.13 107.16C294.21 107.72 294.21 108.32 294.13 108.96V112.68C294.13 112.76 294.09 112.84 294.01 112.92C294.01 113 294.05 113.12 294.13 113.28C294.21 114 294.25 114.76 294.25 115.56C294.25 116.28 294.33 117 294.49 117.72C294.49 117.96 294.49 118.2 294.49 118.44C294.57 118.68 294.57 118.92 294.49 119.16C294.49 119.88 294.57 120.64 294.73 121.44C294.89 122.16 295.01 122.88 295.09 123.6C295.25 124.48 295.41 125.36 295.57 126.24C295.81 127.12 296.01 128 296.17 128.88L296.53 130.56C296.53 130.8 296.41 131 296.17 131.16C296.17 131.16 296.13 131.16 296.05 131.16C296.05 131.16 296.01 131.2 295.93 131.28C295.53 131.44 295.37 131.68 295.45 132V132.6C295.45 132.6 295.41 132.64 295.33 132.72C295.33 132.8 295.29 132.84 295.21 132.84C294.81 132.84 294.49 133 294.25 133.32C294.01 133.64 293.73 133.92 293.41 134.16C293.17 134.32 292.85 134.48 292.45 134.64C291.41 135.04 290.45 135.12 289.57 134.88Z" fill="black"/>
<path d="M58.7603 30.7222C57.6509 29.1506 56.5993 27.6714 55.6055 26.2847C54.6348 24.8748 53.7796 23.569 53.04 22.3672C52.3005 21.1423 51.7227 20.0213 51.3066 19.0044C50.8675 17.9875 50.6479 17.063 50.6479 16.231C50.6479 15.8149 50.8328 15.3643 51.2026 14.8789C51.5493 14.3704 51.9653 13.9082 52.4507 13.4922C52.936 13.0531 53.4329 12.6948 53.9414 12.4175C54.473 12.117 54.9121 11.9668 55.2588 11.9668C56.0908 11.9668 56.8073 12.4868 57.4082 13.5269C57.6624 14.0122 58.0438 14.7287 58.5522 15.6763C59.0838 16.6007 59.6963 17.6639 60.3896 18.8657C61.083 20.0444 61.8457 21.3156 62.6777 22.6792C63.5329 24.0197 64.3996 25.3602 65.2778 26.7007C66.1792 28.0412 67.069 29.3354 67.9473 30.5835C68.8486 31.8084 69.7038 32.8947 70.5127 33.8423C71.3447 34.7899 72.1074 35.5526 72.8008 36.1304C73.5173 36.6851 74.1297 36.9624 74.6382 36.9624C75.3084 36.9624 75.9209 36.5002 76.4756 35.5757C77.0303 34.6512 77.5387 33.4378 78.001 31.9355C78.4863 30.4333 78.9139 28.7345 79.2837 26.8394C79.6535 24.9211 79.9771 22.9797 80.2544 21.0151C80.5549 19.0506 80.8091 17.1554 81.0171 15.3296C81.2251 13.4806 81.3984 11.8628 81.5371 10.4761C81.6064 9.73649 81.8145 9.1818 82.1611 8.81201C82.5078 8.41911 82.9585 8.22266 83.5132 8.22266C83.9985 8.22266 84.5301 8.32666 85.1079 8.53467C85.6857 8.74268 86.2288 9.03158 86.7373 9.40137C87.2458 9.74805 87.6618 10.1641 87.9854 10.6494C88.332 11.1117 88.5054 11.6201 88.5054 12.1748C88.5054 13.0299 88.4245 14.0353 88.2627 15.1909C88.124 16.3465 87.9391 17.5715 87.708 18.8657C87.5 20.1369 87.2573 21.4427 86.98 22.7832C86.7026 24.1006 86.4253 25.3486 86.1479 26.5273C85.9631 27.3594 85.7088 28.3994 85.3853 29.6475C85.0848 30.8724 84.7035 32.1782 84.2412 33.5649C83.779 34.9285 83.2358 36.3037 82.6118 37.6904C81.9878 39.054 81.2713 40.2905 80.4624 41.3999C79.6535 42.4862 78.7406 43.3644 77.7236 44.0347C76.7298 44.728 75.6089 45.0747 74.3608 45.0747C73.4595 45.0747 72.5234 44.8205 71.5527 44.312C70.582 43.8267 69.6113 43.1795 68.6406 42.3706C67.6699 41.5617 66.7108 40.6488 65.7632 39.6318C64.8156 38.5918 63.9142 37.5402 63.0591 36.4771C62.2039 35.4139 61.4066 34.3854 60.667 33.3916C59.9274 32.3747 59.2918 31.4849 58.7603 30.7222ZM116.17 13.7002C117.442 13.7002 118.667 13.8966 119.845 14.2896C121.024 14.6825 122.064 15.2256 122.965 15.9189C123.867 16.6123 124.583 17.4443 125.115 18.415C125.669 19.3857 125.947 20.4604 125.947 21.6392C125.947 22.1245 125.831 22.5983 125.6 23.0605C125.392 23.4997 125.103 23.8926 124.733 24.2393C124.364 24.5628 123.936 24.8286 123.451 25.0366C122.988 25.2215 122.503 25.314 121.995 25.314C121.948 25.314 121.902 25.3255 121.856 25.3486C121.833 25.3486 121.798 25.3486 121.752 25.3486C121.706 25.3717 121.66 25.3833 121.613 25.3833L121.752 28.1567C121.844 31.4618 122.307 33.877 123.139 35.4023C123.994 36.9277 125.103 37.6904 126.467 37.6904C126.952 37.6904 127.38 37.6442 127.75 37.5518C128.142 37.4593 128.501 37.3553 128.824 37.2397C129.171 37.1011 129.494 36.9855 129.795 36.8931C130.095 36.8006 130.396 36.7544 130.696 36.7544C131.228 36.7544 131.69 36.9855 132.083 37.4478C132.499 37.91 132.707 38.4647 132.707 39.1118C132.707 39.759 132.453 40.4061 131.944 41.0532C131.459 41.7004 130.812 42.2897 130.003 42.8213C129.194 43.3298 128.281 43.7458 127.264 44.0693C126.247 44.3929 125.219 44.5547 124.179 44.5547C122.376 44.5547 120.793 43.8151 119.429 42.3359C118.066 40.8337 117.095 38.638 116.517 35.749C116.378 35.2868 116.194 35.0557 115.962 35.0557C115.685 35.0557 115.442 35.1943 115.234 35.4717C112.946 38.3607 110.508 40.5332 107.919 41.9893C105.331 43.4222 102.777 44.1387 100.258 44.1387C99.0791 44.1387 98.016 43.9653 97.0684 43.6187C96.1208 43.272 95.3118 42.7866 94.6416 42.1626C93.9945 41.5155 93.486 40.7412 93.1162 39.8398C92.7695 38.9154 92.5962 37.8869 92.5962 36.7544C92.5962 35.1597 92.9429 33.484 93.6362 31.7275C94.3527 29.971 95.3118 28.2376 96.5137 26.5273C97.7155 24.8171 99.1022 23.1877 100.674 21.6392C102.269 20.0907 103.933 18.7271 105.666 17.5483C107.423 16.3696 109.202 15.4336 111.005 14.7402C112.808 14.0469 114.529 13.7002 116.17 13.7002ZM115.026 25.6953C115.442 24.9095 115.824 24.3433 116.17 23.9966C116.517 23.6268 117.014 23.3841 117.661 23.2686C118.17 23.1992 118.424 23.0374 118.424 22.7832C118.424 22.5983 118.354 22.4019 118.216 22.1938C117.777 21.5929 117.314 21.0729 116.829 20.6338C116.344 20.1715 115.697 19.9404 114.888 19.9404C114.009 19.9404 113.027 20.1947 111.941 20.7031C110.855 21.2116 109.745 21.8934 108.613 22.7485C107.503 23.5806 106.406 24.5397 105.319 25.626C104.256 26.6891 103.309 27.7869 102.477 28.9194C101.645 30.0519 100.974 31.1729 100.466 32.2822C99.9574 33.3916 99.7031 34.3854 99.7031 35.2637C99.7031 36.0495 99.9111 36.6619 100.327 37.1011C100.766 37.5402 101.356 37.7598 102.095 37.7598C103.99 37.7598 106.059 36.7544 108.301 34.7437C110.543 32.7329 112.785 29.7168 115.026 25.6953ZM152.641 18.0684C151.786 18.0684 151.035 18.2995 150.388 18.7617C149.741 19.2008 149.186 19.8249 148.724 20.6338C148.261 21.4196 147.88 22.3556 147.58 23.4419C147.279 24.505 147.036 25.6722 146.852 26.9434C146.667 28.2145 146.54 29.5435 146.47 30.9302C146.401 32.3169 146.366 33.7152 146.366 35.125C146.366 36.974 146.436 38.7998 146.574 40.6025C146.736 42.3822 146.817 44.0347 146.817 45.5601C146.817 46.5539 146.447 47.3281 145.708 47.8828C144.968 48.4606 143.916 48.7495 142.553 48.7495C142.299 48.7495 142.01 48.7264 141.686 48.6802C141.362 48.634 141.05 48.5415 140.75 48.4028C140.473 48.2642 140.218 48.0677 139.987 47.8135C139.779 47.5824 139.664 47.2588 139.641 46.8428C139.433 44.8089 139.132 42.7288 138.739 40.6025C138.346 38.4762 137.849 36.3615 137.249 34.2583C136.671 32.132 135.966 30.0288 135.134 27.9487C134.325 25.8687 133.389 23.8348 132.326 21.8472C132.141 21.5005 131.979 21.1769 131.84 20.8765C131.725 20.576 131.667 20.2871 131.667 20.0098C131.667 19.6631 131.817 19.2933 132.118 18.9004C132.441 18.4844 132.834 18.103 133.296 17.7563C133.782 17.4097 134.302 17.1323 134.856 16.9243C135.434 16.6932 135.989 16.5776 136.521 16.5776C137.399 16.5776 138.173 17.1901 138.843 18.415C139.514 19.6169 140.138 21.5467 140.715 24.2046C140.831 24.6668 140.923 24.9904 140.993 25.1753C141.062 25.3602 141.154 25.4526 141.27 25.4526C141.524 25.4526 141.686 25.0597 141.755 24.2739C142.033 22.0783 142.507 20.1947 143.177 18.623C143.847 17.0283 144.679 15.7225 145.673 14.7056C146.69 13.6655 147.845 12.9028 149.14 12.4175C150.457 11.9321 151.902 11.6895 153.473 11.6895C154.375 11.6895 155.287 11.7703 156.212 11.9321C157.136 12.0939 157.968 12.3366 158.708 12.6602C159.448 12.9837 160.049 13.3766 160.511 13.8389C160.973 14.3011 161.204 14.8211 161.204 15.3989C161.204 15.8149 161.112 16.3118 160.927 16.8896C160.765 17.4443 160.545 17.9875 160.268 18.519C159.991 19.0275 159.667 19.4666 159.297 19.8364C158.951 20.1831 158.592 20.3564 158.223 20.3564C157.807 20.3564 157.402 20.2409 157.009 20.0098C156.616 19.7555 156.189 19.4897 155.727 19.2124C155.287 18.9351 154.814 18.6808 154.305 18.4497C153.82 18.1955 153.265 18.0684 152.641 18.0684ZM164.22 8.63867C163.55 8.63867 162.914 8.54622 162.313 8.36133C161.736 8.15332 161.227 7.87598 160.788 7.5293C160.372 7.15951 160.037 6.73193 159.783 6.24658C159.528 5.76123 159.401 5.22965 159.401 4.65186C159.401 3.68115 159.783 2.89535 160.545 2.29443C161.331 1.69352 162.371 1.39307 163.666 1.39307C164.266 1.39307 164.844 1.50863 165.399 1.73975C165.954 1.94775 166.439 2.23665 166.855 2.60645C167.294 2.97624 167.641 3.41536 167.895 3.92383C168.149 4.40918 168.276 4.91764 168.276 5.44922C168.276 6.44303 167.907 7.22884 167.167 7.80664C166.451 8.36133 165.468 8.63867 164.22 8.63867ZM159.471 19.2124C159.471 18.4035 159.817 17.7448 160.511 17.2363C161.227 16.7048 162.163 16.439 163.319 16.439C165.399 16.439 166.508 17.1554 166.647 18.5884C166.739 19.5822 166.832 20.7031 166.924 21.9512C167.04 23.1992 167.144 24.5282 167.236 25.938C167.352 27.3247 167.444 28.7692 167.514 30.2715C167.606 31.7507 167.687 33.2183 167.756 34.6743C167.826 36.1073 167.883 37.494 167.93 38.8345C167.976 40.175 167.999 41.3999 167.999 42.5093C167.999 43.6649 167.583 44.5316 166.751 45.1094C165.942 45.6872 164.752 45.9761 163.18 45.9761C162.464 45.9761 161.897 45.8027 161.481 45.4561C161.089 45.1325 160.892 44.6471 160.892 44C160.892 40.8105 160.811 37.8291 160.649 35.0557C160.511 32.2591 160.349 29.7746 160.164 27.6021C160.002 25.4295 159.84 23.6268 159.679 22.1938C159.54 20.7378 159.471 19.744 159.471 19.2124ZM203.915 36.4077C204.585 35.8299 205.244 35.541 205.891 35.541C206.261 35.541 206.596 35.6335 206.896 35.8184C207.197 36.0033 207.532 36.2922 207.902 36.6851C208.249 37.2166 208.491 37.6558 208.63 38.0024C208.792 38.326 208.873 38.6496 208.873 38.9731C208.873 39.6665 208.526 40.3252 207.833 40.9492C206.723 41.8737 205.521 42.7057 204.227 43.4453C202.933 44.1618 201.581 44.7743 200.171 45.2827C198.761 45.7912 197.305 46.1725 195.803 46.4268C194.3 46.7041 192.81 46.8428 191.331 46.8428C189.458 46.8428 187.702 46.6001 186.061 46.1147C184.42 45.6525 182.952 44.9823 181.658 44.104C180.387 43.2257 179.312 42.1742 178.434 40.9492C177.556 39.7012 176.932 38.3029 176.562 36.7544C176.354 36.1073 176.158 35.6912 175.973 35.5063C175.811 35.2983 175.534 35.1943 175.141 35.1943C174.285 35.1943 173.627 34.9863 173.165 34.5703C172.702 34.1543 172.471 33.5534 172.471 32.7676C172.471 32.444 172.494 32.236 172.541 32.1436L172.61 31.4502C172.725 30.6182 172.945 30.0173 173.269 29.6475C173.615 29.2777 174.147 29.0928 174.863 29.0928H175.383C176.354 29.0928 177.036 28.6421 177.429 27.7407C178.145 26.146 179.058 24.6899 180.167 23.3726C181.277 22.0552 182.525 20.9342 183.912 20.0098C185.298 19.0622 186.778 18.3341 188.349 17.8257C189.944 17.2941 191.562 17.0283 193.203 17.0283C194.913 17.0283 196.508 17.2826 197.987 17.791C199.489 18.2764 200.795 18.9582 201.904 19.8364C203.014 20.7147 203.88 21.7432 204.504 22.9219C205.152 24.1006 205.475 25.3717 205.475 26.7354C205.475 27.6829 205.29 28.5496 204.92 29.3354C204.551 30.1213 204.019 30.8146 203.326 31.4155C202.632 31.9933 201.789 32.4671 200.795 32.8369C199.824 33.2067 198.715 33.4494 197.467 33.5649L185.437 34.7783C184.975 34.7783 184.593 34.8939 184.293 35.125C184.016 35.3561 183.877 35.6681 183.877 36.061C183.877 36.6619 184.097 37.2397 184.536 37.7944C184.998 38.3491 185.599 38.846 186.338 39.2852C187.101 39.7012 187.968 40.0363 188.938 40.2905C189.932 40.5448 190.949 40.6719 191.989 40.6719C192.983 40.6719 194 40.5794 195.04 40.3945C196.103 40.1865 197.143 39.8976 198.16 39.5278C199.2 39.158 200.206 38.7189 201.176 38.2104C202.147 37.6789 203.06 37.078 203.915 36.4077ZM196.184 27.4634C196.531 27.394 196.831 27.2323 197.085 26.978C197.34 26.7007 197.467 26.3656 197.467 25.9727C197.467 25.626 197.34 25.3024 197.085 25.002C196.831 24.7015 196.485 24.4357 196.045 24.2046C195.606 23.9504 195.098 23.7539 194.52 23.6152C193.942 23.4766 193.33 23.4072 192.683 23.4072C191.735 23.4072 190.764 23.5459 189.771 23.8232C188.777 24.1006 187.875 24.4704 187.066 24.9326C186.257 25.3717 185.599 25.8687 185.09 26.4233C184.582 26.9549 184.328 27.4865 184.328 28.0181C184.328 28.5496 184.651 28.8154 185.298 28.8154C185.691 28.8154 186.327 28.7692 187.205 28.6768C188.083 28.5843 189.054 28.4803 190.117 28.3647C191.18 28.2261 192.255 28.0758 193.341 27.9141C194.428 27.7523 195.375 27.6021 196.184 27.4634ZM214.315 3.9585C214.315 2.73356 214.662 1.87842 215.355 1.39307C216.049 0.884603 217.193 0.630371 218.788 0.630371C219.365 0.630371 219.851 0.688151 220.244 0.803711C220.66 0.896159 221.006 1.08105 221.284 1.3584C221.584 1.63574 221.815 2.00553 221.977 2.46777C222.162 2.9069 222.312 3.47314 222.428 4.1665C222.705 6.31592 223.006 8.53467 223.329 10.8228C223.676 13.1108 224.034 15.4105 224.404 17.7217C224.542 18.7617 225.086 19.2817 226.033 19.2817C226.287 19.2817 226.703 19.2586 227.281 19.2124C227.882 19.1431 228.587 19.0737 229.396 19.0044C230.205 18.9119 231.072 18.8195 231.996 18.7271C232.944 18.6346 233.88 18.5537 234.804 18.4844C235.752 18.3919 236.642 18.3226 237.474 18.2764C238.329 18.207 239.08 18.1724 239.727 18.1724C240.236 18.1724 240.64 18.2764 240.94 18.4844C241.241 18.6693 241.472 18.9235 241.634 19.2471C241.819 19.5475 241.934 19.8942 241.98 20.2871C242.05 20.6569 242.084 21.0382 242.084 21.4312C242.084 21.7778 242.015 22.1361 241.876 22.5059C241.761 22.8757 241.588 23.2108 241.356 23.5112C241.148 23.7886 240.883 24.0197 240.559 24.2046C240.236 24.3895 239.866 24.4819 239.45 24.4819C237.439 24.4819 235.405 24.5513 233.348 24.6899C231.314 24.8055 229.28 24.9673 227.247 25.1753C226.207 25.314 225.687 25.834 225.687 26.7354C225.687 26.8047 225.698 26.8971 225.721 27.0127C225.744 27.1051 225.756 27.186 225.756 27.2554C226.033 29.2661 226.287 31.1497 226.519 32.9062C226.773 34.6628 226.981 36.2344 227.143 37.6211C227.327 38.9847 227.466 40.1287 227.559 41.0532C227.674 41.9546 227.732 42.5555 227.732 42.856C227.732 43.688 227.651 44.3813 227.489 44.936C227.327 45.5138 227.062 45.9761 226.692 46.3228C226.322 46.6925 225.825 46.9468 225.201 47.0854C224.6 47.2472 223.838 47.3281 222.913 47.3281C222.035 47.3281 221.388 47.1201 220.972 46.7041C220.556 46.2881 220.325 45.6525 220.278 44.7974C220.14 42.0701 219.92 39.3314 219.62 36.5811C219.319 33.8076 218.972 31.0457 218.58 28.2954C218.372 27.3016 217.852 26.8047 217.02 26.8047C216.95 26.8047 216.869 26.8162 216.777 26.8394C216.684 26.8625 216.604 26.874 216.534 26.874C215.101 27.1976 213.749 27.5212 212.478 27.8447C211.207 28.1683 210.017 28.515 208.907 28.8848C208.283 29.0928 207.729 29.243 207.243 29.3354C206.758 29.4048 206.319 29.4395 205.926 29.4395C205.394 29.4395 205.001 29.2083 204.747 28.7461C204.493 28.2607 204.366 27.6598 204.366 26.9434C204.366 26.6891 204.389 26.4002 204.435 26.0767C204.481 25.73 204.574 25.3949 204.712 25.0713C204.828 24.7246 205.013 24.4126 205.267 24.1353C205.498 23.8348 205.822 23.5921 206.238 23.4072C207.208 23.0143 208.503 22.6099 210.121 22.1938C211.738 21.7547 213.564 21.3503 215.598 20.9805C216.06 20.8649 216.419 20.68 216.673 20.4258C216.95 20.1484 217.089 19.744 217.089 19.2124C217.089 19.0968 217.089 18.9813 217.089 18.8657C217.089 18.7271 217.066 18.5884 217.02 18.4497C216.65 16.3234 216.292 14.3936 215.945 12.6602C215.621 10.9036 215.332 9.40137 215.078 8.15332C214.847 6.90527 214.662 5.92301 214.523 5.20654C214.385 4.49007 214.315 4.07406 214.315 3.9585ZM254.53 44.936C253.144 44.936 251.757 44.6009 250.37 43.9307C248.983 43.2373 247.654 42.3013 246.383 41.1226C245.112 39.9438 243.933 38.5571 242.847 36.9624C241.761 35.3446 240.813 33.6112 240.004 31.7622C239.195 29.8901 238.56 27.9372 238.098 25.9033C237.635 23.8695 237.404 21.8356 237.404 19.8018C237.404 18.2301 237.728 17.1092 238.375 16.439C239.022 15.7456 240.074 15.3989 241.53 15.3989C243.356 15.3989 244.373 16.1501 244.581 17.6523C244.997 20.8418 245.574 23.7192 246.314 26.2847C247.054 28.8501 247.92 31.0342 248.914 32.8369C249.931 34.6396 251.052 36.0264 252.277 36.9971C253.525 37.9678 254.842 38.4531 256.229 38.4531C257.223 38.4531 258.159 38.2104 259.037 37.7251C259.915 37.2166 260.678 36.5117 261.325 35.6104C261.556 35.2637 261.707 34.9285 261.776 34.605C261.868 34.2814 261.938 33.9116 261.984 33.4956C262.099 31.8547 262.227 30.2484 262.365 28.6768C262.527 27.082 262.677 25.4873 262.816 23.8926C262.862 23.1992 262.955 22.633 263.093 22.1938C263.232 21.7547 263.44 21.408 263.717 21.1538C263.995 20.8996 264.353 20.7262 264.792 20.6338C265.254 20.5413 265.832 20.4951 266.525 20.4951C267.311 20.4951 267.981 20.6107 268.536 20.8418C269.091 21.0498 269.542 21.408 269.888 21.9165C270.235 22.4019 270.478 23.049 270.616 23.8579C270.778 24.6437 270.859 25.626 270.859 26.8047C270.859 27.8216 270.778 28.7114 270.616 29.4741C270.478 30.2137 270.304 30.9186 270.096 31.5889C269.911 32.236 269.726 32.8831 269.542 33.5303C269.38 34.1543 269.276 34.8477 269.229 35.6104C269.114 37.5286 269.01 39.1927 268.917 40.6025C268.825 41.9893 268.744 43.1795 268.675 44.1733C268.629 45.1672 268.582 46.0223 268.536 46.7388C268.513 47.4552 268.49 48.0908 268.467 48.6455C268.444 49.2233 268.432 49.7664 268.432 50.2749C268.432 50.7834 268.432 51.3381 268.432 51.939C268.432 53.0252 268.478 54.2039 268.571 55.4751C268.663 56.7694 268.756 58.0059 268.848 59.1846C268.964 60.3633 269.068 61.4033 269.16 62.3047C269.253 63.2061 269.299 63.8301 269.299 64.1768C269.299 64.6159 269.16 65.0319 268.883 65.4248C268.605 65.8177 268.236 66.1644 267.773 66.4648C267.311 66.7653 266.768 66.9964 266.144 67.1582C265.52 67.3431 264.861 67.4355 264.168 67.4355C263.567 67.4355 263.082 67.2275 262.712 66.8115C262.365 66.4186 262.169 65.887 262.123 65.2168C262.053 64.3385 261.995 63.2638 261.949 61.9927C261.903 60.7446 261.857 59.4041 261.811 57.9712C261.764 56.5614 261.73 55.1169 261.707 53.6377C261.707 52.1816 261.695 50.818 261.672 49.5469C261.649 48.2988 261.637 47.201 261.637 46.2534C261.637 45.3058 261.637 44.624 261.637 44.208C261.637 43.792 261.591 43.5031 261.499 43.3413C261.406 43.1564 261.233 43.064 260.979 43.064C260.84 43.064 260.655 43.1102 260.424 43.2026C260.193 43.272 259.927 43.3991 259.626 43.584C258.818 44.0693 257.997 44.416 257.165 44.624C256.333 44.832 255.455 44.936 254.53 44.936Z" fill="black"/>
</svg>
