<svg width="179" height="63" viewBox="0 0 179 63" fill="none" xmlns="http://www.w3.org/2000/svg">
<path d="M25.1042 43.0282L19.9687 37.5386L21.6604 35.7302L25.1042 39.4115L31.9312 32.1136L33.6229 33.9219L25.1042 43.0282ZM31.75 30.2084H29.3333V23.75H26.9167V27.625H14.8333V23.75H12.4167V41.8334H19.6667V44.4167H12.4167C11.7521 44.4167 11.1834 44.164 10.7105 43.6585C10.2376 43.153 10.0008 42.5447 10 41.8334V23.75C10 23.0396 10.2368 22.4317 10.7105 21.9262C11.1842 21.4207 11.7529 21.1676 12.4167 21.1667H17.4615C17.683 20.4132 18.116 19.7945 18.7604 19.3106C19.4049 18.8266 20.1097 18.5842 20.875 18.5834C21.6806 18.5834 22.4007 18.8258 23.0355 19.3106C23.6703 19.7954 24.098 20.4141 24.3187 21.1667H29.3333C29.9979 21.1667 30.567 21.4199 31.0407 21.9262C31.5144 22.4325 31.7508 23.0405 31.75 23.75V30.2084ZM20.875 23.75C21.2174 23.75 21.5045 23.626 21.7365 23.378C21.9685 23.13 22.0841 22.8235 22.0833 22.4584C22.0833 22.0924 21.9673 21.7858 21.7353 21.5387C21.5033 21.2916 21.2166 21.1676 20.875 21.1667C20.5326 21.1667 20.2459 21.2907 20.0147 21.5387C19.7835 21.7867 19.6675 22.0933 19.6667 22.4584C19.6667 22.8243 19.7827 23.1313 20.0147 23.3793C20.2467 23.6273 20.5334 23.7509 20.875 23.75Z" fill="#F7F5E6"/>
<path d="M52.8516 23.6338C52.5704 23.2354 52.3038 22.8604 52.0518 22.5088C51.8057 22.1514 51.5889 21.8203 51.4014 21.5156C51.2139 21.2051 51.0675 20.9209 50.962 20.6631C50.8507 20.4053 50.795 20.1709 50.795 19.96C50.795 19.8545 50.8419 19.7402 50.9356 19.6172C51.0235 19.4883 51.129 19.3711 51.252 19.2656C51.3751 19.1543 51.5011 19.0635 51.63 18.9932C51.7647 18.917 51.8761 18.8789 51.9639 18.8789C52.1749 18.8789 52.3565 19.0107 52.5089 19.2744C52.5733 19.3975 52.67 19.5791 52.7989 19.8193C52.9337 20.0537 53.0889 20.3232 53.2647 20.6279C53.4405 20.9268 53.6339 21.249 53.8448 21.5947C54.0616 21.9346 54.2813 22.2744 54.504 22.6143C54.7325 22.9541 54.9581 23.2822 55.1807 23.5986C55.4093 23.9092 55.6261 24.1846 55.8311 24.4248C56.0421 24.665 56.2354 24.8584 56.4112 25.0049C56.5929 25.1455 56.7481 25.2158 56.877 25.2158C57.047 25.2158 57.2022 25.0986 57.3429 24.8643C57.4835 24.6299 57.6124 24.3223 57.7296 23.9414C57.8526 23.5605 57.961 23.1299 58.0548 22.6494C58.1485 22.1631 58.2305 21.6709 58.3009 21.1729C58.377 20.6748 58.4415 20.1943 58.4942 19.7314C58.547 19.2627 58.5909 18.8525 58.6261 18.501C58.6436 18.3135 58.6964 18.1729 58.7843 18.0791C58.8721 17.9795 58.9864 17.9297 59.127 17.9297C59.2501 17.9297 59.3848 17.9561 59.5313 18.0088C59.6778 18.0615 59.8155 18.1348 59.9444 18.2285C60.0733 18.3164 60.1788 18.4219 60.2608 18.5449C60.3487 18.6621 60.3927 18.791 60.3927 18.9316C60.3927 19.1484 60.3721 19.4033 60.3311 19.6963C60.296 19.9893 60.2491 20.2998 60.1905 20.6279C60.1378 20.9502 60.0763 21.2812 60.0059 21.6211C59.9356 21.9551 59.8653 22.2715 59.795 22.5703C59.7481 22.7812 59.6837 23.0449 59.6016 23.3613C59.5255 23.6719 59.4288 24.0029 59.3116 24.3545C59.1944 24.7002 59.0567 25.0488 58.8985 25.4004C58.7403 25.7461 58.5587 26.0596 58.3536 26.3408C58.1485 26.6162 57.9171 26.8389 57.6593 27.0088C57.4073 27.1846 57.1231 27.2725 56.8067 27.2725C56.5782 27.2725 56.3409 27.208 56.0948 27.0791C55.8487 26.9561 55.6026 26.792 55.3565 26.5869C55.1104 26.3818 54.8673 26.1504 54.627 25.8926C54.3868 25.6289 54.1583 25.3623 53.9415 25.0928C53.7247 24.8232 53.5225 24.5625 53.335 24.3105C53.1475 24.0527 52.9864 23.8271 52.8516 23.6338ZM67.7663 19.3184C68.0886 19.3184 68.3991 19.3682 68.698 19.4678C68.9968 19.5674 69.2605 19.7051 69.489 19.8809C69.7175 20.0566 69.8991 20.2676 70.0339 20.5137C70.1745 20.7598 70.2448 21.0322 70.2448 21.3311C70.2448 21.4541 70.2155 21.5742 70.157 21.6914C70.1042 21.8027 70.031 21.9023 69.9372 21.9902C69.8435 22.0723 69.7351 22.1396 69.612 22.1924C69.4948 22.2393 69.3718 22.2627 69.2429 22.2627C69.2312 22.2627 69.2195 22.2656 69.2077 22.2715C69.2019 22.2715 69.1931 22.2715 69.1814 22.2715C69.1696 22.2773 69.1579 22.2803 69.1462 22.2803L69.1814 22.9834C69.2048 23.8213 69.322 24.4336 69.5329 24.8203C69.7497 25.207 70.031 25.4004 70.3767 25.4004C70.4997 25.4004 70.6081 25.3887 70.7019 25.3652C70.8015 25.3418 70.8923 25.3154 70.9743 25.2861C71.0622 25.251 71.1443 25.2217 71.2204 25.1982C71.2966 25.1748 71.3728 25.1631 71.4489 25.1631C71.5837 25.1631 71.7009 25.2217 71.8005 25.3389C71.906 25.4561 71.9587 25.5967 71.9587 25.7607C71.9587 25.9248 71.8943 26.0889 71.7654 26.2529C71.6423 26.417 71.4782 26.5664 71.2732 26.7012C71.0681 26.8301 70.8366 26.9355 70.5788 27.0176C70.321 27.0996 70.0603 27.1406 69.7966 27.1406C69.3396 27.1406 68.9382 26.9531 68.5925 26.5781C68.2468 26.1973 68.0007 25.6406 67.8542 24.9082C67.8191 24.791 67.7722 24.7324 67.7136 24.7324C67.6433 24.7324 67.5818 24.7676 67.529 24.8379C66.9489 25.5703 66.3308 26.1211 65.6745 26.4902C65.0183 26.8535 64.3708 27.0352 63.7321 27.0352C63.4333 27.0352 63.1638 26.9912 62.9236 26.9033C62.6833 26.8154 62.4782 26.6924 62.3083 26.5342C62.1443 26.3701 62.0154 26.1738 61.9216 25.9453C61.8337 25.7109 61.7898 25.4502 61.7898 25.1631C61.7898 24.7588 61.8777 24.334 62.0534 23.8887C62.2351 23.4434 62.4782 23.0039 62.7829 22.5703C63.0876 22.1367 63.4392 21.7236 63.8376 21.3311C64.2419 20.9385 64.6638 20.5928 65.1032 20.2939C65.5486 19.9951 65.9997 19.7578 66.4568 19.582C66.9138 19.4062 67.3503 19.3184 67.7663 19.3184ZM67.4763 22.3594C67.5818 22.1602 67.6784 22.0166 67.7663 21.9287C67.8542 21.835 67.9802 21.7734 68.1443 21.7441C68.2732 21.7266 68.3376 21.6855 68.3376 21.6211C68.3376 21.5742 68.32 21.5244 68.2849 21.4717C68.1736 21.3193 68.0564 21.1875 67.9333 21.0762C67.8103 20.959 67.6462 20.9004 67.4411 20.9004C67.2185 20.9004 66.9695 20.9648 66.6941 21.0938C66.4187 21.2227 66.1374 21.3955 65.8503 21.6123C65.5691 21.8232 65.2907 22.0664 65.0154 22.3418C64.7458 22.6113 64.5056 22.8896 64.2946 23.1768C64.0837 23.4639 63.9138 23.748 63.7849 24.0293C63.656 24.3105 63.5915 24.5625 63.5915 24.7852C63.5915 24.9844 63.6443 25.1396 63.7497 25.251C63.8611 25.3623 64.0105 25.418 64.198 25.418C64.6784 25.418 65.2029 25.1631 65.7712 24.6533C66.3396 24.1436 66.9079 23.3789 67.4763 22.3594ZM77.3724 20.4258C77.1556 20.4258 76.9652 20.4844 76.8011 20.6016C76.6371 20.7129 76.4964 20.8711 76.3793 21.0762C76.2621 21.2754 76.1654 21.5127 76.0892 21.7881C76.013 22.0576 75.9515 22.3535 75.9046 22.6758C75.8578 22.998 75.8255 23.335 75.808 23.6865C75.7904 24.0381 75.7816 24.3926 75.7816 24.75C75.7816 25.2188 75.7992 25.6816 75.8343 26.1387C75.8754 26.5898 75.8959 27.0088 75.8959 27.3955C75.8959 27.6475 75.8021 27.8438 75.6146 27.9844C75.4271 28.1309 75.1605 28.2041 74.8148 28.2041C74.7504 28.2041 74.6771 28.1982 74.5951 28.1865C74.513 28.1748 74.4339 28.1514 74.3578 28.1162C74.2875 28.0811 74.223 28.0312 74.1644 27.9668C74.1117 27.9082 74.0824 27.8262 74.0765 27.7207C74.0238 27.2051 73.9476 26.6777 73.848 26.1387C73.7484 25.5996 73.6224 25.0635 73.4701 24.5303C73.3236 23.9912 73.1449 23.458 72.9339 22.9307C72.7289 22.4033 72.4916 21.8877 72.222 21.3838C72.1752 21.2959 72.1341 21.2139 72.099 21.1377C72.0697 21.0615 72.055 20.9883 72.055 20.918C72.055 20.8301 72.0931 20.7363 72.1693 20.6367C72.2513 20.5312 72.3509 20.4346 72.4681 20.3467C72.5912 20.2588 72.723 20.1885 72.8636 20.1357C73.0101 20.0771 73.1507 20.0479 73.2855 20.0479C73.5082 20.0479 73.7045 20.2031 73.8744 20.5137C74.0443 20.8184 74.2025 21.3076 74.349 21.9814C74.3783 22.0986 74.4017 22.1807 74.4193 22.2275C74.4369 22.2744 74.4603 22.2979 74.4896 22.2979C74.5541 22.2979 74.5951 22.1982 74.6127 21.999C74.683 21.4424 74.8031 20.9648 74.973 20.5664C75.1429 20.1621 75.3539 19.8311 75.6058 19.5732C75.8636 19.3096 76.1566 19.1162 76.4847 18.9932C76.8187 18.8701 77.1849 18.8086 77.5834 18.8086C77.8119 18.8086 78.0433 18.8291 78.2777 18.8701C78.5121 18.9111 78.723 18.9727 78.9105 19.0547C79.098 19.1367 79.2504 19.2363 79.3675 19.3535C79.4847 19.4707 79.5433 19.6025 79.5433 19.749C79.5433 19.8545 79.5199 19.9805 79.473 20.127C79.432 20.2676 79.3763 20.4053 79.306 20.54C79.2357 20.6689 79.1537 20.7803 79.0599 20.874C78.972 20.9619 78.8812 21.0059 78.7875 21.0059C78.682 21.0059 78.5795 20.9766 78.4798 20.918C78.3802 20.8535 78.2718 20.7861 78.1546 20.7158C78.0433 20.6455 77.9232 20.5811 77.7943 20.5225C77.6712 20.458 77.5306 20.4258 77.3724 20.4258ZM80.668 18.0352C80.498 18.0352 80.3369 18.0117 80.1846 17.9648C80.0381 17.9121 79.9092 17.8418 79.7979 17.7539C79.6924 17.6602 79.6074 17.5518 79.543 17.4287C79.4785 17.3057 79.4463 17.1709 79.4463 17.0244C79.4463 16.7783 79.543 16.5791 79.7363 16.4268C79.9355 16.2744 80.1992 16.1982 80.5273 16.1982C80.6797 16.1982 80.8262 16.2275 80.9668 16.2861C81.1074 16.3389 81.2305 16.4121 81.3359 16.5059C81.4473 16.5996 81.5352 16.7109 81.5996 16.8398C81.6641 16.9629 81.6963 17.0918 81.6963 17.2266C81.6963 17.4785 81.6025 17.6777 81.415 17.8242C81.2334 17.9648 80.9844 18.0352 80.668 18.0352ZM79.4639 20.7158C79.4639 20.5107 79.5518 20.3438 79.7275 20.2148C79.9092 20.0801 80.1465 20.0127 80.4395 20.0127C80.9668 20.0127 81.248 20.1943 81.2832 20.5576C81.3066 20.8096 81.3301 21.0938 81.3535 21.4102C81.3828 21.7266 81.4092 22.0635 81.4326 22.4209C81.4619 22.7725 81.4854 23.1387 81.5029 23.5195C81.5264 23.8945 81.5469 24.2666 81.5645 24.6357C81.582 24.999 81.5967 25.3506 81.6084 25.6904C81.6201 26.0303 81.626 26.3408 81.626 26.6221C81.626 26.915 81.5205 27.1348 81.3096 27.2812C81.1045 27.4277 80.8027 27.501 80.4043 27.501C80.2227 27.501 80.0791 27.457 79.9736 27.3691C79.874 27.2871 79.8242 27.1641 79.8242 27C79.8242 26.1914 79.8037 25.4355 79.7627 24.7324C79.7275 24.0234 79.6865 23.3936 79.6396 22.8428C79.5986 22.292 79.5576 21.835 79.5166 21.4717C79.4814 21.1025 79.4639 20.8506 79.4639 20.7158ZM91.0914 25.0752C91.2614 24.9287 91.4284 24.8555 91.5924 24.8555C91.6862 24.8555 91.7711 24.8789 91.8473 24.9258C91.9235 24.9727 92.0084 25.0459 92.1022 25.1455C92.1901 25.2803 92.2516 25.3916 92.2868 25.4795C92.3278 25.5615 92.3483 25.6436 92.3483 25.7256C92.3483 25.9014 92.2604 26.0684 92.0846 26.2266C91.8034 26.4609 91.4987 26.6719 91.1705 26.8594C90.8424 27.041 90.4996 27.1963 90.1422 27.3252C89.7848 27.4541 89.4157 27.5508 89.0348 27.6152C88.6539 27.6855 88.276 27.7207 87.901 27.7207C87.4264 27.7207 86.9811 27.6592 86.5651 27.5361C86.1491 27.4189 85.777 27.249 85.4489 27.0264C85.1266 26.8037 84.8541 26.5371 84.6315 26.2266C84.4088 25.9102 84.2506 25.5557 84.1569 25.1631C84.1041 24.999 84.0543 24.8936 84.0075 24.8467C83.9664 24.7939 83.8961 24.7676 83.7965 24.7676C83.5797 24.7676 83.4127 24.7148 83.2955 24.6094C83.1784 24.5039 83.1198 24.3516 83.1198 24.1523C83.1198 24.0703 83.1256 24.0176 83.1373 23.9941L83.1549 23.8184C83.1842 23.6074 83.2399 23.4551 83.3219 23.3613C83.4098 23.2676 83.5446 23.2207 83.7262 23.2207H83.858C84.1041 23.2207 84.277 23.1064 84.3766 22.8779C84.5582 22.4736 84.7897 22.1045 85.0709 21.7705C85.3522 21.4365 85.6686 21.1523 86.0202 20.918C86.3717 20.6777 86.7467 20.4932 87.1452 20.3643C87.5495 20.2295 87.9596 20.1621 88.3756 20.1621C88.8092 20.1621 89.2135 20.2266 89.5885 20.3555C89.9694 20.4785 90.3004 20.6514 90.5817 20.874C90.8629 21.0967 91.0827 21.3574 91.2409 21.6562C91.4049 21.9551 91.487 22.2773 91.487 22.623C91.487 22.8633 91.4401 23.083 91.3463 23.2822C91.2526 23.4814 91.1178 23.6572 90.942 23.8096C90.7663 23.9561 90.5524 24.0762 90.3004 24.1699C90.0543 24.2637 89.7731 24.3252 89.4567 24.3545L86.4069 24.6621C86.2897 24.6621 86.193 24.6914 86.1168 24.75C86.0465 24.8086 86.0114 24.8877 86.0114 24.9873C86.0114 25.1396 86.067 25.2861 86.1784 25.4268C86.2955 25.5674 86.4479 25.6934 86.6354 25.8047C86.8288 25.9102 87.0485 25.9951 87.2946 26.0596C87.5465 26.124 87.8043 26.1562 88.068 26.1562C88.32 26.1562 88.5778 26.1328 88.8414 26.0859C89.111 26.0332 89.3746 25.96 89.6325 25.8662C89.8961 25.7725 90.151 25.6611 90.3971 25.5322C90.6432 25.3975 90.8746 25.2451 91.0914 25.0752ZM89.1315 22.8076C89.2194 22.79 89.2955 22.749 89.36 22.6846C89.4245 22.6143 89.4567 22.5293 89.4567 22.4297C89.4567 22.3418 89.4245 22.2598 89.36 22.1836C89.2955 22.1074 89.2077 22.04 89.0963 21.9814C88.985 21.917 88.8561 21.8672 88.7096 21.832C88.5631 21.7969 88.4079 21.7793 88.2438 21.7793C88.0036 21.7793 87.7575 21.8145 87.5055 21.8848C87.2536 21.9551 87.025 22.0488 86.82 22.166C86.6149 22.2773 86.4479 22.4033 86.319 22.5439C86.1901 22.6787 86.1256 22.8135 86.1256 22.9482C86.1256 23.083 86.2077 23.1504 86.3717 23.1504C86.4713 23.1504 86.6325 23.1387 86.8551 23.1152C87.0778 23.0918 87.3239 23.0654 87.5934 23.0361C87.8629 23.001 88.1354 22.9629 88.4108 22.9219C88.6862 22.8809 88.9264 22.8428 89.1315 22.8076ZM94.0882 16.8486C94.0882 16.5381 94.1761 16.3213 94.3518 16.1982C94.5276 16.0693 94.8177 16.0049 95.222 16.0049C95.3684 16.0049 95.4915 16.0195 95.5911 16.0488C95.6966 16.0723 95.7845 16.1191 95.8548 16.1895C95.9309 16.2598 95.9895 16.3535 96.0305 16.4707C96.0774 16.582 96.1155 16.7256 96.1448 16.9014C96.2151 17.4463 96.2913 18.0088 96.3733 18.5889C96.4612 19.1689 96.552 19.752 96.6458 20.3379C96.6809 20.6016 96.8186 20.7334 97.0589 20.7334C97.1233 20.7334 97.2288 20.7275 97.3753 20.7158C97.5276 20.6982 97.7063 20.6807 97.9114 20.6631C98.1165 20.6396 98.3362 20.6162 98.5706 20.5928C98.8108 20.5693 99.0481 20.5488 99.2825 20.5312C99.5227 20.5078 99.7483 20.4902 99.9593 20.4785C100.176 20.4609 100.366 20.4521 100.531 20.4521C100.659 20.4521 100.762 20.4785 100.838 20.5312C100.914 20.5781 100.973 20.6426 101.014 20.7246C101.061 20.8008 101.09 20.8887 101.102 20.9883C101.119 21.082 101.128 21.1787 101.128 21.2783C101.128 21.3662 101.111 21.457 101.075 21.5508C101.046 21.6445 101.002 21.7295 100.944 21.8057C100.891 21.876 100.824 21.9346 100.741 21.9814C100.659 22.0283 100.566 22.0518 100.46 22.0518C99.9505 22.0518 99.4348 22.0693 98.9134 22.1045C98.3977 22.1338 97.8821 22.1748 97.3665 22.2275C97.1028 22.2627 96.971 22.3945 96.971 22.623C96.971 22.6406 96.9739 22.6641 96.9798 22.6934C96.9856 22.7168 96.9886 22.7373 96.9886 22.7549C97.0589 23.2646 97.1233 23.7422 97.1819 24.1875C97.2464 24.6328 97.2991 25.0312 97.3401 25.3828C97.387 25.7285 97.4221 26.0186 97.4456 26.2529C97.4749 26.4814 97.4895 26.6338 97.4895 26.71C97.4895 26.9209 97.469 27.0967 97.428 27.2373C97.387 27.3838 97.3196 27.501 97.2259 27.5889C97.1321 27.6826 97.0061 27.7471 96.8479 27.7822C96.6956 27.8232 96.5022 27.8438 96.2679 27.8438C96.0452 27.8438 95.8811 27.791 95.7757 27.6855C95.6702 27.5801 95.6116 27.4189 95.5999 27.2021C95.5647 26.5107 95.5091 25.8164 95.4329 25.1191C95.3567 24.416 95.2688 23.7158 95.1692 23.0186C95.1165 22.7666 94.9846 22.6406 94.7737 22.6406C94.7561 22.6406 94.7356 22.6436 94.7122 22.6494C94.6888 22.6553 94.6682 22.6582 94.6507 22.6582C94.2874 22.7402 93.9446 22.8223 93.6223 22.9043C93.3001 22.9863 92.9983 23.0742 92.7171 23.168C92.5589 23.2207 92.4182 23.2588 92.2952 23.2822C92.1721 23.2998 92.0608 23.3086 91.9612 23.3086C91.8264 23.3086 91.7268 23.25 91.6624 23.1328C91.5979 23.0098 91.5657 22.8574 91.5657 22.6758C91.5657 22.6113 91.5716 22.5381 91.5833 22.4561C91.595 22.3682 91.6184 22.2832 91.6536 22.2012C91.6829 22.1133 91.7298 22.0342 91.7942 21.9639C91.8528 21.8877 91.9348 21.8262 92.0403 21.7793C92.2864 21.6797 92.6145 21.5771 93.0247 21.4717C93.4348 21.3604 93.8977 21.2578 94.4134 21.1641C94.5305 21.1348 94.6214 21.0879 94.6858 21.0234C94.7561 20.9531 94.7913 20.8506 94.7913 20.7158C94.7913 20.6865 94.7913 20.6572 94.7913 20.6279C94.7913 20.5928 94.7854 20.5576 94.7737 20.5225C94.68 19.9834 94.5891 19.4941 94.5013 19.0547C94.4192 18.6094 94.346 18.2285 94.2815 17.9121C94.2229 17.5957 94.1761 17.3467 94.1409 17.165C94.1057 16.9834 94.0882 16.8779 94.0882 16.8486ZM104.643 27.2373C104.292 27.2373 103.94 27.1523 103.589 26.9824C103.237 26.8066 102.9 26.5693 102.578 26.2705C102.256 25.9717 101.957 25.6201 101.682 25.2158C101.406 24.8057 101.166 24.3662 100.961 23.8975C100.756 23.4229 100.595 22.9277 100.477 22.4121C100.36 21.8965 100.302 21.3809 100.302 20.8652C100.302 20.4668 100.384 20.1826 100.548 20.0127C100.712 19.8369 100.978 19.749 101.348 19.749C101.81 19.749 102.068 19.9395 102.121 20.3203C102.226 21.1289 102.373 21.8584 102.56 22.5088C102.748 23.1592 102.968 23.7129 103.22 24.1699C103.477 24.627 103.762 24.9785 104.072 25.2246C104.389 25.4707 104.723 25.5938 105.074 25.5938C105.326 25.5938 105.563 25.5322 105.786 25.4092C106.009 25.2803 106.202 25.1016 106.366 24.873C106.425 24.7852 106.463 24.7002 106.48 24.6182C106.504 24.5361 106.521 24.4424 106.533 24.3369C106.562 23.9209 106.595 23.5137 106.63 23.1152C106.671 22.7109 106.709 22.3066 106.744 21.9023C106.756 21.7266 106.779 21.583 106.814 21.4717C106.85 21.3604 106.902 21.2725 106.973 21.208C107.043 21.1436 107.134 21.0996 107.245 21.0762C107.362 21.0527 107.509 21.041 107.684 21.041C107.884 21.041 108.054 21.0703 108.194 21.1289C108.335 21.1816 108.449 21.2725 108.537 21.4014C108.625 21.5244 108.686 21.6885 108.722 21.8936C108.763 22.0928 108.783 22.3418 108.783 22.6406C108.783 22.8984 108.763 23.124 108.722 23.3174C108.686 23.5049 108.643 23.6836 108.59 23.8535C108.543 24.0176 108.496 24.1816 108.449 24.3457C108.408 24.5039 108.382 24.6797 108.37 24.873C108.341 25.3594 108.314 25.7812 108.291 26.1387C108.268 26.4902 108.247 26.792 108.229 27.0439C108.218 27.2959 108.206 27.5127 108.194 27.6943C108.188 27.876 108.183 28.0371 108.177 28.1777C108.171 28.3242 108.168 28.4619 108.168 28.5908C108.168 28.7197 108.168 28.8604 108.168 29.0127C108.168 29.2881 108.18 29.5869 108.203 29.9092C108.226 30.2373 108.25 30.5508 108.273 30.8496C108.303 31.1484 108.329 31.4121 108.352 31.6406C108.376 31.8691 108.388 32.0273 108.388 32.1152C108.388 32.2266 108.352 32.332 108.282 32.4316C108.212 32.5312 108.118 32.6191 108.001 32.6953C107.884 32.7715 107.746 32.8301 107.588 32.8711C107.43 32.918 107.263 32.9414 107.087 32.9414C106.934 32.9414 106.811 32.8887 106.718 32.7832C106.63 32.6836 106.58 32.5488 106.568 32.3789C106.551 32.1562 106.536 31.8838 106.524 31.5615C106.513 31.2451 106.501 30.9053 106.489 30.542C106.477 30.1846 106.469 29.8184 106.463 29.4434C106.463 29.0742 106.46 28.7285 106.454 28.4062C106.448 28.0898 106.445 27.8115 106.445 27.5713C106.445 27.3311 106.445 27.1582 106.445 27.0527C106.445 26.9473 106.434 26.874 106.41 26.833C106.387 26.7861 106.343 26.7627 106.278 26.7627C106.243 26.7627 106.196 26.7744 106.138 26.7979C106.079 26.8154 106.012 26.8477 105.935 26.8945C105.73 27.0176 105.522 27.1055 105.311 27.1582C105.101 27.2109 104.878 27.2373 104.643 27.2373Z" fill="#F7F5E6"/>
<path d="M50.4539 54.48L50.2509 54.364C50.1929 54.306 50.1639 54.277 50.1639 54.277C50.1446 54.1997 50.1156 54.1223 50.0769 54.045C50.0382 53.987 50.0286 53.9193 50.0479 53.842C50.0479 53.726 50.0382 53.61 50.0189 53.494C49.9996 53.3973 49.9706 53.3103 49.9319 53.233L49.8739 53.001C49.8546 52.8077 49.7772 52.6143 49.6419 52.421C49.5066 52.2083 49.4002 51.9957 49.3229 51.783C49.2456 51.5703 49.1876 51.348 49.1489 51.116C49.1102 50.884 49.0426 50.6713 48.9459 50.478C48.8492 50.2653 48.7526 50.043 48.6559 49.811L48.4819 49.434C48.4239 49.2987 48.3466 49.2117 48.2499 49.173C48.1919 49.1537 48.1242 49.086 48.0469 48.97C48.0082 48.9507 47.9696 48.9023 47.9309 48.825C47.8729 48.6897 47.8052 48.564 47.7279 48.448C47.6699 48.3127 47.6022 48.1773 47.5249 48.042C47.4476 47.926 47.3702 47.8197 47.2929 47.723C47.2349 47.607 47.1769 47.491 47.1189 47.375C47.0996 47.317 47.0706 47.259 47.0319 47.201C46.9932 47.143 46.9546 47.085 46.9159 47.027C46.8772 46.9497 46.8289 46.8723 46.7709 46.795C46.7322 46.6983 46.6936 46.6113 46.6549 46.534L46.4809 46.186C46.4229 46.0893 46.3649 46.0023 46.3069 45.925C46.2682 45.8283 46.2296 45.7413 46.1909 45.664C46.1136 45.4513 46.0169 45.258 45.9009 45.084C45.7849 44.91 45.6689 44.7263 45.5529 44.533C45.5142 44.4557 45.4756 44.3977 45.4369 44.359C45.4176 44.301 45.3886 44.243 45.3499 44.185C45.3112 44.127 45.2726 44.069 45.2339 44.011C45.1566 43.8757 45.0792 43.7403 45.0019 43.605C44.9439 43.4697 44.8956 43.3343 44.8569 43.199C44.8376 43.1217 44.8182 43.054 44.7989 42.996C44.7796 42.938 44.7506 42.88 44.7119 42.822C44.6732 42.7253 44.6346 42.6383 44.5959 42.561C44.5572 42.4643 44.5186 42.3677 44.4799 42.271C44.4799 42.2517 44.4702 42.2323 44.4509 42.213C44.3736 42.0583 44.3059 41.9037 44.2479 41.749C44.1899 41.5943 44.1319 41.4493 44.0739 41.314C43.9966 41.1207 43.9096 40.937 43.8129 40.763C43.7162 40.589 43.6196 40.415 43.5229 40.241L43.4359 40.038C43.2426 39.4773 42.9816 38.9167 42.6529 38.356C42.6336 38.3367 42.6239 38.3173 42.6239 38.298C42.6239 38.2787 42.6142 38.2593 42.5949 38.24C42.5756 38.1047 42.5176 37.979 42.4209 37.863C42.4016 37.863 42.3919 37.8533 42.3919 37.834C42.3919 37.8147 42.3822 37.7953 42.3629 37.776C42.3242 37.6793 42.2759 37.5827 42.2179 37.486C42.1792 37.37 42.1309 37.2637 42.0729 37.167C42.0729 37.1283 42.0632 37.0993 42.0439 37.08C42.0246 37.0413 42.0052 37.0123 41.9859 36.993C41.9086 36.8963 41.8409 36.7997 41.7829 36.703C41.7442 36.6063 41.7056 36.5 41.6669 36.384C41.6282 36.2873 41.5896 36.2003 41.5509 36.123C41.5122 36.0263 41.4736 35.9393 41.4349 35.862L41.3769 35.775C41.2996 35.6397 41.2319 35.514 41.1739 35.398C41.1159 35.2627 41.0482 35.1273 40.9709 34.992C40.9516 34.9147 40.9032 34.76 40.8259 34.528C40.7486 34.296 40.7002 34.1413 40.6809 34.064C40.6616 34.0253 40.6519 33.9673 40.6519 33.89C40.6519 33.774 40.6422 33.658 40.6229 33.542C40.6229 33.426 40.6326 33.31 40.6519 33.194C40.6906 32.672 40.8839 32.2563 41.2319 31.947C41.4252 31.7923 41.6186 31.686 41.8119 31.628C41.8506 31.6087 41.8892 31.599 41.9279 31.599C41.9666 31.599 41.9956 31.5893 42.0149 31.57C42.1502 31.5313 42.2759 31.5217 42.3919 31.541C42.5079 31.5603 42.6239 31.5893 42.7399 31.628L43.2039 31.889C43.4166 31.9857 43.5519 32.1307 43.6099 32.324C43.6486 32.4207 43.6872 32.5173 43.7259 32.614C43.7839 32.6913 43.8419 32.7687 43.8999 32.846C44.0352 33.02 44.1416 33.2037 44.2189 33.397C44.3156 33.571 44.4026 33.7547 44.4799 33.948C44.5379 34.0833 44.5862 34.2187 44.6249 34.354C44.6829 34.4893 44.7409 34.615 44.7989 34.731L45.2339 35.775C45.3112 35.949 45.3886 36.123 45.4659 36.297C45.5432 36.471 45.6206 36.645 45.6979 36.819L45.7849 37.051C45.8622 37.2443 45.9396 37.4473 46.0169 37.66C46.1136 37.8533 46.1909 38.0563 46.2489 38.269C46.2876 38.385 46.3359 38.501 46.3939 38.617C46.4519 38.7137 46.5099 38.82 46.5679 38.936C46.6066 39.0133 46.6452 39.1003 46.6839 39.197C46.7226 39.2937 46.7612 39.3903 46.7999 39.487C46.8192 39.5063 46.8289 39.5353 46.8289 39.574C46.8289 39.6127 46.8386 39.6417 46.8579 39.661C46.9352 39.777 46.9932 39.893 47.0319 40.009C47.0706 40.125 47.1092 40.241 47.1479 40.357C47.3412 40.8017 47.5346 41.2463 47.7279 41.691C47.9406 42.1357 48.1532 42.5803 48.3659 43.025C48.4046 43.141 48.4529 43.257 48.5109 43.373C48.5689 43.489 48.6172 43.605 48.6559 43.721L48.9169 44.214C48.9556 44.3107 48.9942 44.417 49.0329 44.533C49.0716 44.6297 49.1199 44.7263 49.1779 44.823C49.2359 44.9197 49.2842 45.026 49.3229 45.142C49.3616 45.2387 49.4002 45.3353 49.4389 45.432L49.7579 46.041C49.7966 46.1183 49.8352 46.1957 49.8739 46.273C49.9319 46.3503 49.9706 46.4083 49.9899 46.447C50.0092 46.4857 50.0286 46.534 50.0479 46.592C50.0672 46.6307 50.0866 46.6693 50.1059 46.708C50.1446 46.7273 50.1929 46.795 50.2509 46.911C50.3089 47.0077 50.3282 47.056 50.3089 47.056C50.4056 47.0947 50.4636 47.0753 50.4829 46.998C50.5022 46.9207 50.5216 46.8433 50.5409 46.766C50.5796 46.6693 50.6086 46.5823 50.6279 46.505C50.6666 46.3503 50.6956 46.1957 50.7149 46.041C50.7342 45.8863 50.7536 45.7317 50.7729 45.577C50.8116 45.3643 50.8406 45.1613 50.8599 44.968C50.8986 44.7553 50.9372 44.5523 50.9759 44.359C50.9759 44.3203 50.9759 44.272 50.9759 44.214C50.9759 44.156 50.9856 44.1077 51.0049 44.069C51.0629 43.4697 51.1499 42.8993 51.2659 42.358C51.2659 42.3 51.2756 42.2613 51.2949 42.242C51.3142 41.9133 51.3529 41.604 51.4109 41.314C51.4882 41.0047 51.5559 40.6953 51.6139 40.386C51.6526 40.1153 51.7009 39.8447 51.7589 39.574C51.8169 39.3033 51.8749 39.0327 51.9329 38.762C52.0102 38.4333 52.0876 38.1047 52.1649 37.776C52.2422 37.428 52.3196 37.0897 52.3969 36.761L52.6579 35.659C52.6966 35.5043 52.7352 35.3593 52.7739 35.224C52.8126 35.0887 52.8512 34.9533 52.8899 34.818C52.9286 34.644 52.9672 34.4797 53.0059 34.325C53.0639 34.151 53.1026 33.9867 53.1219 33.832C53.1606 33.6967 53.1992 33.571 53.2379 33.455C53.2766 33.3197 53.3152 33.1843 53.3539 33.049L53.6149 32.324C53.6342 32.2467 53.6536 32.1693 53.6729 32.092C53.6922 31.9953 53.7019 31.9083 53.7019 31.831C53.6826 31.6763 53.6922 31.5313 53.7309 31.396C53.7696 31.2607 53.8082 31.1253 53.8469 30.99C53.9436 30.7193 54.0596 30.5067 54.1949 30.352C54.2529 30.294 54.3012 30.236 54.3399 30.178C54.3786 30.1007 54.4172 30.0233 54.4559 29.946C54.4946 29.888 54.5139 29.7913 54.5139 29.656C54.5139 29.54 54.4656 29.4723 54.3689 29.453C54.3109 29.4143 54.2819 29.3757 54.2819 29.337C54.3012 29.2983 54.3109 29.25 54.3109 29.192C54.3496 29.076 54.3979 29.0083 54.4559 28.989L54.9199 28.786C54.9586 28.7667 54.9972 28.757 55.0359 28.757C55.0746 28.757 55.1036 28.7473 55.1229 28.728C55.1809 28.728 55.2292 28.7473 55.2679 28.786C55.3259 28.844 55.4032 28.8827 55.4999 28.902C55.5966 28.9213 55.7029 28.9407 55.8189 28.96C55.9349 28.9793 56.0509 28.9987 56.1669 29.018C56.2249 29.0373 56.2829 29.0567 56.3409 29.076C56.3989 29.076 56.4569 29.0953 56.5149 29.134C56.6116 29.2113 56.7082 29.2983 56.8049 29.395C56.9209 29.4723 57.0176 29.569 57.0949 29.685C57.2302 29.8783 57.3462 30.1007 57.4429 30.352L57.5299 30.671C57.6266 30.8257 57.6942 31.019 57.7329 31.251C57.8296 31.7343 57.7909 32.179 57.6169 32.585C57.5976 32.643 57.5686 32.7107 57.5299 32.788C57.5106 32.846 57.4816 32.904 57.4429 32.962C57.3462 33.1167 57.2592 33.281 57.1819 33.455C57.1239 33.629 57.0756 33.803 57.0369 33.977C57.0176 34.151 56.9789 34.325 56.9209 34.499C56.8629 34.6537 56.7952 34.8083 56.7179 34.963L56.4569 35.659C56.4376 35.6977 56.4182 35.746 56.3989 35.804C56.3796 35.8427 56.3602 35.8813 56.3409 35.92V35.978C56.3216 35.9973 56.3022 36.036 56.2829 36.094C56.2636 36.1327 56.2539 36.1713 56.2539 36.21C56.2346 36.3453 56.1959 36.471 56.1379 36.587C56.0799 36.703 56.0606 36.8383 56.0799 36.993C56.0799 37.0317 56.1089 37.0703 56.1669 37.109C56.2056 37.109 56.2442 37.1187 56.2829 37.138C56.3216 37.138 56.3602 37.138 56.3989 37.138L56.4859 37.225C56.5246 37.2443 56.5439 37.2733 56.5439 37.312C56.5439 37.3507 56.5246 37.3797 56.4859 37.399C56.3892 37.4957 56.2829 37.544 56.1669 37.544C56.1282 37.544 56.0799 37.5537 56.0219 37.573C55.9832 37.573 55.9446 37.573 55.9059 37.573C55.8672 37.6117 55.8286 37.6793 55.7899 37.776C55.7706 37.8147 55.7512 37.863 55.7319 37.921C55.7319 37.979 55.7126 38.0273 55.6739 38.066C55.5966 38.24 55.4322 38.327 55.1809 38.327H54.9779C54.9392 38.3463 54.9006 38.4043 54.8619 38.501C54.7652 38.8103 54.6686 39.1197 54.5719 39.429C54.4752 39.719 54.3979 40.0283 54.3399 40.357C54.3206 40.4923 54.2916 40.6277 54.2529 40.763C54.2142 40.879 54.1756 41.0143 54.1369 41.169C54.0596 41.517 53.9726 41.865 53.8759 42.213C53.7986 42.561 53.7309 42.909 53.6729 43.257C53.6536 43.3537 53.6342 43.46 53.6149 43.576C53.5956 43.692 53.5666 43.7983 53.5279 43.895C53.4892 44.0883 53.4602 44.2913 53.4409 44.504C53.4409 44.6973 53.4216 44.8907 53.3829 45.084L53.2959 46.07C53.2766 46.1473 53.2669 46.2343 53.2669 46.331C53.2669 46.4083 53.2572 46.4857 53.2379 46.563C53.2186 46.6403 53.1992 46.708 53.1799 46.766C53.1799 46.824 53.1799 46.8917 53.1799 46.969C53.1219 47.2203 53.0639 47.4813 53.0059 47.752C52.9672 48.0033 52.9189 48.2643 52.8609 48.535C52.8416 48.709 52.8029 48.883 52.7449 49.057C52.7062 49.2117 52.6676 49.3663 52.6289 49.521C52.6096 49.5983 52.5902 49.666 52.5709 49.724C52.5516 49.782 52.5226 49.84 52.4839 49.898C52.4066 50.072 52.3582 50.2267 52.3389 50.362C52.3002 50.4007 52.2809 50.4393 52.2809 50.478C52.2809 50.7293 52.2422 50.9323 52.1649 51.087C52.1456 51.145 52.1359 51.2223 52.1359 51.319C52.1359 51.377 52.1166 51.4253 52.0779 51.464C52.0392 51.522 52.0199 51.58 52.0199 51.638C52.0199 51.6767 52.0006 51.696 51.9619 51.696C51.9039 51.7153 51.8556 51.754 51.8169 51.812C51.7976 51.87 51.7686 51.9183 51.7299 51.957C51.6719 52.0343 51.6139 52.102 51.5559 52.16C51.5172 52.218 51.4496 52.2663 51.3529 52.305C51.3142 52.3437 51.2852 52.3823 51.2659 52.421C51.2466 52.537 51.2176 52.653 51.1789 52.769C51.1402 52.9043 51.1209 53.0397 51.1209 53.175C51.1209 53.233 51.1112 53.291 51.0919 53.349C51.0919 53.407 51.0919 53.465 51.0919 53.523C51.1112 53.639 51.1016 53.755 51.0629 53.871C51.0436 53.987 51.0146 54.0933 50.9759 54.19C50.9566 54.2673 50.8889 54.335 50.7729 54.393C50.6762 54.4703 50.5699 54.4993 50.4539 54.48ZM71.1943 53.117C71.0203 53.117 70.8657 53.0493 70.7303 52.914C70.6917 52.856 70.653 52.798 70.6143 52.74C70.5757 52.682 70.537 52.624 70.4983 52.566C70.3243 52.16 70.2373 51.7347 70.2373 51.29L70.1503 50.594C70.0923 50.3233 70.044 50.0527 70.0053 49.782C69.9667 49.5113 69.899 49.2503 69.8023 48.999L69.6283 48.506C69.6283 48.4673 69.6187 48.4287 69.5993 48.39C69.5993 48.3513 69.5897 48.3127 69.5703 48.274L69.1353 46.737C69.116 46.6983 69.0967 46.65 69.0773 46.592C69.0773 46.534 69.058 46.4857 69.0193 46.447C68.9613 46.331 68.913 46.215 68.8743 46.099C68.855 45.9637 68.826 45.8283 68.7873 45.693C68.768 45.5963 68.7487 45.5093 68.7293 45.432C68.71 45.3353 68.681 45.2387 68.6423 45.142C68.6037 45.026 68.565 44.9583 68.5263 44.939C68.4877 44.9003 68.4007 44.9003 68.2653 44.939C68.1687 44.9583 68.0623 44.9777 67.9463 44.997C67.8497 44.997 67.753 45.0163 67.6563 45.055C67.579 45.0743 67.4823 45.0937 67.3663 45.113C67.2697 45.113 67.173 45.1227 67.0763 45.142L66.6703 45.229C66.5737 45.2483 66.4673 45.2773 66.3513 45.316C66.2547 45.3353 66.158 45.345 66.0613 45.345L65.5393 45.432C65.3847 45.4707 65.2203 45.5093 65.0463 45.548C64.8723 45.5867 64.708 45.6253 64.5533 45.664C64.0893 45.78 63.6253 45.867 63.1613 45.925C63.0067 45.9637 62.9197 46.0313 62.9003 46.128C62.881 46.128 62.8713 46.1377 62.8713 46.157C62.7553 46.4663 62.62 46.7757 62.4653 47.085C62.33 47.375 62.185 47.6747 62.0303 47.984C61.9917 48.0613 61.953 48.1387 61.9143 48.216C61.895 48.274 61.866 48.3417 61.8273 48.419C61.808 48.4577 61.7887 48.506 61.7693 48.564C61.75 48.6027 61.7307 48.6413 61.7113 48.68C61.5953 48.8153 61.5373 48.9797 61.5373 49.173C61.518 49.289 61.4793 49.405 61.4213 49.521C61.3633 49.6177 61.3053 49.7143 61.2473 49.811C61.228 49.869 61.1893 49.898 61.1313 49.898C61.054 49.9173 60.9767 49.9463 60.8993 49.985C60.822 50.0237 60.735 50.0623 60.6383 50.101C60.5803 50.1203 60.5223 50.1203 60.4643 50.101C60.4257 50.0817 60.3773 50.0623 60.3193 50.043C60.2807 50.0043 60.242 49.985 60.2033 49.985C59.9907 49.9657 59.836 49.84 59.7393 49.608C59.5847 49.2987 59.4783 48.9893 59.4203 48.68C59.401 48.6027 59.401 48.535 59.4203 48.477C59.459 48.419 59.488 48.361 59.5073 48.303C59.6233 48.2257 59.691 48.1387 59.7103 48.042V48.013C59.7103 47.7617 59.7587 47.5297 59.8553 47.317C59.9713 47.085 60.068 46.8627 60.1453 46.65C60.184 46.534 60.2323 46.418 60.2903 46.302C60.3483 46.186 60.4063 46.07 60.4643 45.954C60.5417 45.8187 60.5997 45.693 60.6383 45.577C60.6963 45.4417 60.7447 45.3063 60.7833 45.171C60.8413 45.0163 60.8413 44.8713 60.7833 44.736C60.7447 44.62 60.7253 44.5137 60.7253 44.417C60.7253 44.301 60.735 44.185 60.7543 44.069C60.7543 43.8563 60.8317 43.6727 60.9863 43.518C61.0637 43.4213 61.141 43.344 61.2183 43.286C61.315 43.2087 61.402 43.1313 61.4793 43.054C61.6533 42.88 61.7887 42.648 61.8853 42.358C61.9627 42.1067 62.0207 41.8553 62.0593 41.604C62.1173 41.3333 62.1753 41.0723 62.2333 40.821C62.272 40.5697 62.3107 40.328 62.3493 40.096C62.4073 39.8447 62.4653 39.603 62.5233 39.371C62.5427 39.2743 62.562 39.1873 62.5813 39.11C62.62 39.0133 62.649 38.9263 62.6683 38.849C62.7263 38.6943 62.7843 38.5493 62.8423 38.414C62.9003 38.2593 62.939 38.1047 62.9583 37.95C62.997 37.8727 62.997 37.805 62.9583 37.747C62.939 37.6503 62.939 37.5633 62.9583 37.486C62.997 37.4087 63.026 37.3313 63.0453 37.254C63.1033 37.1187 63.142 36.9833 63.1613 36.848C63.2 36.7127 63.2483 36.5773 63.3063 36.442C63.403 36.1907 63.4803 35.9877 63.5383 35.833C63.6157 35.659 63.6833 35.4657 63.7413 35.253C63.78 35.137 63.8187 35.0307 63.8573 34.934C63.9153 34.818 63.954 34.702 63.9733 34.586C64.0313 34.412 64.0797 34.238 64.1183 34.064C64.157 33.8707 64.1763 33.687 64.1763 33.513C64.215 33.3583 64.2537 33.252 64.2923 33.194C64.389 33.0007 64.505 32.8363 64.6403 32.701C64.795 32.5657 64.94 32.4303 65.0753 32.295C65.172 32.237 65.2687 32.1983 65.3653 32.179C65.462 32.1403 65.5587 32.15 65.6553 32.208C65.7327 32.2467 65.781 32.266 65.8003 32.266C65.9743 32.2467 66.1193 32.2853 66.2353 32.382C66.3513 32.4787 66.448 32.5947 66.5253 32.73C66.564 32.7687 66.593 32.817 66.6123 32.875C66.6317 32.933 66.651 32.9813 66.6703 33.02C66.767 33.1747 66.8153 33.3293 66.8153 33.484C66.8153 33.5613 66.825 33.6483 66.8443 33.745C66.8637 33.8223 66.883 33.9093 66.9023 34.006C66.9603 34.122 67.0473 34.18 67.1633 34.18C67.1827 34.1607 67.202 34.1607 67.2213 34.18C67.2407 34.1993 67.2503 34.2187 67.2503 34.238C67.347 34.354 67.376 34.4797 67.3373 34.615C67.2987 34.7697 67.289 34.9243 67.3083 35.079C67.347 35.2143 67.3857 35.3593 67.4243 35.514C67.5017 35.7073 67.579 35.9007 67.6563 36.094C67.7337 36.2873 67.811 36.4807 67.8883 36.674C67.985 36.8867 68.0817 37.0993 68.1783 37.312C68.275 37.5247 68.362 37.7373 68.4393 37.95C68.536 38.2207 68.6327 38.4913 68.7293 38.762C68.8453 39.0327 68.971 39.3033 69.1063 39.574L69.1933 39.893C69.2127 39.9703 69.232 40.0477 69.2513 40.125C69.29 40.2023 69.319 40.2797 69.3383 40.357C69.377 40.415 69.406 40.473 69.4253 40.531C69.464 40.589 69.5027 40.6373 69.5413 40.676C69.638 40.8113 69.696 40.9563 69.7153 41.111C69.7733 41.3043 69.8603 41.4783 69.9763 41.633C70.015 41.691 70.073 41.72 70.1503 41.72C70.4403 41.6813 70.7303 41.6523 71.0203 41.633C71.3103 41.5943 71.6003 41.5363 71.8903 41.459C72.103 41.401 72.306 41.372 72.4993 41.372C72.8667 41.372 73.205 41.4977 73.5143 41.749C73.8817 42.039 74.075 42.4063 74.0943 42.851C74.0943 42.9477 74.104 43.025 74.1233 43.083C74.1233 43.2183 74.0847 43.3247 74.0073 43.402C73.988 43.46 73.9493 43.518 73.8913 43.576C73.8527 43.634 73.814 43.692 73.7753 43.75C73.7367 43.8273 73.698 43.8853 73.6593 43.924L73.4853 44.069C73.466 44.1077 73.437 44.156 73.3983 44.214C73.3597 44.2527 73.3113 44.2817 73.2533 44.301C73.176 44.3203 73.0987 44.3493 73.0213 44.388C72.944 44.4073 72.857 44.417 72.7603 44.417C72.4123 44.4557 72.103 44.446 71.8323 44.388H71.3683C71.3297 44.388 71.2717 44.4073 71.1943 44.446C71.117 44.4847 71.0783 44.533 71.0783 44.591V44.707C71.1363 44.881 71.175 45.0647 71.1943 45.258C71.233 45.432 71.291 45.5963 71.3683 45.751C71.3683 45.8283 71.3877 45.9057 71.4263 45.983C71.523 46.157 71.6003 46.3407 71.6583 46.534C71.7163 46.708 71.7647 46.8917 71.8033 47.085C71.8033 47.1237 71.8227 47.201 71.8613 47.317C71.9193 47.4523 71.9677 47.5973 72.0063 47.752C72.045 47.8873 72.074 48.0323 72.0933 48.187C72.0933 48.303 72.1223 48.4093 72.1803 48.506C72.2577 48.68 72.3157 48.854 72.3543 49.028C72.393 49.202 72.422 49.3857 72.4413 49.579C72.4607 49.5983 72.4703 49.637 72.4703 49.695C72.4703 49.7337 72.48 49.7723 72.4993 49.811C72.596 50.0237 72.6637 50.2557 72.7023 50.507C72.741 50.739 72.7893 50.971 72.8473 51.203C72.886 51.319 72.9053 51.435 72.9053 51.551C72.9247 51.6863 72.9343 51.8217 72.9343 51.957C72.9343 52.0537 72.9053 52.16 72.8473 52.276C72.7893 52.334 72.7603 52.363 72.7603 52.363C72.6443 52.3823 72.5767 52.45 72.5573 52.566L72.4703 52.74C72.4317 52.8173 72.3737 52.8657 72.2963 52.885C72.219 52.885 72.1513 52.914 72.0933 52.972C72.016 53.0493 71.9097 53.088 71.7743 53.088C71.697 53.088 71.6003 53.088 71.4843 53.088C71.3877 53.088 71.291 53.0977 71.1943 53.117ZM64.2053 42.59C64.3213 42.5707 64.4373 42.5513 64.5533 42.532C64.6887 42.5127 64.8337 42.4933 64.9883 42.474C65.085 42.4547 65.2107 42.4353 65.3653 42.416C65.52 42.3967 65.665 42.3773 65.8003 42.358C65.9357 42.3193 66.071 42.3 66.2063 42.3C66.3417 42.2807 66.477 42.2613 66.6123 42.242C66.7283 42.2033 66.8443 42.184 66.9603 42.184C67.0763 42.1647 67.1923 42.1453 67.3083 42.126C67.4823 42.0873 67.55 41.9907 67.5113 41.836C67.492 41.6813 67.4533 41.5267 67.3953 41.372C67.3567 41.198 67.2697 41.053 67.1343 40.937C67.0957 40.8983 67.0763 40.8403 67.0763 40.763V40.676C67.0377 40.5213 66.9893 40.3763 66.9313 40.241C66.8927 40.0863 66.8443 39.9413 66.7863 39.806C66.7477 39.6513 66.6993 39.516 66.6413 39.4C66.6027 39.2647 66.5543 39.1293 66.4963 38.994L66.1483 37.95C66.0903 37.8147 66.0323 37.6793 65.9743 37.544C65.9357 37.4087 65.897 37.2733 65.8583 37.138L65.7713 37.022H65.6843L65.6263 37.109C65.5297 37.399 65.4137 37.689 65.2783 37.979C65.1623 38.269 65.056 38.5783 64.9593 38.907C64.9593 38.9457 64.9497 38.994 64.9303 39.052C64.911 39.11 64.8917 39.168 64.8723 39.226C64.795 39.4193 64.7177 39.632 64.6403 39.864C64.5823 40.096 64.534 40.328 64.4953 40.56C64.476 40.6953 64.4567 40.8307 64.4373 40.966C64.418 41.082 64.389 41.2077 64.3503 41.343L64.0893 42.474C64.07 42.4933 64.0797 42.5223 64.1183 42.561C64.157 42.5803 64.186 42.59 64.2053 42.59ZM82.2118 51.29C82.1925 51.2707 82.1635 51.261 82.1248 51.261C81.9315 51.145 81.7382 51.0387 81.5448 50.942C81.3708 50.826 81.2065 50.7003 81.0518 50.565C80.9745 50.5263 80.9262 50.4877 80.9068 50.449C80.7328 50.3523 80.5782 50.2363 80.4428 50.101C80.3075 49.9463 80.1818 49.782 80.0658 49.608C80.0272 49.5693 79.9885 49.521 79.9498 49.463C79.9112 49.405 79.8628 49.347 79.8048 49.289C79.6115 49.0957 79.4568 48.8637 79.3408 48.593C79.3215 48.535 79.2925 48.477 79.2538 48.419C79.2152 48.361 79.1765 48.303 79.1378 48.245C79.0218 48.0903 78.9348 47.9453 78.8768 47.81C78.8382 47.6553 78.7802 47.5103 78.7028 47.375C78.6255 47.2203 78.5482 47.0753 78.4708 46.94C78.4515 46.8627 78.4225 46.7853 78.3838 46.708C78.3452 46.6307 78.3162 46.5533 78.2968 46.476C78.2968 46.3793 78.2678 46.273 78.2098 46.157C78.1325 45.9443 78.0552 45.7317 77.9778 45.519C77.9198 45.287 77.8618 45.055 77.8038 44.823C77.7652 44.7457 77.7458 44.6877 77.7458 44.649C77.6298 44.3977 77.5428 44.1367 77.4848 43.866C77.4268 43.5953 77.3688 43.3343 77.3108 43.083L77.1368 41.778C77.1175 41.7393 77.1078 41.691 77.1078 41.633C77.1078 41.575 77.1078 41.5267 77.1078 41.488C77.1078 41.372 77.1078 41.2657 77.1078 41.169C77.1078 41.053 77.0885 40.937 77.0498 40.821C77.0112 40.5697 77.0208 40.3377 77.0788 40.125C77.0788 40.0477 77.0788 39.98 77.0788 39.922C77.0982 39.8447 77.1078 39.7673 77.1078 39.69C77.1078 39.5933 77.1078 39.4967 77.1078 39.4C77.1272 39.284 77.1465 39.1873 77.1658 39.11C77.1852 39.052 77.1948 38.9747 77.1948 38.878C77.2335 38.704 77.2528 38.5397 77.2528 38.385C77.2722 38.211 77.2915 38.0467 77.3108 37.892C77.3688 37.6213 77.3978 37.3603 77.3978 37.109C77.3978 37.0317 77.3978 36.964 77.3978 36.906C77.4172 36.8287 77.4365 36.7513 77.4558 36.674C77.4558 36.5 77.4462 36.3743 77.4268 36.297C77.3688 36.2197 77.3592 36.1133 77.3978 35.978C77.4365 35.9007 77.4558 35.8427 77.4558 35.804C77.4752 35.7653 77.4848 35.7267 77.4848 35.688C77.4848 35.63 77.5138 35.5913 77.5718 35.572H77.7748C77.8522 35.572 77.9005 35.543 77.9198 35.485C77.9392 35.4077 78.0068 35.3497 78.1228 35.311C78.2195 35.2723 78.3065 35.2433 78.3838 35.224C78.4612 35.1853 78.5385 35.137 78.6158 35.079C78.6738 35.0403 78.7415 35.021 78.8188 35.021C78.8962 35.021 78.9735 35.0307 79.0508 35.05L79.5728 35.224C79.5922 35.2433 79.6018 35.253 79.6018 35.253C79.6212 35.253 79.6405 35.2627 79.6598 35.282C79.8145 35.4367 79.9402 35.6107 80.0368 35.804C80.1528 35.9973 80.2205 36.21 80.2398 36.442C80.2398 36.5193 80.2398 36.5967 80.2398 36.674C80.2398 36.732 80.2205 36.7997 80.1818 36.877C80.1625 36.993 80.1432 37.109 80.1238 37.225C80.1045 37.341 80.0852 37.4667 80.0658 37.602C80.0272 37.7953 79.9982 37.9887 79.9788 38.182C79.9788 38.356 79.9788 38.5397 79.9788 38.733C79.9595 38.8103 79.9498 38.8877 79.9498 38.965C79.9498 39.023 79.9402 39.0907 79.9208 39.168C79.9015 39.4 79.8918 39.632 79.8918 39.864C79.8918 40.096 79.9112 40.3183 79.9498 40.531C79.9498 40.5503 79.9498 40.5793 79.9498 40.618C79.9692 40.6567 79.9692 40.6953 79.9498 40.734C79.9498 40.9273 79.9692 41.1303 80.0078 41.343C80.0465 41.5557 80.0755 41.7683 80.0948 41.981C80.1142 42.1743 80.1335 42.358 80.1528 42.532C80.1722 42.706 80.2012 42.88 80.2398 43.054C80.2785 43.1313 80.2978 43.2087 80.2978 43.286C80.3172 43.3633 80.3365 43.4407 80.3558 43.518C80.4332 43.8853 80.5202 44.243 80.6168 44.591C80.7135 44.939 80.8392 45.287 80.9938 45.635C81.0905 45.8477 81.1872 46.0313 81.2838 46.186C81.4385 46.4567 81.5738 46.7273 81.6898 46.998C81.7672 47.1333 81.8445 47.2687 81.9218 47.404C81.9992 47.52 82.0765 47.6457 82.1538 47.781C82.2312 47.8777 82.3085 47.9647 82.3858 48.042C82.4632 48.1193 82.5405 48.2063 82.6178 48.303C82.7145 48.3997 82.8402 48.4287 82.9948 48.39C83.0915 48.3513 83.1592 48.3127 83.1978 48.274C83.2945 48.216 83.3815 48.158 83.4588 48.1C83.5555 48.042 83.6425 47.9743 83.7198 47.897C83.9325 47.6843 84.1258 47.4717 84.2998 47.259C84.4932 47.0463 84.6575 46.8143 84.7928 46.563C84.9088 46.3503 85.0248 46.128 85.1408 45.896C85.2568 45.664 85.3632 45.432 85.4598 45.2C85.5758 44.9293 85.6822 44.6587 85.7788 44.388C85.8948 44.1173 86.0012 43.837 86.0978 43.547C86.1752 43.3537 86.2332 43.1603 86.2718 42.967C86.3298 42.7543 86.3685 42.5513 86.3878 42.358C86.4265 42.1453 86.4555 41.9327 86.4748 41.72C86.5135 41.488 86.5232 41.2657 86.5038 41.053C86.5038 40.995 86.5038 40.937 86.5038 40.879C86.5232 40.821 86.5328 40.763 86.5328 40.705C86.5715 40.5697 86.5812 40.444 86.5618 40.328C86.5618 40.212 86.5522 40.096 86.5328 39.98C86.5135 39.6513 86.4845 39.342 86.4458 39.052C86.4265 38.7427 86.4072 38.4333 86.3878 38.124C86.3878 37.9693 86.3782 37.863 86.3588 37.805C86.3395 37.631 86.3202 37.457 86.3008 37.283C86.3008 37.109 86.2815 36.935 86.2428 36.761V36.529C86.2428 36.3357 86.2332 36.152 86.2138 35.978C86.2138 35.7847 86.2138 35.5913 86.2138 35.398C86.2138 35.2433 86.2042 35.108 86.1848 34.992C86.1848 34.8567 86.1848 34.7213 86.1848 34.586C86.1848 34.412 86.2138 34.267 86.2718 34.151C86.3298 34.0543 86.3492 33.977 86.3298 33.919C86.2718 33.803 86.3008 33.716 86.4168 33.658C86.5135 33.5613 86.6102 33.484 86.7068 33.426C86.8228 33.368 86.9485 33.3293 87.0838 33.31C87.1225 33.2907 87.1515 33.281 87.1708 33.281C87.2095 33.281 87.2385 33.2713 87.2578 33.252C87.3738 33.1553 87.5285 33.1263 87.7218 33.165C87.7605 33.1843 87.8185 33.194 87.8958 33.194C88.0698 33.2327 88.1955 33.3003 88.2728 33.397C88.3308 33.455 88.4178 33.5227 88.5338 33.6C88.6885 33.6773 88.7948 33.774 88.8528 33.89C88.9108 34.006 88.9495 34.1317 88.9688 34.267C89.0075 34.4603 89.0365 34.644 89.0558 34.818C89.0945 34.992 89.1042 35.1757 89.0848 35.369V35.63C89.0848 35.8233 89.0848 36.0167 89.0848 36.21C89.1042 36.384 89.1235 36.5677 89.1428 36.761C89.1622 36.819 89.1718 36.8867 89.1718 36.964C89.1718 37.022 89.1718 37.08 89.1718 37.138C89.1718 37.254 89.1718 37.37 89.1718 37.486C89.1912 37.5827 89.2105 37.689 89.2298 37.805C89.2492 37.8437 89.2588 37.9017 89.2588 37.979C89.2395 38.1723 89.2395 38.3657 89.2588 38.559C89.2975 38.733 89.3265 38.9167 89.3458 39.11C89.3652 39.3033 89.3748 39.5063 89.3748 39.719C89.3942 39.9317 89.4038 40.1443 89.4038 40.357C89.4232 40.3763 89.4232 40.4053 89.4038 40.444C89.4038 40.4827 89.4038 40.5213 89.4038 40.56C89.3458 40.734 89.3362 40.937 89.3748 41.169C89.4135 41.4203 89.4038 41.662 89.3458 41.894C89.3265 42.068 89.3072 42.242 89.2878 42.416C89.2685 42.59 89.2395 42.7737 89.2008 42.967C89.1622 43.2763 89.0945 43.5857 88.9978 43.895C88.9012 44.2043 88.8045 44.5137 88.7078 44.823C88.7078 44.8617 88.6788 44.9293 88.6208 45.026C88.5435 45.1613 88.4758 45.3063 88.4178 45.461C88.3598 45.5963 88.3115 45.7413 88.2728 45.896L88.1858 46.099C88.0892 46.2923 88.0022 46.4857 87.9248 46.679C87.8668 46.853 87.7895 47.0367 87.6928 47.23C87.6348 47.346 87.5768 47.462 87.5188 47.578C87.4608 47.694 87.3932 47.8003 87.3158 47.897C87.2965 47.9357 87.2675 47.9743 87.2288 48.013C87.1902 48.1483 87.1322 48.274 87.0548 48.39C86.9775 48.506 86.9002 48.622 86.8228 48.738C86.6102 49.0667 86.3588 49.376 86.0688 49.666C85.7982 49.956 85.4985 50.2267 85.1698 50.478L84.8218 50.681C84.5512 50.8163 84.2612 50.9323 83.9518 51.029C83.6618 51.1257 83.3622 51.1933 83.0528 51.232C82.9562 51.2513 82.8498 51.2513 82.7338 51.232C82.6758 51.232 82.6178 51.232 82.5598 51.232C82.5018 51.232 82.4438 51.2513 82.3858 51.29H82.2118ZM95.466 51.087C95.3113 51.145 95.1373 51.1257 94.944 51.029L94.364 50.768C94.2673 50.7293 94.19 50.6423 94.132 50.507L94.045 50.333C94.0063 50.2363 93.958 50.1687 93.9 50.13C93.8033 50.0527 93.7356 49.9173 93.697 49.724C93.6583 49.5307 93.6293 49.3373 93.61 49.144C93.5906 48.9507 93.5713 48.7573 93.552 48.564C93.5326 48.4093 93.523 48.2547 93.523 48.1C93.523 47.9453 93.523 47.8003 93.523 47.665L93.552 47.462C93.5906 47.3653 93.61 47.2687 93.61 47.172C93.61 47.0753 93.61 46.9883 93.61 46.911V41.633C93.6486 41.3623 93.668 41.0917 93.668 40.821C93.668 40.531 93.668 40.2507 93.668 39.98C93.6873 39.7093 93.697 39.4483 93.697 39.197C93.697 38.9263 93.6776 38.6653 93.639 38.414C93.6196 38.3173 93.61 38.211 93.61 38.095C93.61 37.979 93.61 37.863 93.61 37.747C93.61 37.573 93.61 37.399 93.61 37.225C93.61 37.051 93.5906 36.877 93.552 36.703V36.616C93.552 36.3453 93.5326 36.0843 93.494 35.833C93.4746 35.5623 93.4553 35.3013 93.436 35.05C93.4166 34.8953 93.3973 34.7503 93.378 34.615C93.3586 34.4797 93.3296 34.3443 93.291 34.209C93.2716 34.1317 93.262 34.0543 93.262 33.977C93.262 33.8997 93.262 33.8223 93.262 33.745C93.262 33.6097 93.2813 33.484 93.32 33.368C93.3586 33.2327 93.3973 33.107 93.436 32.991C93.4553 32.9523 93.5036 32.8943 93.581 32.817C93.6196 32.7783 93.6583 32.7493 93.697 32.73C93.7356 32.7107 93.7646 32.6913 93.784 32.672C93.9 32.5173 94.0546 32.4497 94.248 32.469C94.2866 32.4883 94.3446 32.4787 94.422 32.44C94.5186 32.3627 94.6056 32.353 94.683 32.411C94.741 32.4497 94.8376 32.4497 94.973 32.411C95.031 32.411 95.0793 32.4303 95.118 32.469C95.176 32.5463 95.2533 32.6043 95.35 32.643C95.4466 32.6817 95.5143 32.7397 95.553 32.817C95.611 32.875 95.669 32.933 95.727 32.991C95.7656 33.049 95.8043 33.107 95.843 33.165C95.901 33.2037 95.93 33.2617 95.93 33.339C95.9493 33.4163 95.9493 33.4937 95.93 33.571C95.93 33.629 95.93 33.6967 95.93 33.774C95.93 33.948 95.9396 34.1317 95.959 34.325C95.9976 34.499 96.0266 34.673 96.046 34.847C96.0846 35.0403 96.1136 35.2433 96.133 35.456C96.1523 35.6493 96.1716 35.8523 96.191 36.065V36.355C96.2296 36.4903 96.249 36.6257 96.249 36.761C96.249 36.8963 96.2586 37.0317 96.278 37.167V37.196C96.2973 37.428 96.3166 37.66 96.336 37.892C96.3553 38.124 96.3746 38.356 96.394 38.588C96.4133 38.6847 96.423 38.791 96.423 38.907C96.423 39.0037 96.423 39.1003 96.423 39.197V46.911C96.423 47.085 96.4326 47.259 96.452 47.433C96.4906 47.607 96.5196 47.7713 96.539 47.926C96.539 48.0227 96.597 48.071 96.713 48.071C96.887 48.1097 97.0513 48.1097 97.206 48.071C97.4186 48.0323 97.6216 48.013 97.815 48.013C98.0276 48.013 98.2403 48.013 98.453 48.013C98.6656 48.013 98.8686 48.013 99.062 48.013C99.2746 47.9937 99.4776 47.9743 99.671 47.955H99.99C100.145 47.9743 100.28 47.9937 100.396 48.013C100.531 48.013 100.667 48.013 100.802 48.013C101.015 48.013 101.227 48.0227 101.44 48.042C101.672 48.042 101.894 48.0517 102.107 48.071C102.262 48.0903 102.416 48.1 102.571 48.1C102.745 48.1 102.919 48.1 103.093 48.1H103.238C103.625 48.0807 103.973 48.1773 104.282 48.39C104.417 48.448 104.514 48.5447 104.572 48.68C104.611 48.7573 104.64 48.8347 104.659 48.912C104.698 48.97 104.727 49.0473 104.746 49.144C104.765 49.2213 104.775 49.2987 104.775 49.376C104.794 49.434 104.814 49.5017 104.833 49.579C104.891 49.753 104.872 49.9463 104.775 50.159C104.756 50.217 104.736 50.275 104.717 50.333C104.698 50.391 104.669 50.449 104.63 50.507C104.591 50.565 104.543 50.6133 104.485 50.652C104.485 50.652 104.446 50.6713 104.369 50.71C104.214 50.8453 104.04 50.9323 103.847 50.971C103.673 51.0097 103.48 51.0483 103.267 51.087L102.977 51.058C102.687 50.9613 102.397 50.9033 102.107 50.884C102.03 50.8647 101.943 50.855 101.846 50.855C101.749 50.8357 101.653 50.826 101.556 50.826C101.421 50.826 101.285 50.826 101.15 50.826C101.015 50.8067 100.87 50.7873 100.715 50.768L100.425 50.739C100.251 50.7583 100.077 50.768 99.903 50.768C99.729 50.7487 99.555 50.7487 99.381 50.768C99.3036 50.768 99.2263 50.768 99.149 50.768C99.0716 50.7487 98.9943 50.739 98.917 50.739C98.7623 50.739 98.6076 50.739 98.453 50.739C98.3176 50.739 98.1726 50.7583 98.018 50.797C97.9406 50.8163 97.844 50.8357 97.728 50.855C97.6313 50.855 97.5346 50.855 97.438 50.855C97.148 50.8743 96.858 50.9033 96.568 50.942C96.278 50.9613 95.9976 51 95.727 51.058C95.669 51.0773 95.582 51.087 95.466 51.087ZM112.081 50.971C112.043 50.9517 111.985 50.942 111.907 50.942C111.869 50.942 111.83 50.913 111.791 50.855C111.753 50.797 111.714 50.7487 111.675 50.71C111.637 50.652 111.598 50.5843 111.559 50.507C111.501 50.4297 111.453 50.4297 111.414 50.507H111.356C111.356 50.4877 111.347 50.478 111.327 50.478C111.327 50.4587 111.327 50.449 111.327 50.449C111.269 50.1783 111.182 49.927 111.066 49.695C111.008 49.5403 110.95 49.3857 110.892 49.231C110.854 49.057 110.825 48.883 110.805 48.709L110.631 47.433L110.544 46.389V46.331C110.506 46.099 110.486 45.867 110.486 45.635C110.486 45.3837 110.486 45.1323 110.486 44.881C110.467 44.7457 110.457 44.62 110.457 44.504C110.457 44.3687 110.448 44.2333 110.428 44.098C110.409 43.9433 110.39 43.7887 110.37 43.634C110.37 43.4793 110.37 43.3343 110.37 43.199L110.399 40.908V37.805C110.361 37.689 110.303 37.631 110.225 37.631C110.187 37.631 110.138 37.6407 110.08 37.66C110.042 37.66 110.003 37.66 109.964 37.66L108.659 38.008C108.485 38.066 108.311 38.124 108.137 38.182C107.963 38.2207 107.789 38.269 107.615 38.327C107.48 38.3463 107.345 38.3657 107.209 38.385C107.093 38.385 106.968 38.385 106.832 38.385C106.736 38.385 106.629 38.3463 106.513 38.269C106.378 38.211 106.262 38.1337 106.165 38.037C106.069 37.9403 105.972 37.834 105.875 37.718L105.817 37.631C105.779 37.4957 105.74 37.37 105.701 37.254C105.682 37.1187 105.682 36.9833 105.701 36.848C105.721 36.674 105.759 36.5097 105.817 36.355C105.895 36.2003 106.001 36.065 106.136 35.949C106.194 35.9103 106.243 35.862 106.281 35.804C106.339 35.746 106.397 35.688 106.455 35.63C106.533 35.5913 106.581 35.572 106.6 35.572C106.716 35.572 106.823 35.5527 106.919 35.514C107.016 35.456 107.113 35.4173 107.209 35.398C107.306 35.3787 107.403 35.3593 107.499 35.34C107.596 35.3207 107.693 35.3013 107.789 35.282C108.06 35.2047 108.331 35.137 108.601 35.079C108.872 35.0017 109.143 34.9437 109.413 34.905L110.979 34.644C111.018 34.6247 111.047 34.615 111.066 34.615C111.105 34.615 111.134 34.6053 111.153 34.586C111.269 34.5473 111.385 34.5183 111.501 34.499C111.617 34.4797 111.733 34.4893 111.849 34.528C111.888 34.5473 111.917 34.557 111.936 34.557C111.975 34.5377 112.004 34.528 112.023 34.528C112.352 34.4893 112.681 34.4507 113.009 34.412C113.338 34.3733 113.657 34.325 113.966 34.267C114.218 34.2283 114.469 34.1897 114.72 34.151C114.972 34.1123 115.223 34.0833 115.474 34.064C115.668 34.0253 115.861 33.9963 116.054 33.977C116.248 33.9577 116.441 33.9383 116.634 33.919C116.789 33.8997 116.944 33.8803 117.098 33.861C117.272 33.8417 117.437 33.8223 117.591 33.803C117.746 33.7837 117.891 33.7837 118.026 33.803C118.181 33.803 118.336 33.803 118.49 33.803C118.587 33.803 118.674 33.832 118.751 33.89C118.848 33.948 118.935 33.9963 119.012 34.035C119.09 34.093 119.196 34.1897 119.331 34.325C119.37 34.3637 119.409 34.4507 119.447 34.586C119.467 34.644 119.486 34.7117 119.505 34.789C119.525 34.847 119.544 34.9147 119.563 34.992C119.602 35.166 119.583 35.3303 119.505 35.485L119.331 35.891C119.312 35.949 119.283 36.007 119.244 36.065C119.225 36.1037 119.196 36.1423 119.157 36.181C119.119 36.2197 119.099 36.239 119.099 36.239C119.022 36.297 118.935 36.355 118.838 36.413C118.761 36.471 118.664 36.5097 118.548 36.529L117.301 36.616C117.185 36.616 117.069 36.6257 116.953 36.645C116.837 36.645 116.712 36.6547 116.576 36.674H116.431C116.122 36.6933 115.822 36.7223 115.532 36.761C115.242 36.7997 114.952 36.8383 114.662 36.877L113.502 37.051C113.444 37.051 113.406 37.0607 113.386 37.08C113.309 37.08 113.251 37.138 113.212 37.254V37.341C113.212 37.5343 113.212 37.7277 113.212 37.921C113.212 38.095 113.222 38.2787 113.241 38.472C113.299 38.7427 113.299 39.0133 113.241 39.284C113.222 39.342 113.203 39.4 113.183 39.458C113.183 39.4967 113.183 39.5353 113.183 39.574C113.203 39.806 113.183 40.0573 113.125 40.328C113.125 40.386 113.125 40.444 113.125 40.502C113.125 40.56 113.135 40.618 113.154 40.676C113.174 40.7533 113.183 40.8403 113.183 40.937C113.183 41.0337 113.183 41.1303 113.183 41.227V42.735C113.183 42.8123 113.174 42.909 113.154 43.025C113.154 43.1217 113.154 43.2183 113.154 43.315C113.154 43.3923 113.154 43.4793 113.154 43.576C113.174 43.6727 113.183 43.7693 113.183 43.866C113.183 44.0013 113.183 44.1367 113.183 44.272C113.203 44.4073 113.203 44.5523 113.183 44.707V45.606C113.183 45.6253 113.174 45.6447 113.154 45.664C113.154 45.6833 113.164 45.7123 113.183 45.751C113.203 45.925 113.212 46.1087 113.212 46.302C113.212 46.476 113.232 46.65 113.27 46.824C113.27 46.882 113.27 46.94 113.27 46.998C113.29 47.056 113.29 47.114 113.27 47.172C113.27 47.346 113.29 47.5297 113.328 47.723C113.367 47.897 113.396 48.071 113.415 48.245C113.454 48.4577 113.493 48.6703 113.531 48.883C113.589 49.0957 113.638 49.3083 113.676 49.521L113.763 49.927C113.763 49.985 113.734 50.0333 113.676 50.072C113.676 50.072 113.667 50.072 113.647 50.072C113.647 50.072 113.638 50.0817 113.618 50.101C113.522 50.1397 113.483 50.1977 113.502 50.275V50.42C113.502 50.42 113.493 50.4297 113.473 50.449C113.473 50.4683 113.464 50.478 113.444 50.478C113.348 50.478 113.27 50.5167 113.212 50.594C113.154 50.6713 113.087 50.739 113.009 50.797C112.951 50.8357 112.874 50.8743 112.777 50.913C112.526 51.0097 112.294 51.029 112.081 50.971Z" fill="#F7F5E6"/>
</svg>
